<?xml version="1.0" standalone="no"?>
<!DOCTYPE svg PUBLIC "-//W3C//DTD SVG 1.1//EN" "http://www.w3.org/Graphics/SVG/1.1/DTD/svg11.dtd" >
<svg xmlns="http://www.w3.org/2000/svg">
<metadata>
This is a custom SVG webfont generated by Font Squirrel.
Copyright   : Generated in 2010 by FontLab Studio Copyright info pending
</metadata>
<defs>
<font id="LeagueScriptThinLeagueScript" horiz-adv-x="833" >
<font-face units-per-em="1000" ascent="750" descent="-250" />
<missing-glyph horiz-adv-x="412" />
<glyph unicode=" "  horiz-adv-x="412" />
<glyph unicode="&#x09;" horiz-adv-x="412" />
<glyph unicode="&#xa0;" horiz-adv-x="412" />
<glyph unicode="!" horiz-adv-x="622" d="M200 174h-1q-1 1 -2 1q-8 3 -5 12q85 207 263 463l81 112q40 56 60 81t22 27q6 6 13 1t1 -13q-2 -2 -22 -27l-60 -79l-80 -112q-181 -264 -261 -460q-4 -6 -9 -6zM190 46q0 -23 -17 -39.5t-40 -16.5t-39.5 16.5t-16.5 39.5q0 24 16.5 40.5t39.5 16.5t40 -16.5t17 -40.5z " />
<glyph unicode="&#x22;" horiz-adv-x="407" d="M56 504q-5 0 -8 4q-5 7 2 12q119 91 145 187q3 10 4.5 19.5t2 17t0.5 14.5t-1 12t-1.5 8.5t-1.5 5.5v2q-2 8 6 11q9 2 11 -6q1 -1 3 -11t1.5 -31.5t-6.5 -44.5q-12 -45 -44 -91q-41 -57 -108 -107q-4 -2 -5 -2zM165 504q-5 0 -8 4q-5 7 2 12q119 91 145 187 q3 10 4.5 19.5t2 17t0.5 14.5t-1 12t-1.5 8.5t-0.5 5.5l-1 2q-2 8 6 11q9 2 11 -6q1 -1 3 -11t1.5 -31.5t-6.5 -44.5q-12 -45 -44 -91q-41 -57 -108 -107q-4 -2 -5 -2z" />
<glyph unicode="#" horiz-adv-x="962" d="M41 -74q-3 0 -5 2q-7 4 -3 12l595 916q5 7 13 2q7 -5 2 -12l-595 -916q-2 -4 -7 -4zM338 -74q-1 0 -5 2q-8 4 -2 12l595 916q4 8 12 2q7 -5 3 -12l-595 -916q-4 -4 -8 -4zM884 556h-605q-9 0 -9 9t9 9h605q9 0 9 -9t-9 -9zM711 234h-605q-9 0 -9 9t9 9h605q9 0 9 -9 t-9 -9z" />
<glyph unicode="$" horiz-adv-x="950" d="M241 -94q-64 2 -120 31.5t-79 82.5q-40 95 27 185q15 19 33.5 36.5t28.5 25t13 8.5q8 4 12 -3q6 -8 -3 -12l-4 -3l-11 -9l-17 -14q-9 -7 -19 -18t-19 -23q-60 -81 -24 -166q19 -44 68.5 -72t114.5 -31q79 -3 156.5 35.5t122.5 124.5q29 55 43.5 108t14 110.5t-4.5 93.5 t-15 103q-1 4 -6 36.5t-6 39.5l-5 36q-4 30 -4 41.5t-1.5 38t1 42.5t5.5 39t9.5 44t14.5 42q23 57 61 95t80 51.5t83.5 11.5t76.5 -19q59 -29 77.5 -84.5t-15.5 -130.5q-16 -33 -51.5 -59.5t-55.5 -35t-30 -10.5q-7 -4 -11 5q-3 9 5 12q3 0 24.5 9.5t52.5 33t46 51.5 q32 70 17 117.5t-68 76.5q-28 15 -65.5 16.5t-76.5 -11t-75 -47.5t-57 -88q-22 -55 -27 -120t-1 -100.5t17 -109.5l3 -20q22 -130 20 -203q-5 -118 -60 -223q-44 -85 -123 -128.5t-173 -41.5zM107 -186q-8 4 -2 12l813 1270q6 7 13 3q3 -1 3.5 -5.5t-1.5 -7.5l-813 -1270 q-5 -7 -13 -2z" />
<glyph unicode="%" d="M495 793q0 -43 -30.5 -73t-73.5 -30q-42 0 -72.5 30t-30.5 73t30.5 73t72.5 30q43 0 73.5 -30t30.5 -73zM503 71q0 -43 -30 -73t-73 -30t-73 30t-30 73t30 73t73 30t73 -30t30 -73zM106 -34q-3 0 -4 1q-9 5 -3 13l587 915q6 8 13 3q6 -5 3 -13l-588 -915q-3 -4 -8 -4z " />
<glyph unicode="&#x26;" horiz-adv-x="1163" d="M385 -140q-94 0 -162.5 39.5t-96.5 117.5q-35 100 10 223q23 62 60 113t83.5 88t97.5 66t110.5 51.5t113 39t114.5 33.5q3 1 5 1q10 2 29 8t28 8l72 112q37 57 74.5 94t67 50.5t55.5 14.5t43 -7t28 -22q19 -25 11 -63q-20 -96 -257 -170l-83 -24q-118 -190 -180 -322 q-124 -261 -71 -363q11 -20 27 -33q102 42 189 131q17 17 33 36l28 34l23 30l18 28l12 21l8 14l3 5q4 7 12 4q8 -4 4 -12q-44 -88 -128 -173q-73 -74 -159 -119q-16 -8 -24 -11q31 -17 81 -19q116 -5 219 87q23 20 43 43.5t28 36.5l9 13q6 7 13 3t3 -12l-4 -6q-4 -6 -11 -15 l-17 -22q-9 -12 -23 -27t-29 -28q-108 -97 -232 -91q-60 1 -101 28q-88 -34 -177 -34zM762 625q-6 -1 -18.5 -5t-18.5 -5l-104 -30q-38 -11 -98 -32t-96.5 -39.5t-84 -48t-79 -61.5t-61.5 -75.5t-49 -94.5q-44 -117 -10 -211q25 -70 87.5 -107.5t154.5 -37.5q84 0 160 29 q-16 16 -24 33q-31 60 -8 165q19 86 79 214q61 129 170 306zM1009 893q-75 -35 -145 -143q-33 -48 -61 -94q42 12 63 19q227 70 244 155q6 29 -7 48q-15 21 -45.5 23.5t-48.5 -8.5z" />
<glyph unicode="'" horiz-adv-x="243" d="M276 560q-3 0 -4 1q-8 4 -4 12l137 275q4 10 12 4q8 -3 4 -12l-137 -275q-2 -5 -8 -5z" />
<glyph unicode="(" horiz-adv-x="384" d="M119 -145q-7 0 -9 8q-27 231 70 457q76 180 231 355q106 120 245 230q67 53 114 82q8 5 13 -3q4 -7 -3 -12q-1 0 -14.5 -9t-40.5 -29l-58 -43q-139 -110 -243 -229q-66 -74 -119.5 -154t-102 -182t-69 -221.5t-5.5 -239.5q2 -8 -8 -10h-1z" />
<glyph unicode=")" horiz-adv-x="593" d="M-156 -183q-5 0 -7 5q-5 7 3 12q46 29 113 82q133 105 243 228q344 391 295 797q0 8 8 10q10 0 10 -8q28 -226 -69 -457q-80 -185 -231 -355q-106 -120 -245 -230l-59 -44l-41 -29q-14 -9 -15 -9q-2 -2 -5 -2z" />
<glyph unicode="*" horiz-adv-x="431" d="M399 699v-3q-1 -16 -13 -25t-30 -8.5t-38 9.5q-36 15 -78 19q37 -29 69 -41q31 -13 43.5 -34t-3.5 -41l-2 -2q-20 -16 -41 -3.5t-34 43.5q-12 32 -41 69q4 -42 19 -78q9 -20 9.5 -38t-8.5 -30t-25 -13h-3q-25 1 -32 26.5t7 54.5q14 33 20 78q-26 -31 -42 -69 q-12 -31 -33 -43.5t-42 2.5q-18 18 -6 41.5t44 36.5q34 13 69 41q-43 -4 -78 -19q-29 -14 -54 -7.5t-27 31.5v3q2 25 27 32t54 -7q32 -14 78 -20q-29 26 -69 42q-30 12 -42.5 33t2.5 41l3 3q20 15 41 2.5t33 -42.5q16 -40 42 -69q-6 46 -20 78q-14 29 -7 54t32 27h3 q25 -2 31.5 -27t-7.5 -54q-15 -35 -19 -78q28 35 41 69q13 30 34 42.5t41 -2.5l3 -3q16 -20 3 -41t-44 -33q-38 -16 -69 -42q45 6 78 20q29 14 54.5 7t26.5 -32z" />
<glyph unicode="+" d="M204 59q-1 0 -5 2q-8 4 -2 12l376 578q4 8 12 2q7 -5 3 -12l-376 -578q-4 -4 -8 -4zM725 367h-605q-9 0 -9 9t9 9h605q9 0 9 -9t-9 -9z" />
<glyph unicode="," horiz-adv-x="203" d="M182 52q0 -11 -5 -23q-22 -60 -104 -82h-2q-7 0 -8 6q-3 7 6 11q41 11 65 33q-3 -1 -9 -1q-23 0 -39.5 16.5t-16.5 39.5q0 24 16.5 40.5t39.5 16.5q24 0 40.5 -16.5t16.5 -40.5z" />
<glyph unicode="-" horiz-adv-x="716" d="M661 303h-605q-9 0 -9 9t9 9h605q9 0 9 -9t-9 -9z" />
<glyph unicode="." horiz-adv-x="223" d="M190 46q0 -23 -17 -39.5t-40 -16.5t-39.5 16.5t-16.5 39.5q0 24 16.5 40.5t39.5 16.5t40 -16.5t17 -40.5z" />
<glyph unicode="/" horiz-adv-x="969" d="M176 -225q-3 0 -5 1q-8 6 -2 13l813 1270q5 7 13 2q8 -4 2 -12l-813 -1270q-3 -4 -8 -4z" />
<glyph unicode="0" horiz-adv-x="778" d="M266 -22q-19 0 -29 1q-100 11 -143 100q-46 94 -15 246q32 154 135 320q87 136 184 218q79 66 165 95q20 7 39.5 11.5t35.5 6.5t30 3t25 0.5t18.5 -1t12.5 -1.5l5 -1q10 -4 7 -12q-2 -10 -12 -8q-64 15 -156 -17q-186 -66 -337 -305q-102 -163 -132 -313 q-30 -143 13 -233q38 -80 127 -89q125 -13 245 97q127 118 227 360q35 85 47.5 156.5t3.5 117.5t-20.5 72t-27.5 44q-27 29 -63.5 40t-72.5 1h-1q-3 0 -13 -5t-23 -23t-14 -43q-2 -28 24.5 -47t48 -24.5t27.5 -5.5q11 -2 9 -11q-2 -11 -11 -9q-23 0 -59 18q-62 29 -59 81 q2 44 34 71q20 17 31 17q42 13 84 0.5t73 -47.5q52 -58 55 -154q5 -114 -55 -257q-101 -245 -231 -366q-63 -58 -129 -84q-49 -20 -103 -20z" />
<glyph unicode="1" horiz-adv-x="567" d="M87 -8q-8 5 -3 14q249 371 643 891q-61 -44 -121 -72q-99 -47 -221 -74q-142 -32 -252 -32q-10 0 -10 10t10 10q107 0 248 31q274 61 412 214l15 -12q0 -1 -26 -34l-68 -92l-100 -132l-122 -166l-132 -182l-134 -190l-125 -182q-5 -7 -14 -2z" />
<glyph unicode="2" horiz-adv-x="806" d="M614 -41q-30 2 -89 31q-98 47 -169 51q-57 4 -185 -40q-54 -17 -67 -20q-46 -11 -57 7q-10 16 14 48q42 55 103.5 112.5t145.5 117.5l142 99l153 98q148 93 191 125q76 57 111 129t18 134q-27 92 -142 105q-97 9 -193 -39t-145 -140q-20 -36 -8 -66.5t58 -37.5 q69 -11 119 71q11 18 20.5 39.5t13.5 34.5l3 12q2 11 12 7q10 -2 7 -12q0 -2 -4 -14.5t-13.5 -35t-21.5 -42.5q-58 -94 -139 -80q-39 6 -60 29t-19.5 50t14.5 55q55 100 152.5 149.5t205.5 38.5q57 -6 101 -36.5t58 -81.5q21 -78 -21.5 -154.5t-114.5 -130.5 q-53 -39 -192 -126l-152 -98q-57 -37 -141 -97t-145 -116t-101 -111q-17 -22 -14 -26q4 -8 36 2q9 3 31.5 9.5t34.5 10.5q133 45 193 41q76 -5 176 -53q25 -12 36.5 -16.5t30 -9.5t29.5 -3t24.5 10t25.5 24q8 7 14 1q8 -5 2 -14q-34 -41 -82 -41z" />
<glyph unicode="3" d="M259 -87q-65 0 -116 19q-74 26 -101 87q-18 38 -16 89q2 43 19 82q23 59 85 100q2 2 12.5 6.5t28.5 7.5t37 -3q32 -11 49 -50q15 -37 2 -68q-8 -19 -25.5 -35t-28 -21.5t-15.5 -7.5q-8 -3 -13 6q-4 9 6 13q44 18 58 52q10 24 -2 53q-14 32 -37 39q-30 9 -62 -9 q-2 0 -15 -9.5t-32 -32t-30 -49.5q-35 -86 -3 -155q25 -54 90 -76q124 -44 272 14q167 66 261 230q80 141 41 270q-14 42 -39 76h-11q-91 -11 -153 21q-20 11 -30 26.5t-7 31.5q6 32 51 35q62 5 111 -37q22 -18 36 -41q7 -7 12 -14q20 3 45 13q74 28 129 101 q29 41 35.5 89.5t-12.5 91.5q-33 72 -115 81q-50 5 -93 -8.5t-60.5 -27t-29.5 -27.5q-6 -7 -14 -1q-7 7 -1 14q28 32 74 53q59 23 126 16q48 -5 82 -30q33 -25 49 -62q21 -47 14 -102t-39 -99q-58 -78 -139 -108q-11 -5 -38 -12q23 -35 36 -74q19 -64 12 -124 q-8 -82 -55 -162q-50 -87 -123 -150q-64 -55 -148 -88q-73 -30 -151 -33q-6 -1 -19 -1zM548 635h-11q-30 -3 -33 -19q-5 -20 26 -36q51 -27 140 -20l-3 3l-1 1v2l-4 5q-3 5 -11 14.5t-18 17.5q-36 32 -85 32z" />
<glyph unicode="4" horiz-adv-x="822" d="M299 -25q-2 0 -6 2q-7 7 -2 14l314 401q-79 15 -196 17h-55q-26 0 -52 -1.5t-50 -3.5l-45 -2q-21 -2 -39 -4t-33 -4t-25 -3t-16 -2l-6 -1l-4 20q258 67 638 318l167 115l122 90q39 30 42 33l14 -14l-427 -545q3 -1 8.5 -2.5t8.5 -2.5q127 -34 167 -109q5 -9 -4 -14 q-9 -6 -13 4q-36 67 -155 100l-25 6l-320 -408q-3 -4 -8 -4zM387 430q15 0 22 -1q126 -2 210 -20l383 490q-124 -95 -269 -190q-164 -108 -316 -187q-120 -64 -227 -102q108 10 197 10z" />
<glyph unicode="5" horiz-adv-x="857" d="M264 -54q-80 0 -154 45q-5 2 -15.5 11t-26 33.5t-19.5 53.5q-12 92 96 203q7 7 14 0t0 -14q-101 -105 -91 -187q2 -15 8.5 -29.5t13.5 -23.5t14 -16t12 -10l4 -4q70 -42 144 -42q124 0 244 113q100 94 171 236q19 39 32 90q24 101 -6 165q-31 67 -120 87q-33 8 -73.5 0 t-73.5 -24t-63.5 -35.5t-45 -31t-17.5 -14.5l-15 13l236 304q9 13 19 19q27 15 67 2q101 -33 242 -11q31 5 61 12.5t44 12.5l15 5q9 4 13 -6q4 -9 -6 -13q-31 -15 -123 -31q-72 -10 -121 -9q-72 2 -132 21q-24 8 -37.5 4t-19 -9t-5.5 -7l-1 -1l-192 -248q20 13 38 23 q49 27 93 39q58 15 101 5q99 -22 135 -98q18 -39 18 -91q0 -41 -12 -89q-4 -15 -8.5 -29.5t-8.5 -25.5l-7 -18l-6 -14l-3 -6q-1 -1 -6 -11t-16.5 -31t-24.5 -41q-64 -99 -128 -159q-92 -86 -188 -109q-36 -9 -70 -9z" />
<glyph unicode="6" horiz-adv-x="697" d="M251 -69h-7q-111 1 -152 79q-46 89 4 254q41 140 127 271q136 213 273 318q106 81 182 78q71 0 97 -44q10 -18 11.5 -42t-3 -45t-12 -42.5t-12.5 -31.5l-7 -14q-4 -10 -13 -4q-9 5 -4 14l3 6q3 6 7 16l9 23q5 12 8 27t5 29.5t-0.5 28.5t-8.5 25q-19 34 -81 34h-1 q-30 0 -68 -15q-52 -22 -99 -59q-132 -99 -270 -312q-83 -130 -124 -267q-48 -159 -5 -238q34 -67 134 -69q53 -1 103 17t87 46.5t71 68t55.5 73t39.5 69.5q40 79 47.5 149.5t-18.5 115.5q-33 57 -112 62q-111 4 -201 -72q-45 -39 -69 -80q-5 -9 -14 -4q-8 5 -4 14l9 13 q7 11 25 32t39 39q42 36 90 56q59 25 126 22q91 -6 128 -72q29 -51 22 -126q-8 -74 -51 -158q-19 -37 -40.5 -71t-56 -75t-72.5 -70t-90 -49t-107 -20z" />
<glyph unicode="7" horiz-adv-x="467" d="M42 -108q-2 0 -6 2q-7 7 -1 15q3 3 56 65l149 179l179 220q155 193 254 334q51 75 75 120q18 34 18 53q-8 0 -16 -3q-74 -26 -171 -32q-83 -5 -173 4q-106 9 -188 28q-10 2 -8 12q2 9 12 7l5 -1q5 -1 14 -3t21 -4l29 -4l34 -5q18 -3 40 -5.5t43 -4.5q207 -20 335 27 q28 10 39 -5q21 -31 -93 -195q-93 -134 -254 -336l-111 -137l-106 -127l-85 -102l-61 -72q-22 -26 -22 -27q-3 -3 -8 -3z" />
<glyph unicode="8" horiz-adv-x="1000" d="M225 -123q-141 0 -192 75q-33 50 -24 123q1 12 3.5 24t5 19t4.5 14l2 6q27 66 60 113q39 56 92 101q64 56 149 95q74 34 181 65q40 12 52 16q-27 55 -39.5 87.5t-13 83t24.5 98.5q38 75 115 104q73 27 144 4q34 -13 60 -31q-4 20 -7 30q-5 18 -12 36t-13.5 31t-12.5 23 t-10 16l-3 5q-7 7 2 14q7 5 14 -2l2 -3q2 -4 6 -10l8 -12l9 -18t10 -21.5t10 -25.5t9 -28q8 -31 11 -56q15 -17 24 -32q41 -67 27 -161q-2 -11 -11 -9q-9 1 -9 12q14 93 -30 157q0 -11 -2 -31q-9 -72 -54 -135q-51 -71 -231 -137q54 -107 62 -178q15 -123 -63 -255 q-50 -90 -161 -150q-103 -57 -199 -57zM567 510q-14 -5 -55 -17q-108 -31 -178 -64q-149 -69 -234 -190q-19 -27 -33.5 -53.5t-18.5 -39.5l-5 -14v-1l-1 -3q-2 -4 -3.5 -10.5t-4 -15.5t-4 -19.5t-2.5 -22t-0.5 -24t3 -25t7.5 -25t12 -23.5q45 -66 175 -66q88 0 190.5 55 t152.5 142q39 67 54 126.5t6 114t-22 89t-39 86.5zM723 895q-53 0 -100.5 -27t-75.5 -80q-23 -44 -22 -90.5t13 -77.5t39 -85q176 65 224 131q58 81 51 178q-29 29 -69 41q-32 10 -60 10z" />
<glyph unicode="9" horiz-adv-x="553" d="M133 -60q-2 0 -6 2q-7 5 -2 14l570 777l-13 -14l-17 -17l-15 -14q-93 -88 -169 -141q-100 -68 -174 -79q-73 -11 -128 17q-52 27 -74 83q-26 69 13 150q42 87 152 158q78 49 170 69q72 15 152 10q40 -3 78.5 -10t55 -12t19.5 -7q10 -3 6 -13t-13 -6q-61 23 -147 28 q-175 11 -310 -76q-105 -65 -145 -150q-35 -72 -12 -134q19 -50 67.5 -73.5t112.5 -13.5q128 18 332 215q45 43 89.5 91t66.5 74.5t22 27.5l16 -12l-689 -940q-3 -4 -8 -4z" />
<glyph unicode=":" horiz-adv-x="324" d="M231 103q0 -23 -17 -39.5t-40 -16.5t-39.5 16.5t-16.5 39.5q0 24 16.5 40.5t39.5 16.5t40 -16.5t17 -40.5zM296 376q0 -23 -17 -39.5t-40 -16.5t-39.5 16.5t-16.5 39.5q0 24 16.5 40.5t39.5 16.5t40 -16.5t17 -40.5z" />
<glyph unicode=";" horiz-adv-x="332" d="M296 376q0 -23 -17 -39.5t-40 -16.5t-39.5 16.5t-16.5 39.5q0 24 16.5 40.5t39.5 16.5t40 -16.5t17 -40.5zM182 52q0 -11 -5 -23q-22 -60 -104 -82h-2q-7 0 -8 6q-3 7 6 11q41 11 65 33q-3 -1 -9 -1q-23 0 -39.5 16.5t-16.5 39.5q0 24 16.5 40.5t39.5 16.5 q24 0 40.5 -16.5t16.5 -40.5z" />
<glyph unicode="&#x3c;" d="M380 85q-9 0 -9 8q-7 99 -141 206q-30 24 -63 46t-51 32l-19 10q-7 3 -5 11q2 6 10 6q200 -21 415 111q103 62 177 136q7 6 13 0t0 -13l-9 -8q-8 -8 -24 -22l-36 -30q-21 -17 -51 -38.5t-60 -39.5q-97 -59 -193 -89q-100 -30 -195 -27q55 -34 102 -71q60 -46 97 -98 q46 -61 51 -120q0 -10 -9 -10z" />
<glyph unicode="=" d="M774 443h-605q-9 0 -9 9t9 9h605q9 0 9 -9t-9 -9zM651 234h-605q-9 0 -9 9t9 9h605q9 0 9 -9t-9 -9z" />
<glyph unicode="&#x3e;" d="M85 117q-5 0 -6 3q-8 6 0 12q0 1 21 20.5t65.5 54.5t93.5 64q98 60 193 88q98 31 194 28q-61 37 -102 71q-61 48 -97 97q-45 62 -50 121q0 8 8 10q10 0 10 -9q7 -98 141 -205q29 -24 62.5 -46t51.5 -32t19 -10q7 -3 5 -11q-4 -8 -10 -6q-199 21 -416 -111 q-30 -18 -59 -39t-49 -37l-37 -31l-24 -21l-8 -8q-1 -3 -6 -3z" />
<glyph unicode="?" horiz-adv-x="836" d="M188 173q-1 0 -5 2q-7 4 -3 12l140 224h5q146 -21 286 77q105 74 149 172q45 102 -11 160q-22 22 -58 34q-51 19 -110.5 9.5t-113 -37t-99 -81t-68.5 -122.5q-4 -9 -11 -6q-8 2 -6 11q44 131 163 206.5t248 37.5q106 -32 104 -131q-2 -92 -92 -192q-100 -111 -233 -146 q-73 -20 -143 -10l-134 -215q-3 -5 -8 -5zM172 46q0 -23 -17 -39.5t-40 -16.5t-39.5 16.5t-16.5 39.5q0 24 16.5 40.5t39.5 16.5t40 -16.5t17 -40.5z" />
<glyph unicode="@" horiz-adv-x="1143" d="M121 424q81 116 217.5 205t286 122t288.5 -6q85 -28 135.5 -73t63 -108.5t-30.5 -141.5q-23 -43 -67.5 -92.5t-98 -92.5t-114 -66.5t-108.5 -11.5q-40 12 -43 42q-5 30 35 74l-63 -48q-23 -18 -61 -42t-74 -35t-72 -11q-55 0 -96.5 33t-46.5 85q-11 95 125 211 q179 151 339 151q51 0 91 -18.5t51 -59.5q14 -66 -76 -162l4 3q35 26 75 53l62 40q23 14 24 14q8 6 12 -3q5 -6 -3 -12q-1 0 -23 -14l-62 -40q-40 -27 -75 -53q-156 -116 -148 -164q0 -19 30 -26q44 -12 102.5 12t110 67.5t93.5 90.5t62 84q30 56 30.5 104.5t-25 84.5 t-66.5 63t-97 45q-138 40 -287 3.5t-281 -124t-204 -193.5q-73 -106 -69 -192.5t58 -146t144 -87.5t189 -17q138 15 230.5 55.5t175.5 110.5q8 6 13 0q7 -6 1 -12q-77 -74 -188.5 -118t-230.5 -55q-116 -10 -211.5 24t-148 97.5t-50.5 157t72 193.5zM415 157 q46 0 105.5 29.5t96.5 58.5l99 79q163 136 144 213q-19 64 -124 64q-74 0 -159.5 -38.5t-167.5 -108.5q-129 -108 -119 -195q5 -47 42 -74.5t83 -27.5z" />
<glyph unicode="A" horiz-adv-x="1208" d="M1544 980q8 -6 3 -13t-13 -1q-61 42 -142 47l-20 -14q-22 -15 -53 -42q-88 -74 -162 -173q-157 -208 -210 -478q49 12 90 30.5t55.5 28t18.5 13.5q8 6 13 -1q6 -7 -2 -13q0 -2 -18 -14t-63 -31.5t-98 -31.5q-21 -123 -21 -245v-42h-18q0 60 -15 142q-14 70 -37 129 q-71 -5 -123 -3q-109 4 -179 25l-33 -53q-99 -154 -163 -214q-33 -32 -76.5 -52t-94 -20.5t-89.5 28.5q-32 24 -49 61q-21 47 -21 96v1q0 9 9 9t9 -9v-1q0 -28 8 -58q18 -59 54 -85q58 -34 122.5 -20t115.5 63q47 43 106 129l85 131q-54 21 -76 54q-15 20 -15 47q0 46 32 72 q34 29 107 29q44 0 78 -10q7 11 23 33q166 224 290 333q160 140 321 167q33 6 79 6q102 0 172 -50zM460 400q0 -53 83 -85q76 120 105 161q-32 8 -67 8q-64 0 -95 -26q-26 -21 -26 -58zM730 286q58 -2 115 3q-26 58 -61 99q-50 60 -118 82q-26 -36 -106 -161q69 -20 170 -23 zM907 141q4 71 17 141q-26 -4 -54 -9q9 -21 15 -42q14 -43 22 -90zM1143 795q103 137 218 218q-37 -2 -64 -6q-158 -28 -313 -164q-126 -111 -287 -330q-14 -18 -20 -27q70 -25 121 -86q41 -50 65 -109q43 6 65 10q51 277 215 494z" />
<glyph unicode="B" horiz-adv-x="995" d="M1078 944q4 -9 -4 -12q-8 -4 -12 4q-13 27 -49.5 45t-74.5 19q-109 2 -183 -39q-31 -17 -70 -49q24 -2 36 -4q141 -22 202 -96q44 -53 44 -127q0 -34 -7 -55q-10 -31 -22 -49q-34 -56 -96 -82q-19 -8 -38 -14q44 -37 67 -80q30 -54 29.5 -122t-33.5 -133 q-41 -82 -115.5 -130t-167.5 -48q-118 0 -197.5 55.5t-79.5 169.5q0 6 0.5 12.5t1 10.5t1 7.5t0.5 5.5l1 2q2 10 11 7q8 -2 6 -12q-3 -15 -3 -33q0 -80 56 -142q65 -65 203 -65q85 0 155.5 43.5t111.5 124.5q61 121 6 235q-17 36 -63 78q-8 6 -11 10q-72 -11 -139 0 q-75 12 -75 49q0 20 16.5 31.5t37.5 11.5q26 0 53 -9q53 -19 111 -64q72 15 115 62q7 7 12.5 15t9.5 14.5t7 12.5l5 12q3 6 4 10t2 6l1 3q6 24 6 50q0 67 -40 116q-57 69 -191 89q-27 5 -52 6q-20 -19 -45 -47q-40 -44 -87.5 -113.5t-74.5 -113.5l-90 -150l-153 -272 q-84 -141 -146 -193q-56 -48 -117 -55q-65 -9 -104 26q-27 23 -37 61q-2 9 7 11t11 -7q6 -31 31 -51q35 -31 90 -22q55 6 107 50q48 41 96 114q33 51 100 171.5t100 175.5q125 213 190 301q50 69 97 115h-7q-156 0 -284 -88q-62 -43 -98 -92q-6 -8 -13 -2q-8 6 -2 13l4 5 q4 5 12.5 14.5t20 21t28.5 26t35 27.5q133 93 297 93q20 0 26 -1q40 38 87 63q86 46 193 41q43 -2 83 -21t55 -53zM716 493q26 0 47 3q-62 42 -91 52q-27 9 -48 9q-14 0 -25.5 -8t-11.5 -19q0 -15 36 -26q36 -10 93 -11z" />
<glyph unicode="C" horiz-adv-x="738" d="M163 -14q-60 24 -91 80t-31 124q0 152 146 342q108 141 257 252q-36 51 -44 110q-2 9 7 10q8 1 10 -9q12 -59 42 -100q20 15 46 32q121 78 223 105q51 12 86 12q43 0 72 -16q24 -16 34 -43q6 -17 6 -35q0 -47 -28 -84q-18 -27 -51 -51q-68 -49 -160 -50q-34 0 -60 5 q-67 12 -121 50q-31 22 -51 50l-53 -42q-180 -149 -276 -319q-67 -121 -67 -219q4 -122 82 -173q46 -30 117 -30q90 3 154 43q111 63 204 207q5 7 13 3q8 -6 2 -13q-94 -145 -210 -213q-81 -45 -163 -45q-52 0 -95 17zM516 735q50 -36 114 -47q25 -5 57 -5q83 0 148 45 q7 5 13 10t10.5 9.5l8.5 8.5l7 8l5 6q2 3 3 4l2 2q24 33 24 74q0 26 -11 42q-12 18 -37 28q-18 6 -46 6q-38 0 -82 -12q-120 -30 -263 -134q21 -26 47 -45z" />
<glyph unicode="D" horiz-adv-x="1008" d="M1164 873q3 -8 -4 -12q-9 -3 -12 5q-38 84 -173 84q-92 0 -176 -41q-42 -22 -67 -41q98 -44 154 -127q62 -94 62 -228q0 -101 -34 -208q-69 -213 -221 -293q-72 -38 -150 -38q-63 0 -115 27t-78 81q-10 20 -14 49.5t8 65.5t45 55t74 19q53 0 124 -28q8 -4 5 -12 q-4 -8 -12 -5q-66 27 -117 27q-35 0 -62 -15q-36 -21 -44.5 -68.5t9.5 -79.5q24 -49 71 -73.5t106 -24.5q73 0 142 36q149 78 212 283q33 106 33 202q0 128 -59 218q-54 81 -156 125q-28 -21 -64 -56q-73 -73 -152 -190q102 0 180 56q35 24 69 61q5 7 13 1q7 -6 1 -12 q0 -1 -7.5 -9.5t-25 -23.5t-36.5 -29q-97 -70 -206 -61l-87 -134q-35 -57 -91 -157t-64 -113q-81 -143 -140 -195q-54 -49 -116 -56q-65 -9 -104 26q-27 23 -37 61q-2 9 7 11t11 -6q7 -32 30 -52q37 -30 91 -22q56 7 106 51q44 40 92 115q26 42 91 159.5t109 186.5l82 128 q-58 9 -99 41.5t-51 78.5t25 101q39 58 105 80t131.5 14.5t133.5 -34.5q42 30 79 48q89 43 184 43q148 0 189 -95zM571 737q63 77 125 127q-57 21 -110.5 28.5t-111.5 -6t-96 -53.5q-66 -73 -33 -137.5t134 -82.5q45 68 92 124z" />
<glyph unicode="E" horiz-adv-x="847" d="M368 -14q-149 6 -223 104q-53 74 -37 191q19 119 111 197q77 65 162 82q-33 92 -1 183q-65 67 -77 150q-2 9 8 11q8 0 10 -8q13 -76 66 -135q14 36 40 72q35 48 90 83q28 17 57.5 28.5t43.5 14.5t17 3q113 14 165 -35q32 -32 33.5 -80.5t-24.5 -83.5q-35 -49 -93.5 -76 t-121.5 -27q-121 5 -199 69q-26 -94 5 -166q38 7 92 4q37 -4 61 -21.5t16 -48.5q-8 -23 -37 -26.5t-58.5 6.5t-47.5 24q-23 18 -36 42q-91 -18 -160 -79q-85 -72 -104 -186q-13 -112 32 -175q35 -47 93 -73t117 -26q118 0 216 58.5t148 162.5q4 9 12 5q9 -4 5 -12 q-58 -111 -157.5 -171.5t-223.5 -60.5zM552 502q7 22 -15 34.5t-47 13.5q-37 3 -81 -4q12 -19 28 -31q30 -23 66.5 -27.5t48.5 14.5zM594 678q70 1 116 24.5t84 71.5q22 29 21.5 72t-27.5 68q-43 44 -155 29q-53 -8 -105 -42t-87 -79q-24 -34 -40 -74q76 -70 193 -70z" />
<glyph unicode="F" d="M1357 913q22 -16 18.5 -53t-39.5 -69q-53 -43 -152 -48q-52 0 -81.5 1.5t-87.5 10t-128 26.5q-12 -10 -34 -30q-101 -95 -245 -284q11 -2 32 -2q57 0 110 28q8 6 12 -3t-4 -12q-57 -31 -118 -31q-23 0 -44 3q-4 -5 -15.5 -20.5t-18.5 -23.5q-4 -6 -12.5 -17.5t-9.5 -13.5 q-149 -200 -183 -241q-87 -105 -152 -144q-64 -36 -127 -28q-52 6 -80 36q-27 30 -27 77q0 18 5 43q3 9 11 7q9 -2 7 -11q-5 -23 -5 -39q0 -42 24.5 -66.5t66.5 -28.5q58 -8 116 26q47 28 96 81q30 31 74 88l94 125l65 86l8 11q-51 -17 -106 -17q-27 0 -53 4t-51.5 21 t-21.5 45q8 60 99 60q31 0 74 -9q15 -3 42.5 -11.5t36.5 -10.5q19 -6 35 -9q97 127 169 208q60 65 108 108q-109 29 -226 72q-71 26 -141 26q-65 0 -133 -26.5t-113 -71.5q-8 -6 -13 0q-7 6 -1 12q49 49 118 76.5t142 27.5q72 0 147 -27q128 -47 237 -75q70 61 141 97 q102 51 203 51q97 0 131 -35zM551 421q9 11 25 33l-14 3l-14 4q-74 21 -78 22q-40 9 -70 9q-76 0 -81 -46q-2 -19 20.5 -31t45.5 -15t42 -2q28 0 69 8t55 15zM1313 797q26 14 39 44.5t-8 57.5q-28 29 -118 31q-96 0 -194 -49q-66 -34 -128 -86q66 -16 120.5 -24t82 -9 t76.5 -1q85 4 130 36z" />
<glyph unicode="G" horiz-adv-x="1008" d="M394 -460q-51 2 -84 26.5t-34 72.5q-2 59 35.5 110t93.5 84.5t130 57.5q91 30 190 43q7 1 20 2.5t19 2.5q38 85 81 212q-66 -94 -154 -145q-98 -56 -196 -56h-1q-83 0 -138 38q-73 49 -88 156q-15 109 54 247q62 126 180 250q90 96 189 170q-18 23 -32.5 56.5t-14.5 59.5 q-2 9 9 11q9 2 11 -9q0 -50 43 -107l38 27q134 89 246 118q153 40 194 -31q32 -54 1 -115t-85 -94q-97 -60 -212.5 -38.5t-185.5 105.5q-100 -74 -187 -167q-118 -125 -176 -245q-66 -131 -52 -236q13 -96 79 -142q50 -34 126 -34h2q94 0 187 54q134 79 202 241l18 -7 l-29 -85q-46 -143 -86 -232q105 9 211 5q10 0 10 -10t-11 -10q-113 4 -220 -6q-26 -55 -35 -71q-70 -133 -129 -199q-101 -110 -219 -110zM754 -83q-118 -13 -212 -45q-43 -14 -78.5 -30.5t-48 -24.5t-14.5 -10q-2 0 -20.5 -14t-43 -43.5t-34.5 -59.5q-16 -60 7 -95t84 -35 q41 0 79.5 13.5t71.5 41.5t57.5 53.5t50.5 67t38.5 63t32.5 59.5q15 27 30 59zM719 806q68 -80 176 -98.5t195 35.5q48 30 76 83.5t2 98.5q-34 58 -173 22q-124 -30 -276 -141z" />
<glyph unicode="H" horiz-adv-x="924" d="M15 -194q-32 40 -32 100q0 98 84 210q115 152 355 268l72 220q84 252 165 368q1 2 4 6t4 6l-25 10q-55 26 -106 84q-7 7 1 13q6 6 12 -1q49 -56 100 -79q19 -9 30 -12q57 74 122 98q43 16 65 2q17 -11 19 -29.5t-8 -33.5q-11 -17 -43 -37q-43 -26 -99 -26q-23 0 -49 6 q-2 -3 -6 -8.5t-6 -8.5q-54 -78 -112 -223q-41 -105 -118 -345q77 35 180 73q106 38 198 83q81 145 178 276q1 1 5.5 7t13.5 17l18 21q43 49 84 76q36 23 67 23q33 0 54.5 -22t21.5 -53q-3 -54 -52 -103l-17 -17q-10 -9 -47 -39.5t-76.5 -59t-103.5 -67.5t-133 -73 q-66 -115 -106 -217q-52 -136 -52 -229q0 -58 21 -103q26 -50 61 -78q36 -26 95 -42q8 -3 6 -11q-2 -9 -11 -7q-66 19 -100 46q-40 29 -67 84q-23 47 -23 111q0 97 54 235q35 91 93 198q-74 -36 -176 -73q-92 -33 -193 -79l-83 -261q-13 -37 -34 -88q-43 -103 -85 -165 q-40 -58 -77 -82q-39 -22 -78 -12t-65 43zM82 105q-81 -106 -81 -199q0 -55 28 -89q24 -28 55.5 -36t61.5 8q17 9 39 33q35 39 71 106q46 87 81 188l78 244q-226 -111 -333 -255zM1081 891q-59 -58 -97 -119l-76 -114q-45 -72 -57 -94q99 51 185.5 111t118.5 88t43 41 q48 50 48 91q-1 23 -18 40t-40 17q-46 -2 -107 -61zM735 991q24 0 46 5.5t33 11.5l10 6q27 16 38 32q7 13 4.5 23t-9.5 14q-19 10 -49 -2q-59 -26 -110 -87q20 -3 37 -3z" />
<glyph unicode="I" d="M90 -119q-83 0 -118 50q-30 44 -15 117q2 10 12 8t8 -12q-15 -63 12 -101q29 -42 100 -42q27 0 55 10t52 23.5t55.5 43t54 54t60.5 72.5l62 80l70 95l121 166l89 123q31 41 80 100t91 100q27 25 41 36q-144 52 -234 22q-10 -4 -12 6q-3 9 6 13q33 11 65.5 13.5t68.5 -4.5 t60 -13.5t64 -20.5q47 35 84 55q81 42 165 48q50 0 71 -6q23 -6 35 -19q22 -26 18 -57.5t-27 -54.5q-35 -35 -95 -35h-4q-91 1 -243 46q-51 -41 -107.5 -105.5t-94.5 -114.5l-104 -143l-122 -167l-84 -113l-72 -91q-44 -55 -71 -80t-63 -53t-68 -38.5t-66 -10.5zM962 812 q134 -40 223 -41q54 -1 84 29q18 17 21 41.5t-12 42.5q-24 26 -89 19q-119 -8 -227 -91z" />
<glyph unicode="J" horiz-adv-x="609" d="M-450 -402q-86 2 -97 67q-6 44 13 87.5t55 77.5t74 59.5t77 41.5q53 22 116.5 38t106.5 22.5t119.5 16t106.5 13.5q160 179 319 396q97 130 178.5 225.5t166.5 167.5q26 22 40 32q-37 10 -47 13q-123 34 -232 25q-24 -2 -46 -6t-32 -7l-10 -3q-10 -2 -13 7q-4 10 6 12 q1 1 11 4t33 7t49 6q117 9 239 -26l62 -17q181 130 365 121q8 0 23 -2t40 -11.5t38 -25.5q20 -26 11 -70q-13 -35 -37 -53q-45 -32 -139 -36q-50 -2 -110.5 9t-186.5 46q-98 -72 -191 -177.5t-202 -252.5q-152 -207 -306 -381q89 11 148 34.5t98 81.5q30 44 39 85q4 10 12 8 q10 -3 8 -12l-1 -5l-5 -15q-3 -9 -7.5 -19.5t-12 -24.5t-16.5 -27q-22 -35 -51.5 -59t-66.5 -36.5t-68.5 -18.5t-77.5 -12q-11 -1 -17 -2l-72 -76q-24 -27 -74 -77t-83.5 -78.5t-83.5 -66t-90 -57.5t-87.5 -34.5t-91.5 -14.5zM101 -2q-19 -2 -84.5 -10t-93 -12.5 t-77.5 -13.5t-89 -21t-77 -29q-83 -35 -151.5 -103.5t-55.5 -140.5q14 -70 141 -44q5 1 7 1q156 33 419 308zM870 850q119 -32 174.5 -42t100.5 -8q76 4 111 21t47 52q8 34 -7 53q-25 32 -87 32q-173 8 -339 -108z" />
<glyph unicode="K" horiz-adv-x="898" d="M1212 847q21 -8 33.5 -27.5t12.5 -43.5q0 -19 -8 -39q-3 -7 -11 -5q-7 2 -5 12q6 18 6 32q0 38 -35 55q-32 11 -69 -6q-26 -14 -47 -31q-19 -15 -55 -47l-44 -38q-133 -115 -263 -184q-100 -54 -195 -74q46 -62 58 -128q6 -33 6 -63q0 -47 -11 -106q-10 -64 -10 -87 q0 -46 26 -70q24 -24 56.5 -20.5t61 19.5t51.5 39q7 5 13 -1t0 -12q-25 -25 -57 -42t-70.5 -20.5t-66.5 24.5q-32 29 -32 83q0 26 10 90q11 59 11 103q0 34 -5 60q-12 63 -61 127q-36 -7 -78 -7q-62 0 -119 19q-3 -5 -41 -56q-154 -207 -182 -241q-87 -105 -153 -143 q-49 -30 -103 -30q-15 0 -23 1q-51 6 -80 36q-27 30 -27 77q0 17 5 44q2 8 11 6t7 -10q-5 -17 -5 -40q0 -39 22 -64q24 -25 69 -31q7 -1 21 -1q48 0 94 27q46 28 96 81q62 66 213 271q14 18 21 28l38 52l-13 8q-10 7 -15 11t-12 11t-10.5 16t-3.5 20q0 26 20.5 42.5 t48.5 16.5q33 0 66 -15q55 74 103 132q75 91 142 151q-120 24 -273 58q-73 16 -120 16q-53 0 -81 -17q-29 -18 -28 -47q2 -10 -8 -10q-8 -2 -10 8q-2 18 9 37q15 26 50 37q28 10 68 10q50 0 124 -16q198 -44 273 -59q4 -1 14 -3q27 23 66 48q82 49 163 52q53 0 72 -31 q9 -14 9.5 -34.5t-8.5 -36.5q-29 -51 -125 -45q-45 3 -172 28q-31 -26 -78 -74q-70 -74 -173 -212q23 -11 36 -21q51 -35 87 -80q91 16 200 74q121 64 260 181l35 31l39 35q47 40 75 53q47 21 84 6zM717 905q-21 -13 -52 -36q118 -23 156 -25q71 -4 100 25q11 12 13.5 30.5 t-6.5 33.5q-13 20 -57 22q-74 -1 -154 -50zM262 532q0 -30 47 -51l59 80q-32 13 -55 13q-19 0 -35 -11t-16 -31zM434 458q28 0 65 5q-36 41 -77 69q-24 16 -37 22l-59 -80q51 -16 108 -16z" />
<glyph unicode="L" d="M540 -188q-90 51 -165 129l-56 62q-12 -9 -46 -27q-62 -30 -114 -30q-40 0 -76.5 12.5t-57.5 42.5t-7 70q11 29 38 43.5t60 14.5q90 -3 165 -63l41 -40q28 21 59 47q111 98 260 299l102 143q71 101 109 150q85 112 157 172q-44 16 -58 20q-45 14 -89 14q-16 0 -31.5 -1.5 t-28.5 -4.5t-24.5 -6.5t-20.5 -6.5t-16 -6l-10 -5l-4 -2q-8 -5 -12 3q-6 8 3 12q2 2 18 9.5t52 16.5t74 9q49 0 95 -15q39 -12 69 -24q14 11 42 29q81 50 173 54q52 2 76 -32q19 -31 6 -66q-12 -28 -42 -42t-77 -12q-50 4 -111 25l-64 24q-45 -35 -95 -92q-41 -46 -86 -107 l-102 -142l-91 -128q-115 -154 -199 -241q-63 -65 -122 -107q3 -3 8.5 -9.5t8.5 -9.5q32 -36 52 -56t60.5 -52.5t85.5 -57.5q95 -53 178 -53q83 2 114 50q29 53 -9 106q-17 21 -25 25q-6 6 -1 13t12 2l2 -1q2 -2 4.5 -4t5.5 -6l7 -8q4 -4 8 -9q46 -65 11 -127 q-38 -59 -129 -59q-89 0 -187 55zM30 39q5 -40 44 -57.5t85 -17.5q48 0 106 28q21 10 42 24q-25 25 -38 36q-74 59 -153 59q-37 -1 -61.5 -19.5t-24.5 -52.5zM1099 823q56 -20 106 -24q64 -2 90 26q29 30 7 66q-19 24 -60 24q-83 -3 -165 -51l-31 -21q5 -2 53 -20z" />
<glyph unicode="M" horiz-adv-x="1191" d="M1018 -150q-22 21 -36 52q-18 46 -18 109q9 201 131 476q88 198 182 334q7 12 12.5 24t7.5 25t-5.5 21t-24.5 8q-32 0 -71 -16q-35 -13 -89 -45q-97 -60 -211 -166q-180 -165 -326 -375q-12 -100 -8 -202q0 -39 -7 -67q-9 -43 -34 -64q-20 -17 -48 -17q-23 0 -40 15 q-31 31 -21 86q6 45 57 124q21 39 83 132q17 132 56.5 250.5t103.5 265.5q16 37 16 59q-1 26 -26 26q-57 0 -129 -50q-66 -43 -146 -130q-96 -103 -304 -382q-113 -152 -202 -244q-100 -101 -186 -141q-61 -29 -123 -29h-12q-80 4 -119 52q-35 41 -35 103q0 60 30 108 q6 8 13 2q7 -4 3 -12q-28 -41 -28 -98q0 -56 31 -91q35 -42 106 -46h11q58 0 116 27q60 29 118 79q108 92 262 301q143 193 229 296q130 156 226 220q77 53 139 53q44 -1 44 -44q0 -25 -18 -67q-59 -137 -96.5 -246.5t-56.5 -229.5q100 138 217.5 260t227.5 204 q97 72 169 100q45 17 78 17q32 -2 43 -18q20 -31 -18 -88q-96 -140 -180 -332q-121 -269 -130 -469v-1q-2 -42 8 -75q10 -41 40 -71q48 -44 119 -44q63 0 112 43q30 26 41 47q4 8 12 4q10 -5 4 -13l-2 -3l-6 -8q-3 -5 -7.5 -10.5t-11.5 -13t-15 -14.5q-56 -50 -127 -50 q-79 0 -131 49zM473 -35q21 0 37 13q14 12 21 33q13 32 13 84q-2 75 4 170q-40 -60 -64 -102q-47 -74 -55 -117q-6 -49 15 -70q12 -11 29 -11z" />
<glyph unicode="N" horiz-adv-x="921" d="M-324 -16q-34 41 -34 105t30 110q4 8 12 2q7 -4 3 -12q-29 -42 -27 -100q0 -41 16 -73q37 -62 120 -62q113 0 238 104q118 97 269 302q149 200 230 297q128 152 215 215q69 51 120 51q42 0 42 -34q0 -15 -12 -39q-5 -11 -41 -78l-69 -133q-34 -66 -64 -132 q-123 -271 -130 -442q-2 -51 15 -68q17 -14 44 8q13 13 26 32q21 29 65 111q115 213 205 341q56 79 115.5 146t100 105t82.5 69.5t55 39.5l25 14q7 5 39 23q-2 2 -5 5.5t-4 5.5q-26 36 -38 73q-1 7 6 10q9 3 12 -5q15 -38 35 -68q6 -8 10 -12q9 4 23 11q94 45 163 46 q37 0 62 -11q29 -13 40 -42t-2 -56q-25 -50 -99 -50q-121 3 -191 79l-71 -42q-37 -23 -80 -60q-135 -111 -263 -292q-53 -74 -100.5 -154t-89 -157.5t-57.5 -103.5q-32 -52 -52 -71q-16 -15 -34 -18t-35 11q-20 22 -20 80q6 171 132 449q29 66 64 134l68 132l42 78 q25 47 -14 47q-44 0 -110 -47q-59 -43 -137 -128q-109 -118 -303 -380q-154 -209 -272 -306q-131 -108 -250 -108q-80 2 -120 48zM1569 811q57 0 77 31q13 20 7.5 45t-31.5 37q-26 10 -54 10q-62 -1 -147 -40q-9 -4 -27 -13q73 -70 175 -70z" />
<glyph unicode="O" horiz-adv-x="951" d="M264 -35q-150 11 -212 105t-32 234q53 194 212 356q135 135 294 205q95 41 185 41q25 0 38 -3q2 0 6 -4q41 17 81 17q54 -1 98.5 -24.5t68.5 -65.5q18 -28 28 -65q2 -8 2 -11q82 -10 116 -50q28 -35 28 -79q0 -52 -29 -89q-44 -59 -152 -69q-67 -147 -202 -273 q-119 -108 -256.5 -169.5t-273.5 -55.5zM265 -17q270 -8 516 220q129 119 195 259h-9q-68 0 -143 25q-71 25 -114 65q-20 19 -36 41q-46 -48 -76 -106q-4 -8 -12 -3q-7 4 -4 12q33 61 81 113q-33 55 -33 117q4 109 100 162h-19q-88 3 -177 -39q-162 -75 -289 -202 q-156 -158 -207 -347q-29 -137 31 -223.5t196 -93.5zM722 565q39 -36 108 -61q69 -24 137 -24q11 0 17 1q42 97 42 177q0 38 -7 75q-113 3 -211 -44q-69 -33 -122 -83q16 -22 36 -41zM1044 658v-1q-4 -83 -40 -175q36 2 73 18.5t56 42.5q26 33 26 78q-2 42 -23 68 q-34 34 -99 43q7 -37 7 -74zM648 726q0 -56 29 -104q52 49 123 84q103 45 215 45q-10 36 -27 66q-23 39 -64 60t-88 21q-76 -2 -132 -50.5t-56 -121.5z" />
<glyph unicode="P" horiz-adv-x="1203" d="M1290 818q5 -7 -4 -12q-9 -3 -12 5q-20 45 -68 65.5t-105 18.5q-50 -2 -83 -9q3 -1 9 -3.5t9 -3.5q95 -42 145 -109q69 -86 69 -189q0 -94 -54 -174t-143 -128q-85 -47 -178 -40t-177 69q-21 16 -39 33.5t-26 27.5l-8 10q-6 7 2 13q6 6 12 -2q9 -12 18 -21q19 -20 52 -46 q74 -56 160 -64.5t175 36.5q82 44 135 120t53 166q0 60 -29 122q-52 106 -174 159q-16 7 -42 16q-33 -9 -62 -24q-77 -38 -148 -109q-98 -98 -251 -341l-53 -89l-57 -101l-44 -80q-84 -145 -141 -195q-52 -47 -116 -56q-49 -6 -88.5 18t-52.5 70q-2 8 7 10q9 4 11 -6 q9 -40 43.5 -59.5t77.5 -14.5q56 7 106 51q44 40 92 115q28 44 92.5 161.5t107.5 184.5q112 179 186 270q109 132 220 187q13 7 41 17q-37 14 -97.5 21.5t-97.5 5.5q-128 0 -234 -67q20 -28 26 -65q6 -36 6 -64q0 -55 -20 -85q-24 -37 -67 -34q-33 2 -50 24t-17 57 q0 40 28 90q25 46 69 80q-18 21 -40 35q-31 19 -68 31q-10 2 -6 11q2 9 11 7q19 -5 43 -17q49 -26 74 -56h1q107 71 244 71q111 0 225 -35q56 16 113 16q146 0 189 -95zM537 779q-4 31 -22 57q-43 -34 -65 -75q-25 -46 -25 -81q0 -58 49 -63q43 -3 60 43q9 23 9 58 q0 26 -6 61z" />
<glyph unicode="Q" horiz-adv-x="1004" d="M751 -298h1q-89 40 -155 124q-56 72 -126 132q-77 -32 -137.5 -43.5t-131.5 -9.5q-133 7 -167 69q-15 31 -2 64q27 66 123 66q90 -1 176 -38l5 -2q5 -2 11 -5l17 -8q10 -5 22 -12t25 -15.5t29 -20t32 -24.5q129 56 246 164q107 100 173.5 218t71.5 228q0 61 -13 106 q-20 72 -71 111q-73 57 -178 57q-115 -3 -228.5 -63t-187.5 -151q-79 -97 -93 -223q-7 -116 73 -192q79 -77 197 -77q31 0 64 6q121 23 188 98q61 68 61 154q0 39 -14 76q-19 51 -61 80q-37 23 -85 23q-59 1 -114 -35q-8 -6 -12 2q-6 7 2 13q57 38 124 38q53 0 95 -26 q45 -31 68 -88q15 -40 15 -83q0 -93 -66 -166q-71 -80 -198 -104q-34 -6 -67 -6q-125 0 -210 82q-87 89 -78 207q14 132 97 233q79 94 198.5 157t231.5 63q105 0 189 -60q54 -42 77 -121q14 -50 14 -112q-6 -114 -73.5 -235t-176.5 -223q-112 -105 -243 -164 q66 -55 123 -129q64 -82 146 -118q59 -25 116 -25q87 2 125 51q14 21 15 48.5t-11 48.5q-22 36 -80 36q-33 -2 -56 -7q-7 -4 -11 6q-2 9 6 11l4 1q3 1 8.5 2t13 2t17 2t18.5 1q71 -2 95 -45q14 -22 13.5 -57.5t-18.5 -59.5q-43 -58 -139 -58q-62 0 -123 26zM51 32 q-11 -26 0 -49q13 -23 41.5 -36.5t51 -17t57.5 -6.5q118 -8 254 48q-68 54 -129 78q-83 37 -170 37q-80 -2 -105 -54z" />
<glyph unicode="R" horiz-adv-x="1154" d="M1220 783q3 -8 -4 -12q-8 -3 -12 4q-37 84 -173 84q-40 0 -82 -8q1 0 3 -1q86 -34 140 -96q72 -82 72 -185q0 -88 -30 -133q-48 -92 -157 -150q-93 -49 -205 -49q-15 0 -43 2q15 -69 -3 -180q0 -1 -3.5 -18.5t-4 -22.5t-2.5 -20t-1.5 -23t2 -20t4.5 -22q8 -22 27 -36.5 t44 -14.5q56 0 119 59q5 5 12 -1t0 -13q-63 -63 -131 -63q-28 0 -53 17t-35 46q-15 40 4 135q16 107 2 179q-67 8 -125.5 27t-85.5 33t-62 37q-19 -31 -136 -240q-80 -141 -141 -195q-64 -57 -138 -57q-42 0 -75.5 24t-42.5 65q-2 9 7 11t11 -7q7 -34 35 -54.5t65 -20.5 q67 0 126 53q44 37 92 115q29 45 89 153.5t94 163.5q-38 29 -38 72q1 47 38.5 62t85.5 1q62 95 118 163q108 133 220 188q23 10 41 17q-96 26 -195 26q-41 0 -91 -10q-83 -15 -143 -57q32 -49 32 -129q0 -45 -20 -82t-63 -37q-33 0 -53 23t-19 59q0 38 28 89q27 47 69 81 q-16 18 -40 34q-29 20 -67 32q-9 2 -7 11q2 8 11 6q9 0 44 -17q44 -21 74 -56v1q47 31 102 48q70 22 143 22q110 0 226 -34q57 16 112 15q148 -2 189 -94zM473 682q0 73 -29 118q-39 -30 -64 -75q-26 -47 -26 -80q0 -29 14.5 -46t39.5 -18q33 -1 47.5 28t17.5 73zM402 422 q0 -36 30 -58q24 42 67 104q-28 12 -62.5 1.5t-34.5 -47.5zM447 353q116 -76 257 -94q-19 55 -61 104q-40 47 -81 74q-19 15 -46 25zM945 833q-9 4 -27 10q-25 -7 -63 -24q-76 -39 -148 -109q-81 -81 -181 -232q23 -10 47 -26q44 -29 84 -77q49 -58 67 -118q32 -2 48 -2 q106 0 196 47q107 58 150 142q29 55 28 122.5t-32 125.5q-50 93 -169 141z" />
<glyph unicode="S" horiz-adv-x="942" d="M-2 -19l-15 13q-60 -34 -138 -34q-35 0 -67 7q-9 2 -7 11t10 7q32 -7 64 -7q64 0 124 29q-60 64 -68.5 148.5t31.5 156.5q47 84 125 84q52 -3 81 -36t29 -83q-3 -97 -66 -180q-45 -59 -102 -93q2 -2 5.5 -5t5.5 -4q91 -70 216 -70q82 0 151 23t112 56q94 69 136 175 q31 83 40 211q2 28 5.5 123.5t9.5 147.5q-94 0 -156 47q-8 6 -2 13q7 7 13 1q56 -43 147 -43q12 93 40 164q79 187 215 187q74 -2 97 -53q32 -74 -26 -159q-53 -78 -145 -119q-77 -35 -165 -38q-6 -53 -10 -159q-6 -169 -19 -236q-10 -51 -27 -93q-42 -111 -142 -185 q-46 -34 -117.5 -57.5t-156.5 -23.5q-132 0 -228 74zM-52 305q-37 -74 -28.5 -153t65.5 -136q43 26 67 52q96 99 96 210q-1 43 -25 71.5t-66 28.5q-71 -7 -109 -73zM738 836q-26 -65 -38 -157q81 3 155 37q90 45 136 111q23 33 30.5 70t-4.5 68q-17 47 -80 47 q-131 -6 -199 -176z" />
<glyph unicode="T" horiz-adv-x="805" d="M-77 -62q-27 30 -27 77q0 18 5 43q2 9 11 7t7 -10q-5 -25 -5 -40q0 -40 22 -65q34 -31 90 -31q91 3 190 108q62 66 213 271q14 18 21 28q142 193 231 292q48 54 109 108q-109 29 -226 72q-71 26 -142 26q-93 0 -177 -46q-12 -7 -23 -14.5t-18 -13.5l-14 -11 q-6 -5 -9.5 -8.5t-4.5 -3.5q-6 -6 -13 -1q-6 6 0 13q24 26 69 52q86 51 190 51q75 0 148 -27q127 -46 237 -74q179 148 344 148q32 -1 50 -2.5t41 -10.5t37 -25q22 -30 15 -63.5t-34 -55.5q-59 -49 -182 -49q-114 0 -267 38l-33 -30q-53 -49 -115 -122t-95 -116l-104 -138 q-154 -207 -182 -241q-44 -52 -74 -83t-81 -60.5t-101 -29.5q-71 0 -103 37zM1078 701q114 -1 168 43q25 21 30.5 46.5t-11.5 49.5q-27 29 -114 31q-157 -2 -323 -136q141 -34 250 -34z" />
<glyph unicode="U" horiz-adv-x="902" d="M1221 818q2 -9 -6 -11q-6 -1 -20 -6.5t-17 -6.5q-48 -20 -98 -50q-164 -99 -290 -266q-41 -54 -97 -155q-72 -131 -106 -232q-68 -201 18 -238q50 -21 95 6.5t69.5 81t24.5 108.5q0 8 8 10q8 0 10 -8q0 -42 -15 -86.5t-42.5 -80.5t-67.5 -50.5t-90 3.5q-96 37 -34 241 q-61 -83 -134 -127.5t-177 -44.5q-83 0 -144 50q-71 57 -71 162q0 90 56 201q86 172 250 336q61 59 137 123q-80 10 -163 42l-79 33q-69 28 -106 38q-65 17 -127 17q-100 0 -136 -45q-18 -22 -20 -52t16 -55q31 -37 95 -42q9 -1 9 -10q0 -10 -10 -8q-18 1 -40 7 q-46 15 -67 41q-23 27 -22 64.5t25 66.5q41 51 150 51q67 0 132 -18q38 -10 104 -37.5t83 -33.5q85 -34 175 -43l35 30q28 25 41.5 35t39 22.5t47.5 14.5q31 2 50.5 -11t19.5 -42t-25 -45t-59 -21q-65 -8 -143 -2q-81 -66 -149 -133q-160 -158 -247 -331q-54 -107 -54 -193 q0 -94 64 -148q57 -46 133 -46q118 -1 207 68.5t142 184.5q43 102 115 221q34 56 60 90q58 77 124.5 140t118 98t97.5 58.5t68.5 31.5t25.5 8q9 4 11 -6zM664 878q-18 -1 -39 -11t-33 -19t-36 -30l-31 -26q59 -6 120 3q69 9 69 48q0 38 -50 35z" />
<glyph unicode="V" horiz-adv-x="1149" d="M-87 -144q-33 0 -56 14.5t-24 42.5q0 28 26 51q44 34 115 34q37 0 88 -8q0 1 1 2q32 87 98.5 213t137.5 225q132 179 225 268q30 28 63 55q-77 10 -161 42q-23 9 -60 25t-67 27.5t-58 18.5q-65 17 -127 17q-46 0 -80 -10q-66 -25 -74 -74q-5 -41 14 -67q12 -16 36 -28 q34 -15 59 -15q9 -1 9 -10q0 -8 -10 -8q-18 1 -40 7q-46 15 -67 41q-27 36 -19 83q13 55 62 78q45 21 110 21q67 0 132 -18q29 -8 59.5 -19.5t67.5 -27.5l60 -24q91 -35 174 -43l74 59q50 40 90 43q31 2 50 -10t19 -36q3 -39 -32 -58q-40 -19 -135 -19q-31 0 -61 3 q-55 -46 -76 -66q-96 -93 -222 -266q-70 -97 -136.5 -222t-97.5 -210q175 -35 312 -35q216 0 394 147q292 243 368 826q0 8 10 8q8 -2 8 -10q-76 -589 -375 -838q-182 -151 -405 -151q-158 4 -320 36q-22 -47 -55 -77q-38 -35 -104 -37zM-129 -50q-20 -17 -20 -37 q1 -20 20 -30t42 -10q57 3 92 33q23 21 49 67q-51 7 -80 7q-66 0 -103 -30zM673 766q98 0 126 17q26 14 23 42q-4 31 -49 28q-38 -4 -80 -39l-60 -47q13 -1 40 -1z" />
<glyph unicode="W" horiz-adv-x="1560" d="M593 -134q-1 30 23 45t58 20q48 7 111 -3l16 24q42 64 71 139q15 36 28 106q9 47 14 83q-76 -121 -186 -199q-165 -117 -362 -117q-75 2 -208 13q-22 -55 -61 -87q-37 -30 -83.5 -37t-78.5 16q-24 20 -20.5 46.5t25.5 45.5q26 21 63.5 30.5t72 8t70.5 -3.5 q33 88 98.5 211t135.5 219q127 176 225 269q30 28 63 55q-79 10 -161 42q-16 6 -82.5 33.5t-102.5 37.5q-65 17 -127 17q-100 -2 -136 -46q-18 -24 -19 -53t15 -54q13 -19 43.5 -30t51.5 -11q9 0 8 -10q-2 -8 -9 -8q-14 0 -40 7q-49 16 -68 40q-22 30 -20 66.5t24 65.5 q45 51 150 51q67 0 131 -18q38 -10 106 -38t81 -33q84 -34 174 -43q9 7 37 30.5t42.5 34t39 23t46.5 14.5q47 5 63 -26q21 -49 -27 -78q-37 -19 -134 -19q-32 0 -61 3q-55 -46 -76 -66q-96 -91 -223 -266q-68 -95 -133 -215.5t-97 -205.5q150 -13 202 -13q191 0 351 113 q121 86 203 229q0 6 1 9q6 51 27 265q10 122 55 185q18 26 43 25q27 -2 27 -44q0 -6 -0.5 -11.5t-1 -9t-0.5 -4.5q-38 -251 -134 -420q-6 -55 -19 -126q-12 -65 -29 -109q-32 -82 -84 -158q24 -2 42 -2q72 0 137 16q77 18 163 76t159 154q186 245 197 638q0 9 9 9t9 -10 q-9 -395 -201 -648q-75 -98 -163 -157.5t-168 -79.5q-69 -16 -142 -16q-33 0 -53 3q-45 -61 -85 -79q-24 -12 -49.5 -15t-45.5 9.5t-21 41.5zM702 -154q39 19 72 66q-51 8 -98 1q-24 -3 -44.5 -14.5t-20.5 -32.5q1 -18 11.5 -26t25.5 -7.5t28.5 4t25.5 9.5zM-48 -53 q-15 -13 -18 -31.5t10 -31.5q30 -20 70 -13t71 32q30 21 54 75q-135 16 -187 -31zM1025 782q-10 -11 -22 -37q-27 -54 -37 -149q-16 -163 -23 -228q80 161 111 381q4 41 -9 43q-11 1 -20 -10zM754 762q94 0 125 18q24 14 24 35q-3 37 -49 35q-17 -3 -32.5 -9.5t-31 -17 t-25.5 -18l-28 -21.5l-23 -20q26 -2 40 -2z" />
<glyph unicode="X" horiz-adv-x="973" d="M1180 845q71 0 116.5 -32.5t45.5 -101.5l-2 -26q-2 -9 -11 -7q-8 2 -7 10q2 13 2 23q0 57 -40 86.5t-104 29.5q-68 0 -135 -30q-127 -55 -244 -172q-60 -62 -105 -119q-139 -178 -184 -356q-11 -37 -4 -92t36 -88q50 -55 126 -55q49 0 94 24t66 67q13 26 15.5 59t-11 64 t-44.5 41q-28 11 -63 2.5t-57 -35.5q-6 -8 -13 -2q-6 6 -1 13q23 30 62 41.5t78 -2.5q34 -12 51 -45.5t16 -71.5t-16 -71q-23 -47 -72.5 -74.5t-104.5 -27.5q-84 0 -139 61q-57 64 -37 196q12 49 39 115q-38 -52 -85 -106l-6 -7l-18 -18l-27 -25q-16 -14 -38.5 -32 t-45.5 -34q-169 -116 -328 -116q-157 0 -230 78q-47 52 -40 126.5t56 124.5q90 93 261 86q9 0 8 -10q-2 -7 -9 -7q-169 0 -246 -81q-25 -26 -39.5 -65.5t-11 -84t31.5 -74.5q72 -75 219 -75q151 0 310 108q89 61 139 118q101 118 178 257.5t82 260.5q3 59 -29 111 q-40 61 -128 75q-37 6 -71 6q-106 0 -174 -55q-61 -50 -77 -122q-19 -79 11 -131q25 -44 77.5 -62t102.5 1q69 22 85 104q2 9 10 7q9 -2 7 -10q-12 -73 -72 -108q-54 -30 -122 -14t-102 71q-35 58 -15 146q18 79 84 132q72 59 185 59q35 0 74 -6q97 -16 140 -83 q30 -47 32 -121q-2 -84 -53 -206q59 80 129 150q117 117 250 177q70 31 142 31z" />
<glyph unicode="Y" horiz-adv-x="921" d="M1371 863q2 -8 -8 -11l-16 -4q-12 -3 -19 -5q-45 -14 -96 -43q-159 -90 -292 -276l-108 -155q-22 -36 -45 -68q-120 -178 -214 -331q-52 -79 -127 -126t-167 -47q-97 0 -171 44q-46 29 -75 76q-20 -20 -41 -35q-32 -24 -64 -30q-10 -2 -10 7q-2 9 7 11q41 8 85 50l14 14 q-23 48 -23 95q0 51 19 84q21 33 50 33q24 0 37.5 -20t12.5 -49q0 -66 -74 -146q24 -45 71 -74q71 -42 162 -42q84 0 157 44t122 120l133 211q-12 -12 -18 -17q-94 -80 -197 -80q-57 0 -104 20q-56 26 -82 73q-19 36 -19 84q0 84 61 199q63 120 136 202t160 153 q-74 10 -161 41l-60 26q-38 16 -67.5 27t-57.5 19q-126 33 -207 6q-33 -10 -54.5 -35t-21.5 -59q0 -69 111 -90q9 0 9 -9q-2 -9 -10 -9l-5 1q-5 1 -15.5 2.5t-19.5 4.5q-38 11 -63 37t-25 63q0 68 64 102q87 42 242 3q29 -8 59.5 -19.5t67.5 -27.5l59 -25q89 -33 175 -42 q3 2 20 17t23 19.5t21.5 17t25.5 18.5l23 13q14 7 26.5 11t24.5 6q33 4 52.5 -15t15.5 -46t-31 -43q-32 -20 -95 -21.5t-101 4.5q-91 -73 -165 -155t-140 -206q-59 -108 -59 -190q0 -44 17 -76q16 -29 44 -48q50 -35 126 -35q96 0 185 76q55 48 111 124l153 223 q60 85 127.5 151t118 99.5t97.5 54.5t67.5 26t25.5 5q10 2 10 -7zM814 924q-18 -2 -38.5 -12.5t-33 -19.5t-35.5 -28l-33 -26q120 -11 165 15q31 17 21 46t-46 25zM19 28q0 -42 19 -80q64 73 64 129q0 18 -7.5 34.5t-24.5 16.5q-19 0 -34 -24q-15 -22 -17 -76z" />
<glyph unicode="Z" horiz-adv-x="1164" d="M1220 891q24 -9 36 -35.5t0 -53.5q-9 -20 -28 -34q-53 -40 -175 -40q-86 0 -173 15q-45 -47 -87 -99l-79 -106l-61 -84l208 -20q9 0 9 -10q-2 -8 -9 -8h-1l-220 21q-26 -34 -39 -49q-118 -137 -208 -228q-50 -51 -86 -84q51 -14 157 -53t164 -55q166 -45 270 -45 q132 0 168 68q21 39 10 106q-2 8 7 10q8 2 10 -7q16 -67 -11 -118q-40 -77 -184 -77q-112 0 -274 46q-54 15 -164 55t-168 56q-76 -68 -132 -101q-60 -34 -134 -34q-73 0 -98 43q-14 22 -13 50.5t15 52.5q48 74 224 41q67 -13 133 -32q29 26 58 55q115 114 242 263 q9 10 32 39l-169 15q-10 2 -8 10q0 10 10 8l180 -16l66 90q51 71 81 109q43 55 79 91q-212 31 -381 95q-11 4 -35 14l-39 16q-15 5 -37 10t-41 5q-63 0 -92 -55q-16 -29 -16 -68t16 -83q7 -21 17 -40q6 -8 -3 -12q-8 -6 -12 3q-8 15 -18 40q-18 48 -18 92q0 41 18 76 q36 65 108 65q19 0 42 -5t36.5 -9.5t43 -16.5t37.5 -15q173 -65 390 -96q75 72 153 104q86 34 142 34q28 0 51 -9zM151 -23q47 26 120 91q-68 18 -121 28q-177 35 -212 -47q-12 -38 5 -70q26 -34 83 -34q62 0 125 32zM1240 809q8 20 0.5 38t-27.5 27q-18 8 -44 8 q-54 0 -135 -33q-70 -28 -137 -91q64 -12 156 -12q91 0 141 23q34 16 46 40z" />
<glyph unicode="[" horiz-adv-x="528" d="M196 -230h-164q-6 0 -8 5q-3 5 0 9l737 1136q4 4 8 4h142q9 0 9 -9t-9 -9h-138l-725 -1118h148q9 0 9 -9t-9 -9z" />
<glyph unicode="\" horiz-adv-x="484" d="M327 -227q-7 0 -9 7l-234 1235q-2 9 7 11t11 -7l234 -1235q2 -9 -7 -11h-2z" />
<glyph unicode="]" d="M15 -201h-142q-9 0 -9 9t9 9h138l725 1118h-148q-9 0 -9 9t9 9h164q6 0 8 -5q3 -4 0 -9l-737 -1136q-4 -4 -8 -4z" />
<glyph unicode="^" horiz-adv-x="808" d="M740 557h-2q-41 6 -61 41q-41 72 12 231q-198 -145 -415 -219q-53 -19 -103 -32t-72 -17t-25 -4q-8 -2 -10 8q-2 8 8 10q3 0 24.5 4t71 17t101.5 31q236 82 433 234q5 5 11 1t3 -11q-1 -3 -7 -19t-14 -46.5t-13 -61.5t-3.5 -63.5t13.5 -53.5q17 -28 49 -32q8 -2 8 -11 q-2 -7 -9 -7z" />
<glyph unicode="_" horiz-adv-x="651" d="M627 0h-605q-9 0 -9 9t9 9h605q9 0 9 -9t-9 -9z" />
<glyph unicode="`" horiz-adv-x="430" d="M338 829q-108 0 -193.5 43.5t-112.5 133.5q-9 29 -9 51q0 9 9 9t9 -9q0 -20 8 -47q18 -53 56.5 -89t86 -50.5t102 -21t103.5 0.5q8 0 10 -8q0 -10 -9 -10q-30 -3 -60 -3z" />
<glyph unicode="a" horiz-adv-x="887" d="M900 225q5 -7 0 -13q-242 -217 -398 -217q-39 0 -71.5 14t-35.5 47t36 79q-71 -58 -125 -91q-99 -62 -177 -62q-64 0 -108 35.5t-53 96.5q-12 107 141 237q100 85 198 127q96 43 183 43q42 0 76 -10q9 -2 21.5 -7t34 -24.5t27.5 -45.5q16 -73 -86 -182q6 4 8 6 q40 29 84.5 58t69.5 44t26 15q8 6 12 -3q6 -8 -3 -12l-10 -6l-28 -17l-40 -25l-48 -32q-28 -18 -52 -36q-80 -60 -120 -101q-52 -55 -49 -86q1 -23 29.5 -33.5t58.5 -10.5q82 0 185 61t201 152q8 6 13 -1zM129 0q40 0 83.5 15.5t93 49.5t80 57t82.5 67q184 152 164 241 q-5 21 -23 37t-31.5 21.5t-16.5 5.5q-33 9 -71 9q-84 0 -180.5 -43.5t-188.5 -122.5q-78 -65 -113 -128q-27 -49 -22 -93q6 -53 46 -84.5t97 -31.5z" />
<glyph unicode="b" horiz-adv-x="682" d="M69 9q-58 36 -70 108q-18 82 51 218q54 108 167 258q89 116 182 219t134 140q57 51 94 63q28 9 44 -7q30 -27 2 -89q-5 -11 -12 -23t-12.5 -20t-5.5 -9q-121 -175 -333 -400l-190 -192q-44 -44 -103 -78q-9 -40 -2 -73q0 -4 4.5 -18.5t20 -40t38.5 -41.5q55 -37 149 -16 q94 23 173 110q57 63 80 143q-22 14 -39 37q-28 36 -34 71q-9 49 27 69q30 18 56 -5q20 -18 21 -57q3 -56 -10 -107q62 -29 121.5 -16t109.5 57q7 5 13 -1q5 -7 -1 -13q-57 -49 -114 -61q-76 -17 -134 16q-24 -80 -83 -145q-82 -90 -182 -115q-96 -24 -162 18zM645 1002 q-30 0 -100 -64q-39 -34 -133.5 -139t-179.5 -217q-171 -224 -209 -360q51 32 85 66l24 23l71 71l94 97q211 224 331 398l5 7q8 12 15.5 26t14 30.5t6 31.5t-9.5 24q-6 6 -14 6zM459 428q-21 0 -29 -17.5t-5 -38.5q4 -29 30 -63q14 -18 30 -29q11 50 8 96q-1 20 -9.5 36 t-24.5 16z" />
<glyph unicode="c" horiz-adv-x="706" d="M162 -5q-36 0 -67 5q-108 20 -120 95q-7 46 20.5 107.5t83.5 123.5t123 106t130 59q63 14 101 8q34 -6 53 -29q15 -25 13.5 -48t-11.5 -41q-4 -7 -13 -4q-7 4 -3 12q22 40 -1 70q-29 40 -135 14q-60 -14 -125 -56.5t-119 -102.5q-52 -58 -79 -116.5t-20 -99.5 q5 -34 36 -55t65.5 -24.5t65 -5.5t35.5 1h1q54 0 160 27q184 47 341 179q8 6 13 -1q6 -8 -1 -13q-88 -72 -185 -121q-87 -43 -164 -62q-106 -27 -163 -27h-6q-5 0 -13 -0.5t-16 -0.5z" />
<glyph unicode="d" horiz-adv-x="884" d="M1107 862q13 -57 -100 -176q-73 -77 -250 -232l-112 -100q-98 -143 -159 -255q-24 -45 -7 -67q20 -26 105 -3q95 24 205 110q56 43 94 81q7 7 13 1q6 -7 0 -13q-43 -43 -95 -83q-117 -88 -212 -113q-37 -11 -69 -11q-38 0 -55 20q-5 6 -7.5 14t-2.5 16t1.5 16t3.5 15 t4 12t4 9l2 4q39 72 85 143q-37 -40 -72 -73q-92 -86 -170 -135q-95 -58 -177 -58q-64 0 -111 35.5t-54 96.5q-11 108 141 237q200 171 377 171q133 0 155 -74q9 -32 -6 -74q69 101 150 209t151.5 193t90.5 100q29 22 52 13q8 -3 14.5 -10.5t8.5 -12.5t2 -6zM471 190 q180 170 156 255q-18 61 -138 61q-169 0 -365 -167q-145 -121 -135 -221q5 -53 46.5 -85t101.5 -32q131 0 334 189zM994 698q105 111 96 160q-3 15 -16 17.5t-34 -12.5q-18 -15 -87 -97.5t-151 -191.5l-113 -156l56 49q187 165 249 231z" />
<glyph unicode="e" horiz-adv-x="702" d="M41 13q-56 31 -62 98t21 130.5t67 104.5q-30 16 -30 18q-7 4 -3 12q6 8 13 2q12 -8 33 -18q8 9 25 24l22 22q133 129 279 148q88 11 145 -41t13 -127q-33 -56 -103 -84.5t-140 -25.5q-105 5 -205 47l-32 14q-25 -23 -47 -64.5t-35 -88t-2 -90.5t51 -66q31 -18 79.5 -21.5 t97 4.5t87 18t63.5 20q91 37 165.5 81t162.5 120q7 5 13 -1q4 -6 -1 -13q-91 -77 -166 -121t-168 -82q-52 -19 -109 -31.5t-124.5 -12t-109.5 23.5zM96 351l27 -12q98 -40 198 -45q68 -3 134 26.5t94 75.5q23 44 8 78t-57.5 52t-90.5 11q-66 -9 -129.5 -40.5t-141.5 -103.5 l-12 -13l-16 -15q-8 -7 -14 -14z" />
<glyph unicode="f" horiz-adv-x="510" d="M-435 -575q-32 0 -42 23q-16 35 25 130q25 58 43 85q72 140 404 556l146 181q318 389 487 580q37 39 74 31q29 -5 41 -31q11 -23 8 -53.5t-7.5 -48.5t-7.5 -24q-42 -122 -164 -250q-130 -138 -351 -282q-68 -45 -211 -113l-84 -106q32 -32 71 -47q142 -55 367 50 q93 44 172 111q8 6 13 -1t-1 -13q-82 -69 -177 -114q-237 -106 -382 -49q-36 14 -60 36q14 -155 -54 -316q-64 -156 -170 -259q-81 -76 -140 -76zM-90 82q-242 -309 -303 -427q-23 -40 -43 -84q-37 -86 -24 -116q4 -8 15 -11q52 -12 137 70q103 98 168.5 257t49.5 311z M642 968q-15 -16 -80 -92l-181 -214l-226 -273l-119 -148q124 62 175 96q422 276 508 523q2 2 7 20.5t7.5 44.5t-6.5 48q-8 18 -29 21q-28 4 -56 -26z" />
<glyph unicode="g" horiz-adv-x="763" d="M771 215q6 -7 -2 -13q-41 -33 -101 -72q-121 -78 -223 -116q-45 -16 -124 -56q-91 -130 -200 -264q-133 -162 -215 -232q-5 -5 -21 -17t-48 -27.5t-57 -15.5q-42 0 -61 34q-21 41 29 111q42 58 124 128q192 167 437 296l36 52q29 43 68 87q-63 -48 -97 -69 q-101 -62 -178 -62q-62 0 -108 36.5t-52 95.5q-12 107 140 237q202 171 377 171q35 0 65.5 -6t60.5 -27t38 -55q15 -68 -70 -164q96 64 150 91q9 3 12 -5q3 -7 -4 -12q-1 0 -17.5 -8.5t-51 -28.5t-68.5 -44q-153 -106 -250 -247q-12 -16 -17 -24q64 30 95 41q70 26 151 73.5 t122.5 77.5t46.5 35q8 6 13 -1zM138 -3q40 0 83.5 15.5t94 49.5t79.5 57l83 67q183 153 163 241q-9 40 -51.5 57t-94.5 17q-168 0 -365 -166q-79 -67 -112 -129q-28 -51 -22 -93q6 -53 45 -84t97 -32zM-106 -525q74 65 179 189t212 275q-224 -123 -402 -278 q-83 -72 -120 -124q-44 -63 -28 -92q13 -24 39 -26t52.5 12t44 26t23.5 18z" />
<glyph unicode="h" horiz-adv-x="775" d="M-102 -4l-16 8q57 149 177 337l65 97l5 7q71 102 166 221q114 142 218 251q94 100 128 117q34 16 62 7q23 -8 35 -31q4 -8 5.5 -16t1.5 -16t-1 -15.5t-3 -14.5t-4.5 -13t-5 -11t-4.5 -8.5t-3 -5.5l-2 -3q-83 -111 -296 -275q-123 -93 -284 -200q-132 -192 -206 -346 q64 89 95 128q77 96 146 164q89 87 158 121q1 1 11 5.5t30.5 11.5t40.5 11q45 8 75 4q41 -4 73 -30q34 -28 36 -70q2 -40 -24 -90t-45 -72t-35 -38q-35 -35 -68 -78q-66 -82 -55 -114q6 -11 24 -14q65 -7 157 45q84 48 223 165q8 6 13 -1q6 -8 -1 -13q-134 -113 -227 -167 t-167 -47q-32 3 -40 27q-14 40 59 130q14 18 51.5 58t59.5 67t40.5 66.5t16.5 74.5t-29 58q-38 31 -88 26.5t-84.5 -16t-38.5 -15.5q-126 -63 -298 -281q-38 -48 -75 -100l-54 -78q-18 -27 -18 -28zM682 1027q-14 0 -33 -9q-28 -13 -127.5 -117.5t-212.5 -246.5 q-62 -75 -138 -182q412 278 536 446q3 3 8.5 14t11 31.5t-4.5 38.5q-10 26 -40 25z" />
<glyph unicode="i" horiz-adv-x="429" d="M29 4q-81 0 -91 46q-7 26 1 60.5t31.5 75.5t41 68.5t46.5 67.5q7 9 10 14q32 46 69.5 95t58 73.5t22.5 26.5q5 7 13 1q7 -5 1 -13q-2 -2 -22.5 -26.5t-57.5 -72.5l-70 -94q-82 -117 -105 -167q-32 -66 -22 -105q9 -32 74 -32q81 0 188 59t204 143q8 6 13 -1t-1 -13 q-243 -206 -404 -206zM363 659q0 -20 -14 -34.5t-34 -14.5t-34.5 14.5t-14.5 34.5t14.5 34t34.5 14q19 0 33.5 -14.5t14.5 -33.5z" />
<glyph unicode="j" horiz-adv-x="318" d="M-604 -597q-52 0 -62 48q-10 46 24 92q56 78 158 152.5t265 172.5q40 61 143 231l124 209l93 162q31 55 33 60q6 8 12 3q8 -3 4 -12q-2 -5 -33 -59l-94 -163l-124 -210l-123 -200q18 10 34 20l173 104q61 37 147 97.5t143 114.5q7 7 13 0q6 -6 0 -13q-58 -54 -144 -115 t-149 -99l-174 -105l-64 -38q-170 -267 -268 -374q-78 -78 -131 -78zM-240 -166q-144 -87 -239.5 -158t-148.5 -144q-30 -41 -20 -76q4 -20 17.5 -28.5t31 -6t33.5 9.5t29 17t25.5 21.5t18.5 17.5l6 6q89 97 247 341zM295 660q0 -20 -14.5 -34t-33.5 -14q-20 0 -34.5 14 t-14.5 34t14.5 34.5t34.5 14.5t34 -14.5t14 -34.5z" />
<glyph unicode="k" horiz-adv-x="671" d="M-78 -11l-17 6q36 98 147 288q69 118 203 313l78 111l70 98l56 76l39 52l14 18q7 10 22.5 27t50 39.5t64.5 22.5h1q38 -2 63 -37q25 -34 -10 -101q-27 -52 -89 -122q-69 -78 -187 -183l-137 -111q45 17 90 29q118 29 176 -4q43 -24 49 -71.5t-25 -85.5q-29 -37 -82 -61 q-56 -26 -111 -30q-68 -6 -148 16q-29 8 -59 20q-10 -35 -16 -75q-14 -97 16 -153q45 -86 188 -57q52 10 128 59q73 47 171 136q7 7 13 0q5 -7 -1 -13q-191 -176 -308 -199q-91 -18 -145 5q-38 17 -62 61q-32 63 -18 164q3 22 8 43t8 32l4 12l3 9l10 -4l4 -1l11 -5 q6 -3 16 -6.5t22 -7t25.5 -7t29 -6t31.5 -4.5t33 -2.5t34 1.5q55 4 105 27.5t76 56.5q25 31 20 71.5t-39 58.5q-23 13 -59 14.5t-69 -4.5t-66 -16t-49.5 -16.5t-20.5 -8.5q-134 -55 -253 -256q-69 -119 -108 -219zM649 1022q-57 0 -123 -82q-150 -200 -256 -355l-122 -182 q148 105 267 208q118 104 186 181q60 67 86 118q30 57 11 83q-19 27 -49 29z" />
<glyph unicode="l" horiz-adv-x="533" d="M57 -9q-57 0 -85 33q-37 42 -12 117q55 157 248 451l83 120l63 87q21 28 23 30q0 1 13 16t38.5 41.5t50.5 47.5q54 46 91 61q54 24 89 1q28 -18 31 -54q6 -69 -87 -199q-82 -112 -189 -207q-124 -110 -387 -288q-31 -63 -50 -114q-2 -7 -5 -18.5t-1.5 -37.5t15.5 -42 q43 -47 141 -17q121 36 211 84t192 127q7 5 13 -1q6 -8 -1 -13q-108 -82 -199 -131t-212 -84q-34 -10 -74 -10zM391 818q-2 -2 -24 -32l-63 -87l-81 -117q-110 -168 -179 -301q248 172 358 269q107 95 187 204q88 122 83 186q-1 27 -23 41q-50 32 -158 -60q-15 -13 -30 -28 l-28 -28l-21 -23l-16 -18z" />
<glyph unicode="m" horiz-adv-x="1238" d="M-238 -17l-13 12l41 41l92 94q52 52 75 78q201 224 191 276q-3 7 -10 10q-8 3 -6 12q3 8 12 5q18 -7 21 -24q8 -37 -56 -124q-31 -46 -87 -109l28 23q137 115 254 181q67 37 119 50q124 31 149 -49q17 -55 -29 -154q-12 -26 -29 -55q3 3 9 9.5t9 9.5q112 112 205 172 q111 71 202 61q51 -8 66 -43q33 -81 -129 -264q-92 -106 -70 -146q13 -23 51.5 -25.5t72 6.5t60.5 21q115 50 243 172q7 7 13 0q6 -6 0 -13q-136 -129 -250 -176q-36 -15 -72 -24t-77 -4t-57 34q-13 24 3 64q15 40 70 103q87 100 115 165q22 50 10 80q-6 13 -19 21.5 t-21 10.5t-11 2q-81 9 -191 -60q-93 -60 -201 -170q-44 -44 -95 -102q-18 -20 -62 -75l-67 -83l-14 11q17 17 129 159q56 76 91 147q43 90 27 141q-4 14 -12.5 24t-15.5 13l-6 3q-63 21 -181.5 -38.5t-277.5 -192.5q-97 -80 -176 -158z" />
<glyph unicode="n" horiz-adv-x="853" d="M-158 -7l-15 11l75 102q36 48 83 119q151 227 132 266q-3 8 4 12q8 3 12 -4q14 -28 -31 -116q-31 -59 -89 -149l44 45q120 117 232 176q141 74 261 50q55 -12 69 -50q3 -9 3.5 -20t-1.5 -21t-5 -20.5t-8 -19.5l-10 -19q-5 -9 -10 -17l-8 -12q-4 -5 -7 -8l-3 -4l-10 -14 q-11 -13 -30 -38.5t-35 -49.5q-71 -110 -59 -161q4 -21 27 -30q65 -26 232 91q38 26 77.5 57t60 49t20.5 19q8 6 13 -1t-1 -13q-74 -66 -159 -126q-142 -98 -217 -98q-19 0 -33 6q-31 12 -38 42q-13 58 62 175l35 50q19 26 31 40l11 13l17 22q10 14 23 47.5t5 54.5 q-9 29 -56 38q-207 42 -476 -220q-81 -80 -153 -172q-75 -97 -75 -102z" />
<glyph unicode="o" horiz-adv-x="866" d="M141 -10h-10q-84 5 -122 56q-9 12 -15 26.5t-8.5 27.5t-3.5 26t0 24.5t2 20t2 13.5l1 6q25 96 127 196q87 84 179 126q74 32 134 36q55 3 95 -11q8 -3 15 -6t13 -7l11 -7q6 -3 10 -7l7 -6q4 -3 6 -6l4 -4l3 -2l1 -2q3 -6 0 -11q14 -3 23 -14q18 -20 6 -68 q-12 -44 -64 -118q-28 -38 -53 -66q70 -68 168.5 -64t186.5 74q7 6 13 -2q5 -7 -1 -12q-88 -68 -182 -77q-57 -5 -109 12t-88 55q-24 -27 -56 -57q-79 -73 -151 -111q-76 -41 -144 -41zM449 531q-68 0 -149 -36q-86 -38 -178.5 -126.5t-116.5 -183.5q-2 -9 -4 -23t2 -48.5 t21 -57.5q34 -45 108 -48q60 -4 136 34.5t155 112.5q26 24 59 60q-12 19 -18 44q-12 53 0 109q11 47 34 74q26 32 62 38q6 1 16 1q-24 29 -61 40q-34 10 -66 10zM576 463q-35 -1 -60 -27t-35 -72q-16 -78 13 -135q93 108 110 174q8 38 -3 51q-7 9 -25 9z" />
<glyph unicode="p" horiz-adv-x="891" d="M914 254q6 -8 -1 -13q-175 -157 -352 -216q-96 -31 -198 -33q-39 0 -78 6q-66 9 -131 35q-63 19 -108 61l-206 -329q-128 -192 -195 -261q-4 -5 -19 -19t-41 -30.5t-46 -16.5q-42 2 -36 49q6 58 71 178q70 129 172 270q118 160 253 301q118 121 233 211l46 81 q23 42 34 60l10 18q4 8 12 3q9 -4 3 -12q0 -2 -68 -122q105 86 253 86q110 0 159 -60q31 -38 34 -84t-18 -90.5t-50.5 -82.5t-66.5 -73q-124 -111 -270 -141q-38 -7 -63 -7q24 -6 41 -8q44 -4 91 -5t108.5 14t124.5 40t138.5 74t150.5 116q7 6 13 0zM-368 -484 q124 128 421 624l155 265q-240 -197 -447 -481q-105 -144 -169.5 -265.5t-70.5 -173.5q-4 -29 19 -29q32 0 92 60zM160 50q65 -17 146 -2q143 29 262 137q35 31 62.5 66.5t47 76.5t17.5 83.5t-29 78.5q-40 53 -144 53q-37 0 -71 -6t-56.5 -13t-49.5 -22t-38 -22t-34 -25 l-27 -20l-178 -305q-4 -6 -12 -20q36 -36 104 -60z" />
<glyph unicode="q" horiz-adv-x="798" d="M822 388q2 -10 -8 -10q-106 -15 -233 -122q-13 -11 -40 -37l-47 -47l-20 -21l-4 -5q1 -2 1 -6q-11 -113 -49 -226q-36 -106 -89 -202q-48 -87 -104 -157t-105 -104q-40 -27 -65 -26q-33 2 -47 31q-9 14 -5.5 37.5t6.5 34.5t6 16q52 109 253 378l167 214q-58 -46 -104 -74 q-99 -62 -178 -62q-62 0 -108 36t-52 96q-12 108 141 237q201 170 376 170q143 0 164 -88q13 -53 -44 -132l47 30q71 39 131 46q10 2 10 -7zM157 18q40 0 84 15.5t93 48.5t80.5 57t82.5 67q6 6 21.5 19t23.5 21q135 126 118 201q-17 74 -146 74q-170 0 -365 -166 q-79 -67 -112 -129q-27 -48 -22 -92q6 -52 46 -84t96 -32zM317 -279q110 198 134 402q-338 -424 -416 -586q-23 -46 -7 -74q15 -22 37 -20t48 22q47 36 102.5 104.5t101.5 151.5z" />
<glyph unicode="r" horiz-adv-x="652" d="M274 -33q-42 1 -62.5 27t-16.5 66q3 37 31 93q32 63 128 191q21 26 46 62q18 26 11 39q-9 16 -53 16q-7 0 -23.5 1.5t-46.5 8.5t-50 18q-4 -6 -6 -10q-92 -159 -215 -270q-8 -6 -13 1t1 13q107 96 211 266q1 2 2.5 4.5t2.5 4.5l1 2q-34 26 -27 68q5 31 34 31q24 0 32 -21 q8 -25 -15 -73q41 -23 111 -26q57 0 70 -25q12 -22 -12 -58q-10 -15 -46 -63q-96 -128 -127 -188q-26 -52 -29 -87q-7 -73 72 -73q31 0 94 22q114 40 244 119q7 5 12 -2q4 -7 -3 -13q-133 -82 -247 -121q-71 -24 -111 -23zM214 564q-2 -11 3 -26.5t14 -21.5q19 39 12 55 q-4 10 -15 10q-11 -1 -14 -17z" />
<glyph unicode="s" horiz-adv-x="541" d="M85 22q-17 35 2 79q27 65 180 131q1 0 3 1l2 1q1 41 -5.5 110.5t-7.5 90.5q-225 -189 -255 -219q-8 -6 -13 1q-6 6 1 12q1 1 40 36l105 91l121 102q0 103 35 135q24 22 51 13q19 -6 24 -25q6 -23 -11 -50.5t-31.5 -40.5t-43.5 -35q-4 -3 -6 -5v-6q1 -29 8 -97t6 -105 q29 12 60 23t48 15l16 5q91 27 170 23q9 0 9 -9t-9 -9q-74 4 -165 -22q-61 -18 -129 -46q0 -4 -0.5 -11t-0.5 -10q-9 -149 -66 -198q-30 -25 -75.5 -20t-62.5 39zM272 215q-145 -60 -169 -122q-15 -38 -2 -63q14 -28 53 -30.5t58 16.5q54 46 60 199zM305 579 q-26 -23 -29 -107q22 15 43 36q40 44 32 68q-3 10 -14 13q-16 4 -32 -10z" />
<glyph unicode="t" horiz-adv-x="664" d="M-22 220l158 133l156 127l62 50q-100 0 -218 12q-9 2 -9 10t9 8q6 0 17 -1q108 -9 210 -12q203 380 292 495q20 27 31 34t23 2q5 -3 8 -9q8 -19 -12 -67q-55 -143 -208 -336q-52 -65 -101 -120q132 -2 221 2q9 0 9 -9t-9 -9q-65 -3 -134 -3q-33 0 -103 2q-3 -3 -7.5 -8 t-6.5 -7l-94 -179l-73 -143q-26 -50 -26 -51q-2 -3 -4.5 -8.5t-7.5 -20.5t-8 -29t-1.5 -30t9.5 -27q25 -35 117 -20q76 13 166.5 62t139 86.5t88.5 73.5q8 6 13 -1t-1 -13q-86 -77 -184 -137q-119 -72 -219 -89q-30 -5 -51 -5q-60 0 -83 33q-12 16 -13.5 39t4.5 44t11 33 t8 17q3 7 185 350q-3 -2 -81 -65l-167 -137q-88 -73 -104 -91q-9 -9 -15 0q-5 7 3 14zM401 579q43 49 82 98q170 212 214 355q7 24 4 29q-1 3 -6 0q-7 -6 -26 -30q-78 -101 -268 -452z" />
<glyph unicode="u" horiz-adv-x="839" d="M466 -9q-38 -1 -60 18t-18 57q4 36 20 71q25 52 58 102l-23 -21q-108 -99 -212 -153q-111 -58 -191 -58q-55 0 -77 29q-26 33 -3 98q35 93 147 254l52 72l40 56l14 18q7 7 13 2q8 -6 2 -13l-8 -9l-19 -26l-28 -38l-34 -48l-37 -53l-38 -58q-19 -30 -35 -58t-30 -55.5 t-22 -49.5q-19 -56 0 -81q16 -21 50.5 -23t75 10t70.5 24t52 24q151 81 304 247l45 54l46 55l38 48l28 36l10 13l14 -12l-168 -207q-80 -99 -118 -186q-28 -60 -14 -93t70 -28q47 5 101 32q115 56 243 181q7 6 13 0q6 -7 0 -13q-131 -126 -248 -184q-66 -32 -123 -34z" />
<glyph unicode="v" horiz-adv-x="859" d="M-33 82q0 34 22 84q35 77 92 171q90 150 57 171q-6 4 -13 5t-13 0t-13 -4t-13 -7.5t-12 -9.5l-10 -10q-5 -5 -9 -10t-6.5 -8.5t-4.5 -5.5l-2 -3q-4 -8 -12 -2q-7 5 -3 12l2 3q2 3 5 7l8 9q4 5 10 11.5t12 11.5q47 40 84 16q35 -25 -9 -117q-14 -30 -57.5 -102.5 t-76.5 -145.5q-37 -83 -6 -121q30 -37 90 -27q162 26 306 179q97 103 152 227q-41 36 -41 95q-1 30 15.5 47.5t42.5 14.5q20 -3 29 -24q14 -41 -24 -127q24 -17 59 -24q48 -10 104 8t88.5 40t61.5 47q6 7 13 0q6 -8 -1 -13q-53 -46 -110 -75q-87 -40 -160 -24q-36 7 -62 24 q-59 -126 -154 -229q-63 -66 -135 -112q-94 -60 -181 -71q-54 -7 -90.5 17.5t-34.5 71.5zM538 550q-15 -11 -13 -39q0 -47 30 -77q32 79 21 108q-5 11 -16 13.5t-22 -5.5z" />
<glyph unicode="w" horiz-adv-x="950" d="M459 -16q-55 0 -79 36q-45 68 33 259l8 18q-72 -106 -132 -169t-141 -101q-95 -45 -152 -23q-48 21 -42 80q10 103 111 280l45 75q23 38 36 56.5t14 18.5q5 7 12 2q8 -4 2 -12l-13 -19l-36 -56q-24 -37 -45 -74q-96 -168 -107 -273q-5 -47 30 -61q49 -20 137 22 q28 14 55.5 32.5t54.5 43.5l49 48q21 22 47 57l42 57q16 21 41 62l36 58l35 59l31 52l15 -10q-78 -136 -116 -230q-75 -182 -35 -242q25 -35 91 -25q97 14 193 125q65 73 121 186q-27 28 -31 72q-5 47 13 89q24 55 65 49q13 -3 21 -15q14 -26 -7 -90q-15 -51 -39 -100 q48 -36 157 1q25 9 50.5 21t38.5 19t13 8q8 3 13 -3q3 -8 -3 -13q-79 -40 -106 -49q-49 -17 -92 -20q-50 -2 -79 19q-55 -110 -122 -186q-48 -55 -96 -87q-55 -37 -107 -44q-17 -3 -30 -3zM840 508q-25 0 -41 -38q-17 -35 -12 -80q3 -33 21 -56q2 5 7.5 17.5t7.5 17.5 q43 107 29 133q-4 6 -12 6z" />
<glyph unicode="x" horiz-adv-x="751" d="M758 202q6 -6 -1 -12q-129 -114 -239 -166q-86 -42 -151 -42q-22 0 -39 4q-40 9 -59 42q-35 59 6 212q-55 -38 -118 -87q-65 -48 -126.5 -99t-86.5 -73.5t-30 -27.5q-4 -2 -6 -2q-4 0 -7 3q-6 6 0 12q4 4 31 27l88 75q61 51 126 100q77 58 137 99q3 12 21.5 75t22.5 89 q9 45 -4 53q-27 22 -157 -37q-72 -32 -176 -93q-8 -4 -12 3q-5 7 3 13q100 58 178 94q63 28 102 37q52 13 73 -3t11 -70q-3 -15 -39 -145l90 60q158 99 289 156q8 3 12 -4q3 -8 -4 -12q-179 -79 -395 -227q-45 -165 -13 -219q15 -26 47 -33q69 -17 179 36q108 53 234 163 q7 5 13 -1z" />
<glyph unicode="y" horiz-adv-x="789" d="M-166 -594q-40 1 -56.5 25.5t-8.5 58.5t34 66q65 80 181 168q100 76 219 146q45 28 119 69l107 194q-137 -102 -241 -129q-105 -27 -169 16q-38 24 -44 68q-14 89 99 239q45 60 116 117.5t152 87.5q8 3 12 -5q3 -8 -5 -12q-146 -54 -260 -198q-7 -7 -29.5 -39 t-47.5 -89.5t-19 -98.5q6 -35 36 -55q58 -39 154 -13q119 32 268 150l88 159l35 63l31 57l16 29q11 23 33.5 36t42.5 3q8 -4 14 -12.5t5 -35t-20 -63.5q-20 -40 -75 -101t-122 -118q-4 -4 -16 -13.5t-18 -15.5l-114 -206q111 59 115 59l9 5q9 4 25.5 12.5t38.5 21.5l50 30 l59 36l67 46q36 26 70 54q7 5 12 -1q6 -8 -1 -13q-34 -28 -70 -54l-67 -46l-59 -37q-29 -18 -51 -30l-39 -21l-26 -14l-10 -5l-139 -72l-4 -8q-88 -164 -224 -320q-169 -193 -273 -191zM306 -91q-55 -30 -94 -54q-284 -171 -395 -310q-13 -16 -21 -36t-9.5 -39.5t10.5 -32.5 t38 -13q50 0 121 53q64 48 138 132q125 144 212 300zM637 472l-17 -31l-31 -56l-35 -63l-66 -119q67 58 120 116.5t72 96.5q36 72 9 87q-24 14 -52 -31z" />
<glyph unicode="z" horiz-adv-x="679" d="M-260 -525q6 51 77 128q58 63 168 150q136 105 284 192q-2 19 -9 35q-14 28 -46.5 48t-54 26t-26.5 6l-28 5l25 12q1 0 20.5 10t55.5 31.5t69 44.5q148 105 175 200q13 47 -6.5 93.5t-63.5 55.5q-35 7 -84.5 -9t-78 -32.5t-32.5 -20.5q-49 -32 -80 -62q-5 -7 -13 -1 q-5 7 0 13q37 37 83 65q129 81 209 65q54 -12 76 -66t7 -106q-30 -103 -182 -210q-59 -40 -125 -76q88 -27 116 -84q9 -17 10 -33q62 35 110 59q37 18 74.5 39.5t68 41t58.5 39.5l49 36l38 29q16 12 24 19l9 8q6 6 12 -1q7 -5 0 -12q-8 -8 -43.5 -36.5t-118 -83.5 t-163.5 -95q-57 -29 -116 -63q-2 -37 -20 -72q-57 -118 -193 -267q-147 -160 -245 -185q-41 -10 -67 9.5t-23 54.5zM269 -76q-147 -88 -273 -185q-105 -82 -166 -149q-68 -74 -72 -117q-2 -28 19.5 -40t48.5 -5q91 22 236 180q135 149 190 263q14 28 17 53z" />
<glyph unicode="{" horiz-adv-x="440" d="M129 -175q-34 12 -51 41t-17 60q0 43 18.5 70.5t55.5 57.5q108 87 142 137.5t36 126.5q0 10 -2.5 20t-7 18.5t-11.5 15.5l-13 15q-6 7 -13 12.5t-14 9.5l-11 7q-5 3 -8 5l-3 2q-6 1 -6 9q2 8 8 8q38 0 89 33q93 61 121 202q32 164 124 249q79 72 183 72q9 0 9 -9t-9 -9 q-108 0 -184.5 -81.5t-104.5 -225.5q-17 -82 -55 -138q-31 -47 -75 -75q-28 -18 -72 -31q70 -40 73 -109q1 -35 -8.5 -68t-21.5 -55.5t-40.5 -52.5t-46.5 -45l-55 -47q-8 -7 -12 -10q-67 -54 -67 -112q0 -63 53 -87q11 -4 8 -11q-3 -9 -12 -5z" />
<glyph unicode="|" d="M40 -225q-3 0 -5 1q-8 6 -2 13l813 1270q5 7 13 2q8 -4 2 -12l-813 -1270q-3 -4 -8 -4z" />
<glyph unicode="}" horiz-adv-x="689" d="M572 1025q34 -12 51 -41t17 -60q0 -43 -18.5 -70.5t-55.5 -57.5q-108 -87 -142 -137.5t-36 -126.5q0 -10 2.5 -20t7 -18.5t11.5 -15.5l13 -15q6 -7 13 -12.5t14 -9.5l11 -7q5 -3 8 -5l3 -2q6 -1 6 -9q-2 -8 -8 -8q-38 0 -89 -33q-93 -61 -121 -202q-32 -164 -124 -249 q-79 -72 -183 -72q-9 0 -9 9t9 9q108 0 184.5 81.5t104.5 225.5q17 82 55 138q32 47 75 75q28 18 72 31q-70 40 -73 109q-1 35 8.5 68t21.5 55.5t40.5 52.5t45.5 45l56 47q8 7 12 10q67 54 67 112q0 63 -53 87q-11 4 -8 11q3 9 12 5z" />
<glyph unicode="~" horiz-adv-x="441" d="M387 796q-9 2 -7 11q1 2 1.5 8t-1.5 17t-7 21.5t-19 20.5t-35 14q-31 7 -66 -16l-75 -50q-39 -26 -77 -26q-39 0 -55 24q-5 7 -8 16.5t-3.5 18.5t0 18t2 15.5t2.5 11.5l1 4q3 8 12 6q8 -3 6 -12q-1 -1 -4 -12t-2 -28t9 -28q12 -16 40 -16t58 17t52 36.5t52 32.5t60 6 q57 -14 72 -60q3 -9 3 -43q-2 -8 -11 -7z" />
<glyph unicode="&#xa1;" horiz-adv-x="622" d="M461 457q1 0 3 -1q8 -3 5 -12q-85 -207 -263 -463l-80 -112q-41 -56 -61 -81t-22 -27q-6 -6 -13 -1t-1 13q2 2 22 27l61 80l79 111q181 264 261 460q4 6 9 6zM471 585q0 23 17 39.5t40 16.5t39.5 -16.5t16.5 -39.5q0 -24 -16.5 -40.5t-39.5 -16.5t-40 16.5t-17 40.5z" />
<glyph unicode="&#xa2;" horiz-adv-x="819" d="M239 -53q-12 0 -38 2q-21 2 -30 5l-130 -203q-4 -4 -8 -4q-1 0 -5 2q-7 4 -3 12l127 199q-37 13 -60 47q-32 47 -32 129q0 58 17 119q47 161 160 303q106 133 226 206q116 71 219 71q21 0 30 -1l127 197q5 7 12 3q9 -5 3 -13l-122 -190q60 -11 79 -48q11 -17 9 -41.5 t-7 -43t-15.5 -39t-16 -29t-8.5 -12.5q-6 -8 -13 -2q-7 5 -2 12q4 4 16.5 26.5t24 58.5t-3.5 62q-19 33 -73 40l-541 -845l21 -3q146 -12 237 64q20 16 35.5 36t21 30t5.5 12q4 7 12 4q8 -4 5 -11q-25 -50 -67 -85q-44 -35 -98 -53q-54 -17 -114 -17zM684 817h-2 q-101 -1 -216 -72.5t-215 -197.5q-111 -139 -157 -298q-10 -33 -14.5 -70.5t1 -84t26.5 -76.5t55 -43l539 841q-5 1 -17 1z" />
<glyph unicode="&#xa3;" horiz-adv-x="1258" d="M849 285l-223 21q-15 -26 -46 -71q-56 -85 -112 -151l-49 -55l23 -11l30 -13l31 -13q25 -10 37 -14l36 -11q25 -7 39.5 -9t35.5 -4t36 1t31.5 8.5t28.5 15.5q7 7 13 -1q6 -6 -1 -12q-29 -22 -64 -28.5t-77.5 2.5t-71.5 19t-77 30.5t-64 26.5q-59 -58 -133.5 -94 t-133.5 -5q-59 32 -56 93q3 29 19 51q23 31 56 41.5t75.5 0.5t72 -21.5t75.5 -33.5q14 -7 21 -10q76 76 164 207q27 39 41 63l-212 19q-8 2 -8 10q2 10 10 8l221 -20q43 69 63 107l-226 21q-8 0 -8 9q2 10 10 8l232 -21l74 130q25 43 64.5 101.5t75.5 97.5q64 69 127 98 q74 33 152 14q71 -17 92 -62q9 -20 9.5 -43t-2.5 -33.5t-5 -14.5q-4 -9 -12 -5q-9 4 -5 12q1 1 4 11.5t3 29.5t-8 35q-20 38 -81 53q-132 33 -261 -107q-21 -23 -42.5 -51t-36 -49t-36.5 -57t-31 -52l-32 -58q-23 -42 -29 -52l203 -19q10 0 8 -10q0 -8 -9 -8h-1l-211 20 q-17 -32 -61 -107l214 -20q8 0 8 -10q0 -8 -9 -8h-1zM146 -67q50 -25 119 7.5t123 83.5q-1 0 -2 1q-131 61 -181 64q-35 3 -68.5 -19.5t-36.5 -60.5q-2 -51 46 -76z" />
<glyph unicode="&#xa8;" horiz-adv-x="366" d="M152 842q0 -22 -16 -38t-38 -16t-38 16t-16 38t16 38t38 16t38 -16t16 -38zM314 842q0 -22 -16 -38t-38 -16t-38 16t-16 38t16 38t38 16t38 -16t16 -38z" />
<glyph unicode="&#xaa;" horiz-adv-x="887" d="M900 225q5 -7 0 -13q-242 -217 -398 -217q-39 0 -71.5 14t-35.5 47t36 79q-71 -58 -125 -91q-99 -62 -177 -62q-64 0 -108 35.5t-53 96.5q-12 107 141 237q100 85 198 127q96 43 183 43q42 0 76 -10q9 -2 21.5 -7t34 -24.5t27.5 -45.5q16 -73 -86 -182q6 4 8 6 q40 29 84.5 58t69.5 44t26 15q8 6 12 -3q6 -8 -3 -12l-10 -6l-28 -17l-40 -25l-48 -32q-28 -18 -52 -36q-80 -60 -120 -101q-52 -55 -49 -86q1 -23 29.5 -33.5t58.5 -10.5q82 0 185 61t201 152q8 6 13 -1zM129 0q40 0 83.5 15.5t93 49.5t80 57t82.5 67q184 152 164 241 q-5 21 -23 37t-31.5 21.5t-16.5 5.5q-33 9 -71 9q-84 0 -180.5 -43.5t-188.5 -122.5q-78 -65 -113 -128q-27 -49 -22 -93q6 -53 46 -84.5t97 -31.5z" />
<glyph unicode="&#xab;" horiz-adv-x="1118" d="M380 85q-9 0 -9 8q-7 99 -141 206q-30 24 -63 46t-51 32l-19 10q-7 3 -5 11q2 6 10 6q200 -21 415 111q103 62 177 136q7 6 13 0t0 -13l-9 -8q-8 -8 -24 -22l-36 -30q-21 -17 -51 -38.5t-60 -39.5q-97 -59 -193 -89q-100 -30 -195 -27q55 -34 102 -71q60 -46 97 -98 q46 -61 51 -120q0 -10 -9 -10zM745 85q-9 0 -9 8q-7 99 -141 206q-30 24 -63 46t-52 32l-18 10q-7 3 -5 11q1 6 10 6q200 -21 415 111q103 62 177 136q7 6 13 0t0 -13l-8 -8l-25 -22l-36 -30q-21 -17 -51 -38.5t-60 -39.5q-97 -59 -193 -89q-101 -30 -195 -27 q55 -34 102 -71q60 -46 97 -98q47 -61 51 -120q0 -10 -9 -10z" />
<glyph unicode="&#xad;" horiz-adv-x="716" d="M661 303h-605q-9 0 -9 9t9 9h605q9 0 9 -9t-9 -9z" />
<glyph unicode="&#xb2;" horiz-adv-x="806" d="M614 -41q-30 2 -89 31q-98 47 -169 51q-57 4 -185 -40q-54 -17 -67 -20q-46 -11 -57 7q-10 16 14 48q42 55 103.5 112.5t145.5 117.5l142 98l153 99q148 93 191 125q76 57 111 129t18 134q-27 92 -142 105q-97 9 -193 -39t-145 -140q-20 -36 -8 -66.5t58 -37.5 q69 -11 119 71q11 18 20.5 39.5t13.5 34.5l3 12q2 11 12 7q10 -2 7 -12q0 -2 -4 -14.5t-13.5 -35t-21.5 -42.5q-58 -94 -139 -80q-39 6 -60 29t-19.5 50t14.5 55q55 100 152.5 149.5t205.5 38.5q57 -6 101 -36.5t58 -81.5q21 -78 -21.5 -154.5t-114.5 -130.5 q-53 -39 -192 -126l-152 -98q-57 -37 -141 -97t-145 -116t-101 -111q-17 -22 -14 -26q4 -8 36 2q9 3 31.5 9.5t34.5 10.5q133 45 193 41q76 -5 176 -53q25 -12 36.5 -16.5t30 -9.5t29.5 -3t24.5 10t25.5 24q8 7 14 1q8 -5 2 -14q-34 -41 -82 -41z" />
<glyph unicode="&#xb3;" d="M259 -87q-65 0 -116 19q-74 26 -101 87q-18 38 -16 89q2 43 19 82q23 59 85 100q2 2 12.5 6.5t28.5 7.5t37 -3q32 -11 49 -50q15 -37 2 -68q-8 -19 -25.5 -35t-28 -21.5t-15.5 -7.5q-8 -3 -13 6q-4 9 6 13q44 18 58 52q10 24 -2 53q-14 32 -37 39q-30 9 -62 -9 q-2 0 -15 -9.5t-32 -32t-30 -49.5q-35 -86 -3 -155q25 -54 90 -76q124 -44 272 14q167 66 261 230q80 141 41 270q-14 42 -39 76h-11q-91 -11 -153 21q-20 11 -30 26.5t-7 31.5q6 32 51 35q62 5 111 -37q22 -18 36 -41q7 -7 12 -14q20 3 45 13q74 28 129 101 q29 41 35.5 89.5t-12.5 91.5q-33 72 -115 81q-50 5 -93 -8.5t-60.5 -27t-29.5 -27.5q-6 -7 -14 -1q-7 7 -1 14q28 32 74 53q59 23 126 16q48 -5 82 -30q33 -25 49 -62q21 -47 14 -102t-39 -99q-58 -78 -139 -108q-11 -5 -38 -12q23 -35 36 -74q19 -64 12 -124 q-8 -82 -55 -162q-50 -87 -123 -150q-64 -55 -148 -88q-73 -30 -151 -33q-6 -1 -19 -1zM548 635h-11q-30 -3 -33 -19q-5 -20 26 -36q51 -27 140 -20l-3 3l-1 1v2l-4 5q-3 5 -11 14.5t-18 17.5q-36 32 -85 32z" />
<glyph unicode="&#xb4;" horiz-adv-x="505" d="M21 809q-9 2 -7 11t10 7q111 -14 232.5 19.5t222.5 98.5q8 5 13 -2q4 -7 -3 -13q-230 -146 -468 -121z" />
<glyph unicode="&#xb8;" horiz-adv-x="270" d="M26 -204q-8 3 -5 11q2 10 11 5q128 -46 177 26q18 25 10 43q-8 16 -33 25.5t-47 11.5q-6 1 -7.5 6.5t1.5 8.5l57 70q6 8 13 1q6 -5 1 -12l-47 -59q63 -11 78 -45q12 -28 -11 -61q-54 -82 -198 -31z" />
<glyph unicode="&#xb9;" horiz-adv-x="567" d="M87 -8q-8 5 -3 14q249 371 643 891q-61 -44 -121 -72q-99 -47 -221 -74q-142 -32 -252 -32q-10 0 -10 10t10 10q107 0 248 31q274 61 412 214l15 -12q0 -1 -26 -34l-68 -92l-100 -132l-122 -166l-132 -182l-134 -190l-125 -182q-5 -7 -14 -2z" />
<glyph unicode="&#xba;" horiz-adv-x="866" d="M141 -10h-10q-84 5 -122 56q-9 12 -15 26.5t-8.5 27.5t-3.5 26t0 24.5t2 20t2 13.5l1 6q25 96 127 196q87 84 179 126q74 32 134 36q55 3 95 -11q8 -3 15 -6t13 -7l12 -6q5 -4 9 -8l7 -6q4 -3 6 -6l4 -4l3 -2l1 -2q3 -6 0 -11q14 -3 23 -14q18 -20 6 -68 q-12 -44 -64 -118q-28 -38 -53 -66q70 -68 168.5 -64t186.5 74q7 6 13 -2q5 -7 -1 -12q-88 -68 -182 -77q-57 -5 -109 12t-88 55q-24 -27 -56 -57q-79 -73 -151 -111q-76 -41 -144 -41zM449 531q-68 0 -149 -36q-86 -38 -178.5 -126.5t-116.5 -183.5q-2 -9 -4 -23t2 -48.5 t21 -57.5q34 -45 108 -48q60 -4 136 34.5t155 112.5q26 24 59 60q-12 19 -18 44q-12 53 0 109q11 47 34 74q26 32 62 38q6 1 16 1q-24 29 -61 40q-34 10 -66 10zM576 463q-35 -1 -60 -27t-35 -72q-16 -78 13 -135q93 108 110 174q8 38 -3 51q-7 9 -25 9z" />
<glyph unicode="&#xbb;" horiz-adv-x="1104" d="M421 117q-5 0 -6 3q-8 6 0 12q0 1 21 20.5t65.5 54.5t93.5 64q98 60 193 88q98 31 194 28q-61 37 -102 71q-61 48 -97 97q-45 62 -50 121q0 8 8 10q10 0 10 -9q7 -98 141 -205q29 -24 62.5 -46t51.5 -32t19 -10q7 -3 5 -11q-4 -8 -10 -6q-199 21 -416 -111 q-30 -18 -59 -39t-49 -37l-37 -31l-24 -21l-8 -8q-1 -3 -6 -3zM57 117q-5 0 -6 3q-8 6 0 12q0 1 21 20.5t65.5 54.5t93.5 64q98 60 193 88q98 31 194 28q-61 37 -102 71q-61 48 -97 97q-45 62 -50 121q0 8 8 10q10 0 10 -9q7 -98 141 -205q29 -24 62.5 -46t51.5 -32t19 -10 q7 -3 5 -11q-4 -8 -10 -6q-199 21 -416 -111q-30 -18 -59 -39t-49 -37l-37 -31l-24 -21l-8 -8q-1 -3 -6 -3z" />
<glyph unicode="&#xbc;" horiz-adv-x="1662" d="M1139 -25q-2 0 -6 2q-7 7 -2 14l314 401q-79 15 -196 17h-55q-26 0 -52 -1.5t-50 -3.5l-44 -2q-22 -2 -40 -4t-33 -4t-25 -3t-16 -2l-6 -1l-4 20q258 67 638 318l167 115l122 90q39 30 42 33l14 -14l-427 -545q3 -1 8.5 -2.5t8.5 -2.5q127 -34 167 -109q5 -9 -4 -14 q-9 -6 -13 4q-36 67 -155 100l-25 6l-320 -408q-3 -4 -8 -4zM1227 430q15 0 22 -1q126 -2 210 -20l383 490q-124 -95 -269 -190q-164 -108 -316 -187q-120 -64 -227 -102q108 10 197 10zM297 -25q-3 0 -5 1q-8 6 -2 13l813 1270q5 7 13 2q8 -4 2 -12l-813 -1270q-3 -4 -8 -4 zM87 -8q-8 5 -3 14q249 371 643 891q-61 -44 -121 -72q-99 -47 -221 -74q-142 -32 -252 -32q-10 0 -10 10t10 10q107 0 248 31q274 61 412 214l15 -12q0 -1 -26 -34l-68 -92l-100 -132l-122 -166l-132 -182l-134 -190l-125 -182q-5 -7 -14 -2z" />
<glyph unicode="&#xbd;" horiz-adv-x="1646" d="M1454 -41q-30 2 -89 31q-98 47 -169 51q-57 4 -185 -40q-54 -17 -67 -20q-46 -11 -57 7q-10 16 14 48q42 55 103.5 112.5t145.5 117.5l142 98l153 99q148 93 191 125q76 57 111 129t18 134q-27 92 -142 105q-97 9 -193 -39t-145 -140q-20 -36 -8 -66.5t58 -37.5 q69 -11 119 71q11 18 20.5 39.5t13.5 34.5l3 12q2 11 12 7q10 -2 7 -12q0 -2 -4 -14.5t-13.5 -35t-21.5 -42.5q-58 -94 -139 -80q-39 6 -60 29t-19.5 50t14.5 55q55 100 152.5 149.5t205.5 38.5q57 -6 101 -36.5t58 -81.5q21 -78 -21.5 -154.5t-114.5 -130.5 q-53 -39 -192 -126l-152 -98q-57 -37 -141 -97t-145 -116t-101 -111q-17 -22 -14 -26q4 -8 36 2q9 3 31.5 9.5t34.5 10.5q133 45 193 41q76 -5 176 -53q25 -12 36.5 -16.5t30 -9.5t29.5 -3t24.5 10t25.5 24q8 7 14 1q8 -5 2 -14q-34 -41 -82 -41zM297 -25q-3 0 -5 1 q-8 6 -2 13l813 1270q5 7 13 2q8 -4 2 -12l-813 -1270q-3 -4 -8 -4zM87 -8q-8 5 -3 14q249 371 643 891q-61 -44 -121 -72q-99 -47 -221 -74q-142 -32 -252 -32q-10 0 -10 10t10 10q107 0 248 31q274 61 412 214l15 -12q0 -1 -26 -34l-68 -92l-100 -132l-122 -166l-132 -182 l-134 -190l-125 -182q-5 -7 -14 -2z" />
<glyph unicode="&#xbe;" horiz-adv-x="1928" d="M1405 -25q-2 0 -6 2q-7 7 -2 14l314 401q-79 15 -196 17h-55q-26 0 -52 -1.5t-50 -3.5l-44 -2q-22 -2 -40 -4t-33 -4t-25 -3t-16 -2l-6 -1l-4 20q258 67 638 318l167 115l122 90q39 30 42 33l14 -14l-427 -545q3 -1 8.5 -2.5t8.5 -2.5q127 -34 167 -109q5 -9 -4 -14 q-9 -6 -13 4q-36 67 -155 100l-25 6l-320 -408q-3 -4 -8 -4zM1493 430q15 0 22 -1q126 -2 210 -20l383 490q-124 -95 -269 -190q-164 -108 -316 -187q-120 -64 -227 -102q108 10 197 10zM563 -25q-3 0 -5 1q-8 6 -2 13l813 1270q5 7 13 2q8 -4 2 -12l-813 -1270q-3 -4 -8 -4 zM259 -87q-65 0 -116 19q-74 26 -101 87q-18 38 -16 89q2 43 19 82q23 59 85 100q2 2 12.5 6.5t28.5 7.5t37 -3q32 -11 49 -50q15 -37 2 -68q-8 -19 -25.5 -35t-28 -21.5t-15.5 -7.5q-8 -3 -13 6q-4 9 6 13q44 18 58 52q10 24 -2 53q-14 32 -37 39q-30 9 -62 -9 q-2 0 -15 -9.5t-32 -32t-30 -49.5q-35 -86 -3 -155q25 -54 90 -76q124 -44 272 14q167 66 261 230q80 141 41 270q-14 42 -39 76h-11q-91 -11 -153 21q-20 11 -30 26.5t-7 31.5q6 32 51 35q62 5 111 -37q22 -18 36 -41q7 -7 12 -14q20 3 45 13q74 28 129 101 q29 41 35.5 89.5t-12.5 91.5q-33 72 -115 81q-50 5 -93 -8.5t-60.5 -27t-29.5 -27.5q-6 -7 -14 -1q-7 7 -1 14q28 32 74 53q59 23 126 16q48 -5 82 -30q33 -25 49 -62q21 -47 14 -102t-39 -99q-58 -78 -139 -108q-11 -5 -38 -12q23 -35 36 -74q19 -64 12 -124 q-8 -82 -55 -162q-50 -87 -123 -150q-64 -55 -148 -88q-73 -30 -151 -33q-6 -1 -19 -1zM548 635h-11q-30 -3 -33 -19q-5 -20 26 -36q51 -27 140 -20l-3 3l-1 1v2l-4 5q-3 5 -11 14.5t-18 17.5q-36 32 -85 32z" />
<glyph unicode="&#xbf;" horiz-adv-x="706" d="M544 495q1 0 5 -2q7 -4 3 -12l-140 -224h-5q-146 21 -286 -77q-105 -74 -149 -172q-45 -102 11 -160q22 -22 58 -34q51 -19 110.5 -9.5t113 37t99 81t68.5 122.5q4 9 11 6q8 -2 6 -11q-44 -131 -163 -206.5t-248 -37.5q-106 32 -104 131q2 92 92 192q100 111 233 146 q73 20 143 10l134 215q3 5 8 5zM560 622q0 23 17 39.5t40 16.5t39.5 -16.5t16.5 -39.5q0 -24 -16.5 -40.5t-39.5 -16.5t-40 16.5t-17 40.5z" />
<glyph unicode="&#xc0;" horiz-adv-x="1208" d="M1544 980q8 -6 3 -13t-13 -1q-61 42 -142 47l-20 -14q-22 -15 -53 -42q-88 -74 -162 -173q-157 -208 -210 -478q49 12 90 30.5t55.5 28t18.5 13.5q8 6 13 -1q6 -7 -2 -13q0 -2 -18 -14t-63 -31.5t-98 -31.5q-21 -123 -21 -245v-42h-18q0 60 -15 142q-14 70 -37 129 q-71 -5 -123 -3q-109 4 -179 25l-33 -53q-99 -154 -163 -214q-33 -32 -76.5 -52t-94 -20.5t-89.5 28.5q-32 24 -49 61q-21 47 -21 96v1q0 9 9 9t9 -9v-1q0 -28 8 -58q18 -59 54 -85q58 -34 122.5 -20t115.5 63q47 43 106 129l85 131q-54 21 -76 54q-15 20 -15 47q0 46 32 72 q34 29 107 29q44 0 78 -10q7 11 23 33q166 224 290 333q160 140 321 167q33 6 79 6q102 0 172 -50zM460 400q0 -53 83 -85q76 120 105 161q-32 8 -67 8q-64 0 -95 -26q-26 -21 -26 -58zM730 286q58 -2 115 3q-26 58 -61 99q-50 60 -118 82q-26 -36 -106 -161q69 -20 170 -23 zM907 141q4 71 17 141q-26 -4 -54 -9q9 -21 15 -42q14 -43 22 -90zM1143 795q103 137 218 218q-37 -2 -64 -6q-158 -28 -313 -164q-126 -111 -287 -330q-14 -18 -20 -27q70 -25 121 -86q41 -50 65 -109q43 6 65 10q51 277 215 494zM1441 1078q-108 0 -193.5 43.5 t-112.5 133.5q-9 29 -9 51q0 9 9 9t9 -9q0 -20 8 -47q18 -53 56.5 -89t86 -50.5t102 -21t103.5 0.5q8 0 10 -8q0 -10 -9 -10q-30 -3 -60 -3z" />
<glyph unicode="&#xc1;" horiz-adv-x="1208" d="M1544 980q8 -6 3 -13t-13 -1q-61 42 -142 47l-20 -14q-22 -15 -53 -42q-88 -74 -162 -173q-157 -208 -210 -478q49 12 90 30.5t55.5 28t18.5 13.5q8 6 13 -1q6 -7 -2 -13q0 -2 -18 -14t-63 -31.5t-98 -31.5q-21 -123 -21 -245v-42h-18q0 60 -15 142q-14 70 -37 129 q-71 -5 -123 -3q-109 4 -179 25l-33 -53q-99 -154 -163 -214q-33 -32 -76.5 -52t-94 -20.5t-89.5 28.5q-32 24 -49 61q-21 47 -21 96v1q0 9 9 9t9 -9v-1q0 -28 8 -58q18 -59 54 -85q58 -34 122.5 -20t115.5 63q47 43 106 129l85 131q-54 21 -76 54q-15 20 -15 47q0 46 32 72 q34 29 107 29q44 0 78 -10q7 11 23 33q166 224 290 333q160 140 321 167q33 6 79 6q102 0 172 -50zM460 400q0 -53 83 -85q76 120 105 161q-32 8 -67 8q-64 0 -95 -26q-26 -21 -26 -58zM730 286q58 -2 115 3q-26 58 -61 99q-50 60 -118 82q-26 -36 -106 -161q69 -20 170 -23 zM907 141q4 71 17 141q-26 -4 -54 -9q9 -21 15 -42q14 -43 22 -90zM1143 795q103 137 218 218q-37 -2 -64 -6q-158 -28 -313 -164q-126 -111 -287 -330q-14 -18 -20 -27q70 -25 121 -86q41 -50 65 -109q43 6 65 10q51 277 215 494zM1156 1068q-9 2 -7 11t10 7 q111 -14 232.5 19.5t222.5 98.5q8 5 13 -2q4 -7 -3 -13q-230 -146 -468 -121z" />
<glyph unicode="&#xc2;" horiz-adv-x="1208" d="M1544 980q8 -6 3 -13t-13 -1q-61 42 -142 47l-20 -14q-22 -15 -53 -42q-88 -74 -162 -173q-157 -208 -210 -478q49 12 90 30.5t55.5 28t18.5 13.5q8 6 13 -1q6 -7 -2 -13q0 -2 -18 -14t-63 -31.5t-98 -31.5q-21 -123 -21 -245v-42h-18q0 60 -15 142q-14 70 -37 129 q-71 -5 -123 -3q-109 4 -179 25l-33 -53q-99 -154 -163 -214q-33 -32 -76.5 -52t-94 -20.5t-89.5 28.5q-32 24 -49 61q-21 47 -21 96v1q0 9 9 9t9 -9v-1q0 -28 8 -58q18 -59 54 -85q58 -34 122.5 -20t115.5 63q47 43 106 129l85 131q-54 21 -76 54q-15 20 -15 47q0 46 32 72 q34 29 107 29q44 0 78 -10q7 11 23 33q166 224 290 333q160 140 321 167q33 6 79 6q102 0 172 -50zM460 400q0 -53 83 -85q76 120 105 161q-32 8 -67 8q-64 0 -95 -26q-26 -21 -26 -58zM730 286q58 -2 115 3q-26 58 -61 99q-50 60 -118 82q-26 -36 -106 -161q69 -20 170 -23 zM907 141q4 71 17 141q-26 -4 -54 -9q9 -21 15 -42q14 -43 22 -90zM1143 795q103 137 218 218q-37 -2 -64 -6q-158 -28 -313 -164q-126 -111 -287 -330q-14 -18 -20 -27q70 -25 121 -86q41 -50 65 -109q43 6 65 10q51 277 215 494zM1617 1054q-81 0 -113 74q-13 28 -15 58 q-82 -47 -159 -70q-73 -23 -141 -29q-16 -2 -32 -2.5t-29 -0.5t-24 0.5t-19.5 1.5t-14.5 2t-10 2h-3q-9 2 -7 11t11 7q6 -1 16 -2.5t44 -3.5t67 3q161 16 304 104q4 2 9 -0.5t5 -7.5q0 -34 14 -66q28 -63 97 -63q9 0 9 -9t-9 -9z" />
<glyph unicode="&#xc3;" horiz-adv-x="1208" d="M1544 980q8 -6 3 -13t-13 -1q-61 42 -142 47l-20 -14q-22 -15 -53 -42q-88 -74 -162 -173q-157 -208 -210 -478q49 12 90 30.5t55.5 28t18.5 13.5q8 6 13 -1q6 -7 -2 -13q0 -2 -18 -14t-63 -31.5t-98 -31.5q-21 -123 -21 -245v-42h-18q0 60 -15 142q-14 70 -37 129 q-71 -5 -123 -3q-109 4 -179 25l-33 -53q-99 -154 -163 -214q-33 -32 -76.5 -52t-94 -20.5t-89.5 28.5q-32 24 -49 61q-21 47 -21 96v1q0 9 9 9t9 -9v-1q0 -28 8 -58q18 -59 54 -85q58 -34 122.5 -20t115.5 63q47 43 106 129l85 131q-54 21 -76 54q-15 20 -15 47q0 46 32 72 q34 29 107 29q44 0 78 -10q7 11 23 33q166 224 290 333q160 140 321 167q33 6 79 6q102 0 172 -50zM460 400q0 -53 83 -85q76 120 105 161q-32 8 -67 8q-64 0 -95 -26q-26 -21 -26 -58zM730 286q58 -2 115 3q-26 58 -61 99q-50 60 -118 82q-26 -36 -106 -161q69 -20 170 -23 zM907 141q4 71 17 141q-26 -4 -54 -9q9 -21 15 -42q14 -43 22 -90zM1143 795q103 137 218 218q-37 -2 -64 -6q-158 -28 -313 -164q-126 -111 -287 -330q-14 -18 -20 -27q70 -25 121 -86q41 -50 65 -109q43 6 65 10q51 277 215 494zM1567 1059q-9 2 -7 11q1 2 1.5 8t-1.5 17 t-7 21.5t-19 20.5t-35 14q-31 7 -66 -16l-75 -50q-39 -26 -77 -26q-39 0 -55 24q-5 7 -8 16.5t-3.5 18.5t0 18t1.5 15l3 11l1 5q3 8 12 6q8 -3 6 -12q-1 -1 -4 -12t-2 -28t9 -28q12 -16 40 -16t58 17t52 36.5t52 32.5t60 6q57 -14 72 -60q3 -9 3 -43q-2 -8 -11 -7z" />
<glyph unicode="&#xc4;" horiz-adv-x="1208" d="M1544 980q8 -6 3 -13t-13 -1q-61 42 -142 47l-20 -14q-22 -15 -53 -42q-88 -74 -162 -173q-157 -208 -210 -478q49 12 90 30.5t55.5 28t18.5 13.5q8 6 13 -1q6 -7 -2 -13q0 -2 -18 -14t-63 -31.5t-98 -31.5q-21 -123 -21 -245v-42h-18q0 60 -15 142q-14 70 -37 129 q-71 -5 -123 -3q-109 4 -179 25l-33 -53q-99 -154 -163 -214q-33 -32 -76.5 -52t-94 -20.5t-89.5 28.5q-32 24 -49 61q-21 47 -21 96v1q0 9 9 9t9 -9v-1q0 -28 8 -58q18 -59 54 -85q58 -34 122.5 -20t115.5 63q47 43 106 129l85 131q-54 21 -76 54q-15 20 -15 47q0 46 32 72 q34 29 107 29q44 0 78 -10q7 11 23 33q166 224 290 333q160 140 321 167q33 6 79 6q102 0 172 -50zM460 400q0 -53 83 -85q76 120 105 161q-32 8 -67 8q-64 0 -95 -26q-26 -21 -26 -58zM730 286q58 -2 115 3q-26 58 -61 99q-50 60 -118 82q-26 -36 -106 -161q69 -20 170 -23 zM907 141q4 71 17 141q-26 -4 -54 -9q9 -21 15 -42q14 -43 22 -90zM1143 795q103 137 218 218q-37 -2 -64 -6q-158 -28 -313 -164q-126 -111 -287 -330q-14 -18 -20 -27q70 -25 121 -86q41 -50 65 -109q43 6 65 10q51 277 215 494zM1346 1120q0 -22 -16 -38t-38 -16t-38 16 t-16 38t16 38t38 16t38 -16t16 -38zM1508 1120q0 -22 -16 -38t-38 -16t-38 16t-16 38t16 38t38 16t38 -16t16 -38z" />
<glyph unicode="&#xc5;" horiz-adv-x="1208" d="M1544 980q8 -6 3 -13t-13 -1q-61 42 -142 47l-20 -14q-22 -15 -53 -42q-88 -74 -162 -173q-157 -208 -210 -478q49 12 90 30.5t55.5 28t18.5 13.5q8 6 13 -1q6 -7 -2 -13q0 -2 -18 -14t-63 -31.5t-98 -31.5q-21 -123 -21 -245v-42h-18q0 60 -15 142q-14 70 -37 129 q-71 -5 -123 -3q-109 4 -179 25l-33 -53q-99 -154 -163 -214q-33 -32 -76.5 -52t-94 -20.5t-89.5 28.5q-32 24 -49 61q-21 47 -21 96v1q0 9 9 9t9 -9v-1q0 -28 8 -58q18 -59 54 -85q58 -34 122.5 -20t115.5 63q47 43 106 129l85 131q-54 21 -76 54q-15 20 -15 47q0 46 32 72 q34 29 107 29q44 0 78 -10q7 11 23 33q166 224 290 333q160 140 321 167q33 6 79 6q102 0 172 -50zM460 400q0 -53 83 -85q76 120 105 161q-32 8 -67 8q-64 0 -95 -26q-26 -21 -26 -58zM730 286q58 -2 115 3q-26 58 -61 99q-50 60 -118 82q-26 -36 -106 -161q69 -20 170 -23 zM907 141q4 71 17 141q-26 -4 -54 -9q9 -21 15 -42q14 -43 22 -90zM1143 795q103 137 218 218q-37 -2 -64 -6q-158 -28 -313 -164q-126 -111 -287 -330q-14 -18 -20 -27q70 -25 121 -86q41 -50 65 -109q43 6 65 10q51 277 215 494zM1400 1052q-50 0 -85.5 35.5t-35.5 85.5 t35.5 85.5t85.5 35.5t85.5 -35.5t35.5 -85.5t-35.5 -85.5t-85.5 -35.5zM1400 1276q-43 0 -73 -30t-30 -73t30 -73t73 -30t73 30t30 73t-30 73t-73 30z" />
<glyph unicode="&#xc6;" horiz-adv-x="1762" d="M1265 0q-149 6 -223 104q-53 74 -37 191q19 119 111 197q77 65 162 82q-33 92 -1 183q-65 67 -77 150q-2 9 8 11q8 0 10 -8q13 -76 66 -135q14 36 40 72q35 48 90 83q28 17 57.5 28.5t43.5 14.5t17 3q113 14 165 -35q32 -32 33.5 -80.5t-24.5 -83.5q-35 -49 -93.5 -76 t-121.5 -27q-121 5 -199 69q-26 -94 5 -166q39 7 92 4q37 -4 61 -21.5t16 -48.5q-8 -23 -37 -26.5t-58.5 6.5t-47.5 24q-23 18 -36 42q-91 -18 -160 -79q-85 -72 -104 -186q-13 -112 32 -175q35 -47 93 -73t117 -26q118 0 216 58.5t148 162.5q4 9 12 5q9 -4 5 -12 q-58 -111 -157.5 -171.5t-223.5 -60.5zM1449 516q7 22 -15 34.5t-47 13.5q-37 3 -81 -4q12 -19 28 -31q30 -23 66.5 -27.5t48.5 14.5zM1491 692q70 1 116 24.5t84 71.5q22 29 21.5 72t-27.5 68q-43 44 -155 29q-53 -8 -105 -42t-87 -79q-24 -34 -40 -74q76 -70 193 -70z M1565 980q8 -6 3 -13t-13 -1q-61 42 -142 47l-20 -14q-22 -15 -53 -42q-88 -74 -162 -173q-157 -208 -210 -478q49 12 90 30.5t55.5 28t18.5 13.5q8 6 13 -1q6 -7 -2 -13q0 -2 -18 -14t-63 -31.5t-98 -31.5q-21 -123 -21 -245v-42h-18q0 60 -15 142q-14 70 -37 129 q-71 -5 -123 -3q-109 4 -179 25l-33 -53q-99 -154 -163 -214q-33 -32 -76.5 -52t-94 -20.5t-89.5 28.5q-32 24 -49 61q-21 47 -21 96v1q0 9 9 9t9 -9v-1q0 -28 8 -58q18 -59 54 -85q58 -34 122.5 -20t115.5 63q47 43 106 129l85 131q-54 21 -76 54q-15 20 -15 47q0 46 32 72 q34 29 107 29q44 0 78 -10q7 11 23 33q166 224 290 333q160 140 321 167q33 6 79 6q102 0 172 -50zM481 400q0 -53 83 -85q76 120 105 161q-32 8 -67 8q-64 0 -95 -26q-26 -21 -26 -58zM751 286q58 -2 115 3q-26 58 -61 99q-50 60 -118 82q-26 -36 -106 -161q69 -20 170 -23 zM928 141q4 71 17 141l-54 -9q9 -21 15 -42q14 -43 22 -90zM1164 795q103 137 218 218q-37 -2 -64 -6q-158 -28 -313 -164q-126 -111 -287 -330q-14 -18 -20 -27q70 -25 121 -86q41 -50 65 -109q43 6 65 10q51 277 215 494z" />
<glyph unicode="&#xc7;" horiz-adv-x="738" d="M163 -14q-60 24 -91 80t-31 124q0 152 146 342q108 141 257 252q-36 51 -44 110q-2 9 7 10q8 1 10 -9q12 -59 42 -100q20 15 46 32q121 78 223 105q51 12 86 12q43 0 72 -16q24 -16 34 -43q6 -17 6 -35q0 -47 -28 -84q-18 -27 -51 -51q-68 -49 -160 -50q-34 0 -60 5 q-67 12 -121 50q-31 22 -51 50l-53 -42q-180 -149 -276 -319q-67 -121 -67 -219q4 -122 82 -173q46 -30 117 -30q90 3 154 43q111 63 204 207q5 7 13 3q8 -6 2 -13q-94 -145 -210 -213q-81 -45 -163 -45q-52 0 -95 17zM516 735q50 -36 114 -47q25 -5 57 -5q83 0 148 45 q7 5 13 10t10.5 9.5l8.5 8.5l7 8l5 6q2 3 3 4l2 2q24 33 24 74q0 26 -11 42q-12 18 -37 28q-18 6 -46 6q-38 0 -82 -12q-120 -30 -263 -134q21 -26 47 -45zM21 -222q-8 3 -5 11q2 10 11 5q128 -46 177 26q18 25 10 43q-8 16 -33 25.5t-47 11.5q-6 1 -7.5 6.5t1.5 8.5l57 70 q6 8 13 1q6 -5 1 -12l-47 -59q63 -11 78 -45q12 -28 -11 -61q-54 -82 -198 -31z" />
<glyph unicode="&#xc8;" horiz-adv-x="847" d="M368 -14q-149 6 -223 104q-53 74 -37 191q19 119 111 197q77 65 162 82q-33 92 -1 183q-65 67 -77 150q-2 9 8 11q8 0 10 -8q13 -76 66 -135q14 36 40 72q35 48 90 83q28 17 57.5 28.5t43.5 14.5t17 3q113 14 165 -35q32 -32 33.5 -80.5t-24.5 -83.5q-35 -49 -93.5 -76 t-121.5 -27q-121 5 -199 69q-26 -94 5 -166q38 7 92 4q37 -4 61 -21.5t16 -48.5q-8 -23 -37 -26.5t-58.5 6.5t-47.5 24q-23 18 -36 42q-91 -18 -160 -79q-85 -72 -104 -186q-13 -112 32 -175q35 -47 93 -73t117 -26q118 0 216 58.5t148 162.5q4 9 12 5q9 -4 5 -12 q-58 -111 -157.5 -171.5t-223.5 -60.5zM552 502q7 22 -15 34.5t-47 13.5q-37 3 -81 -4q12 -19 28 -31q30 -23 66.5 -27.5t48.5 14.5zM594 678q70 1 116 24.5t84 71.5q22 29 21.5 72t-27.5 68q-43 44 -155 29q-53 -8 -105 -42t-87 -79q-24 -34 -40 -74q76 -70 193 -70z M811 1029q-108 0 -193.5 43.5t-112.5 133.5q-9 29 -9 51q0 9 9 9t9 -9q0 -20 8 -47q18 -53 56.5 -89t86 -50.5t102 -21t103.5 0.5q8 0 10 -8q0 -10 -9 -10q-30 -3 -60 -3z" />
<glyph unicode="&#xc9;" horiz-adv-x="847" d="M368 -14q-149 6 -223 104q-53 74 -37 191q19 119 111 197q77 65 162 82q-33 92 -1 183q-65 67 -77 150q-2 9 8 11q8 0 10 -8q13 -76 66 -135q14 36 40 72q35 48 90 83q28 17 57.5 28.5t43.5 14.5t17 3q113 14 165 -35q32 -32 33.5 -80.5t-24.5 -83.5q-35 -49 -93.5 -76 t-121.5 -27q-121 5 -199 69q-26 -94 5 -166q38 7 92 4q37 -4 61 -21.5t16 -48.5q-8 -23 -37 -26.5t-58.5 6.5t-47.5 24q-23 18 -36 42q-91 -18 -160 -79q-85 -72 -104 -186q-13 -112 32 -175q35 -47 93 -73t117 -26q118 0 216 58.5t148 162.5q4 9 12 5q9 -4 5 -12 q-58 -111 -157.5 -171.5t-223.5 -60.5zM552 502q7 22 -15 34.5t-47 13.5q-37 3 -81 -4q12 -19 28 -31q30 -23 66.5 -27.5t48.5 14.5zM594 678q70 1 116 24.5t84 71.5q22 29 21.5 72t-27.5 68q-43 44 -155 29q-53 -8 -105 -42t-87 -79q-24 -34 -40 -74q76 -70 193 -70z M538 1029q-9 2 -7 11t10 7q111 -14 232.5 19.5t222.5 98.5q8 5 13 -2q4 -7 -3 -13q-230 -146 -468 -121z" />
<glyph unicode="&#xca;" horiz-adv-x="847" d="M368 -14q-149 6 -223 104q-53 74 -37 191q19 119 111 197q77 65 162 82q-33 92 -1 183q-65 67 -77 150q-2 9 8 11q8 0 10 -8q13 -76 66 -135q14 36 40 72q35 48 90 83q28 17 57.5 28.5t43.5 14.5t17 3q113 14 165 -35q32 -32 33.5 -80.5t-24.5 -83.5q-35 -49 -93.5 -76 t-121.5 -27q-121 5 -199 69q-26 -94 5 -166q38 7 92 4q37 -4 61 -21.5t16 -48.5q-8 -23 -37 -26.5t-58.5 6.5t-47.5 24q-23 18 -36 42q-91 -18 -160 -79q-85 -72 -104 -186q-13 -112 32 -175q35 -47 93 -73t117 -26q118 0 216 58.5t148 162.5q4 9 12 5q9 -4 5 -12 q-58 -111 -157.5 -171.5t-223.5 -60.5zM552 502q7 22 -15 34.5t-47 13.5q-37 3 -81 -4q12 -19 28 -31q30 -23 66.5 -27.5t48.5 14.5zM594 678q70 1 116 24.5t84 71.5q22 29 21.5 72t-27.5 68q-43 44 -155 29q-53 -8 -105 -42t-87 -79q-24 -34 -40 -74q76 -70 193 -70z M977 974q-81 0 -113 74q-13 28 -15 58q-82 -47 -159 -70q-73 -23 -141 -29q-16 -2 -32 -2.5t-29 -0.5t-24 0.5t-19.5 1.5t-14.5 2t-10 2h-3q-9 2 -7 11t11 7q6 -1 16 -2.5t44 -3.5t67 3q161 16 304 104q4 2 9 -0.5t5 -7.5q0 -34 14 -66q28 -63 97 -63q9 0 9 -9t-9 -9z" />
<glyph unicode="&#xcb;" horiz-adv-x="847" d="M368 -14q-149 6 -223 104q-53 74 -37 191q19 119 111 197q77 65 162 82q-33 92 -1 183q-65 67 -77 150q-2 9 8 11q8 0 10 -8q13 -76 66 -135q14 36 40 72q35 48 90 83q28 17 57.5 28.5t43.5 14.5t17 3q113 14 165 -35q32 -32 33.5 -80.5t-24.5 -83.5q-35 -49 -93.5 -76 t-121.5 -27q-121 5 -199 69q-26 -94 5 -166q38 7 92 4q37 -4 61 -21.5t16 -48.5q-8 -23 -37 -26.5t-58.5 6.5t-47.5 24q-23 18 -36 42q-91 -18 -160 -79q-85 -72 -104 -186q-13 -112 32 -175q35 -47 93 -73t117 -26q118 0 216 58.5t148 162.5q4 9 12 5q9 -4 5 -12 q-58 -111 -157.5 -171.5t-223.5 -60.5zM552 502q7 22 -15 34.5t-47 13.5q-37 3 -81 -4q12 -19 28 -31q30 -23 66.5 -27.5t48.5 14.5zM594 678q70 1 116 24.5t84 71.5q22 29 21.5 72t-27.5 68q-43 44 -155 29q-53 -8 -105 -42t-87 -79q-24 -34 -40 -74q76 -70 193 -70z M675 1042q0 -22 -15.5 -38t-38.5 -16t-38.5 16t-15.5 38t15.5 38t38.5 16t38.5 -16t15.5 -38zM837 1042q0 -22 -15.5 -38t-38.5 -16t-38.5 16t-15.5 38t15.5 38t38.5 16t38.5 -16t15.5 -38z" />
<glyph unicode="&#xcc;" d="M90 -119q-83 0 -118 50q-30 44 -15 117q2 10 12 8t8 -12q-15 -63 12 -101q29 -42 100 -42q27 0 55 10t52 23.5t55.5 43t54 54t60.5 72.5l62 80l70 95l121 166l89 123q31 41 80 100t91 100q27 25 41 36q-144 52 -234 22q-10 -4 -12 6q-3 9 6 13q33 11 65.5 13.5t68.5 -4.5 t60 -13.5t64 -20.5q47 35 84 55q81 42 165 48q50 0 71 -6q23 -6 35 -19q22 -26 18 -57.5t-27 -54.5q-35 -35 -95 -35h-4q-91 1 -243 46q-51 -41 -107.5 -105.5t-94.5 -114.5l-104 -143l-122 -167l-84 -113l-72 -91q-44 -55 -71 -80t-63 -53t-68 -38.5t-66 -10.5zM962 812 q134 -40 223 -41q54 -1 84 29q18 17 21 41.5t-12 42.5q-24 26 -89 19q-119 -8 -227 -91zM1218 956q-108 0 -193.5 43.5t-112.5 133.5q-9 29 -9 51q0 9 9 9t9 -9q0 -20 8 -47q18 -53 56.5 -89t86 -50.5t102 -21t103.5 0.5q8 0 10 -8q0 -10 -9 -10q-30 -3 -60 -3z" />
<glyph unicode="&#xcd;" d="M90 -119q-83 0 -118 50q-30 44 -15 117q2 10 12 8t8 -12q-15 -63 12 -101q29 -42 100 -42q27 0 55 10t52 23.5t55.5 43t54 54t60.5 72.5l62 80l70 95l121 166l89 123q31 41 80 100t91 100q27 25 41 36q-144 52 -234 22q-10 -4 -12 6q-3 9 6 13q33 11 65.5 13.5t68.5 -4.5 t60 -13.5t64 -20.5q47 35 84 55q81 42 165 48q50 0 71 -6q23 -6 35 -19q22 -26 18 -57.5t-27 -54.5q-35 -35 -95 -35h-4q-91 1 -243 46q-51 -41 -107.5 -105.5t-94.5 -114.5l-104 -143l-122 -167l-84 -113l-72 -91q-44 -55 -71 -80t-63 -53t-68 -38.5t-66 -10.5zM962 812 q134 -40 223 -41q54 -1 84 29q18 17 21 41.5t-12 42.5q-24 26 -89 19q-119 -8 -227 -91zM932 970q-9 2 -7 11t10 7q111 -14 232.5 19.5t222.5 98.5q8 5 13 -2q4 -7 -3 -13q-230 -146 -468 -121z" />
<glyph unicode="&#xce;" d="M90 -119q-83 0 -118 50q-30 44 -15 117q2 10 12 8t8 -12q-15 -63 12 -101q29 -42 100 -42q27 0 55 10t52 23.5t55.5 43t54 54t60.5 72.5l62 80l70 95l121 166l89 123q31 41 80 100t91 100q27 25 41 36q-144 52 -234 22q-10 -4 -12 6q-3 9 6 13q33 11 65.5 13.5t68.5 -4.5 t60 -13.5t64 -20.5q47 35 84 55q81 42 165 48q50 0 71 -6q23 -6 35 -19q22 -26 18 -57.5t-27 -54.5q-35 -35 -95 -35h-4q-91 1 -243 46q-51 -41 -107.5 -105.5t-94.5 -114.5l-104 -143l-122 -167l-84 -113l-72 -91q-44 -55 -71 -80t-63 -53t-68 -38.5t-66 -10.5zM962 812 q134 -40 223 -41q54 -1 84 29q18 17 21 41.5t-12 42.5q-24 26 -89 19q-119 -8 -227 -91zM1449 905q-81 0 -113 74q-13 28 -15 58q-82 -47 -159 -70q-73 -23 -141 -29q-16 -2 -32 -2.5t-29 -0.5t-24 0.5t-19.5 1.5t-14.5 2t-10 1l-3 1q-9 2 -7 11t11 7q6 -1 16 -2.5t44 -3.5 t67 3q161 16 304 104q4 2 9 -0.5t5 -7.5q0 -34 14 -66q28 -63 97 -63q9 0 9 -9t-9 -9z" />
<glyph unicode="&#xcf;" d="M90 -119q-83 0 -118 50q-30 44 -15 117q2 10 12 8t8 -12q-15 -63 12 -101q29 -42 100 -42q27 0 55 10t52 23.5t55.5 43t54 54t60.5 72.5l62 80l70 95l121 166l89 123q31 41 80 100t91 100q27 25 41 36q-144 52 -234 22q-10 -4 -12 6q-3 9 6 13q33 11 65.5 13.5t68.5 -4.5 t60 -13.5t64 -20.5q47 35 84 55q81 42 165 48q50 0 71 -6q23 -6 35 -19q22 -26 18 -57.5t-27 -54.5q-35 -35 -95 -35h-4q-91 1 -243 46q-51 -41 -107.5 -105.5t-94.5 -114.5l-104 -143l-122 -167l-84 -113l-72 -91q-44 -55 -71 -80t-63 -53t-68 -38.5t-66 -10.5zM962 812 q134 -40 223 -41q54 -1 84 29q18 17 21 41.5t-12 42.5q-24 26 -89 19q-119 -8 -227 -91zM1162 988q0 -22 -16 -38t-38 -16t-38 16t-16 38t16 38t38 16t38 -16t16 -38zM1324 988q0 -22 -16 -38t-38 -16t-38 16t-16 38t16 38t38 16t38 -16t16 -38z" />
<glyph unicode="&#xd0;" horiz-adv-x="1008" d="M1164 873q3 -8 -4 -12q-9 -3 -12 5q-38 84 -173 84q-92 0 -176 -41q-42 -22 -67 -41q98 -44 154 -127q62 -94 62 -228q0 -101 -34 -208q-69 -213 -221 -293q-72 -38 -150 -38q-63 0 -115 27t-78 81q-10 20 -14 49.5t8 65.5t45 55t74 19q53 0 124 -28q8 -4 5 -12 q-4 -8 -12 -5q-66 27 -117 27q-35 0 -62 -15q-36 -21 -44.5 -68.5t9.5 -79.5q24 -49 71 -73.5t106 -24.5q73 0 142 36q149 78 212 283q33 106 33 202q0 128 -59 218q-54 81 -156 125q-28 -21 -64 -56q-73 -73 -152 -190q102 0 180 56q35 24 69 61q5 7 13 1q7 -6 1 -12 q0 -1 -7.5 -9.5t-25 -23.5t-36.5 -29q-97 -70 -206 -61l-87 -134q-35 -57 -91 -157t-64 -113q-81 -143 -140 -195q-54 -49 -116 -56q-65 -9 -104 26q-27 23 -37 61q-2 9 7 11t11 -6q7 -32 30 -52q37 -30 91 -22q56 7 106 51q44 40 92 115q26 42 91 159.5t109 186.5l82 128 q-58 9 -99 41.5t-51 78.5t25 101q39 58 105 80t131.5 14.5t133.5 -34.5q42 30 79 48q89 43 184 43q148 0 189 -95zM571 737q63 77 125 127q-57 21 -110.5 28.5t-111.5 -6t-96 -53.5q-66 -73 -33 -137.5t134 -82.5q45 68 92 124zM644 526l-548 -256q-8 -5 -12 4q-5 7 4 12 l548 256q8 6 12 -4q3 -8 -4 -12z" />
<glyph unicode="&#xd1;" horiz-adv-x="921" d="M-324 -16q-34 41 -34 105t30 110q4 8 12 2q7 -4 3 -12q-29 -42 -27 -100q0 -41 16 -73q37 -62 120 -62q113 0 238 104q118 97 269 302q149 200 230 297q128 152 215 215q69 51 120 51q42 0 42 -34q0 -15 -12 -39q-5 -11 -41 -78l-69 -133q-34 -66 -64 -132 q-123 -271 -130 -442q-2 -51 15 -68q17 -14 44 8q13 13 26 32q21 29 65 111q115 213 205 341q56 79 115.5 146t100 105t82.5 69.5t55 39.5l25 14q7 5 39 23q-2 2 -5 5.5t-4 5.5q-26 36 -38 73q-1 7 6 10q9 3 12 -5q15 -38 35 -68q6 -8 10 -12q9 4 23 11q94 45 163 46 q37 0 62 -11q29 -13 40 -42t-2 -56q-25 -50 -99 -50q-121 3 -191 79l-71 -42q-37 -23 -80 -60q-135 -111 -263 -292q-53 -74 -100.5 -154t-89 -157.5t-57.5 -103.5q-32 -52 -52 -71q-16 -15 -34 -18t-35 11q-20 22 -20 80q6 171 132 449q29 66 64 134l68 132l42 78 q25 47 -14 47q-44 0 -110 -47q-59 -43 -137 -128q-109 -118 -303 -380q-154 -209 -272 -306q-131 -108 -250 -108q-80 2 -120 48zM1569 811q57 0 77 31q13 20 7.5 45t-31.5 37q-26 10 -54 10q-62 -1 -147 -40q-9 -4 -27 -13q73 -70 175 -70zM1413 996q-9 2 -7 11q1 2 1.5 8 t-1.5 17t-7 21.5t-19 20.5t-35 14q-31 7 -66 -16l-74 -50q-40 -26 -78 -26q-39 0 -55 24q-5 7 -8 16.5t-3.5 18.5t0 18t2 15.5t2.5 11.5l1 4q3 8 12 6q8 -3 6 -12q-1 -1 -4 -12t-2 -28t9 -28q12 -16 40 -16t58 17t52 36.5t52 32.5t60 6q57 -14 72 -60q3 -9 3 -43 q-2 -8 -11 -7z" />
<glyph unicode="&#xd2;" horiz-adv-x="951" d="M264 -35q-150 11 -212 105t-32 234q53 194 212 356q135 135 294 205q95 41 185 41q25 0 38 -3q2 0 6 -4q41 17 81 17q54 -1 98.5 -24.5t68.5 -65.5q18 -28 28 -65q2 -8 2 -11q82 -10 116 -50q28 -35 28 -79q0 -52 -29 -89q-44 -59 -152 -69q-67 -147 -202 -273 q-119 -108 -256.5 -169.5t-273.5 -55.5zM265 -17q270 -8 516 220q129 119 195 259h-9q-68 0 -143 25q-71 25 -114 65q-20 19 -36 41q-46 -48 -76 -106q-4 -8 -12 -3q-7 4 -4 12q33 61 81 113q-33 55 -33 117q4 109 100 162h-19q-88 3 -177 -39q-162 -75 -289 -202 q-156 -158 -207 -347q-29 -137 31 -223.5t196 -93.5zM722 565q39 -36 108 -61q69 -24 137 -24q11 0 17 1q42 97 42 177q0 38 -7 75q-113 3 -211 -44q-69 -33 -122 -83q16 -22 36 -41zM1044 658v-1q-4 -83 -40 -175q36 2 73 18.5t56 42.5q26 33 26 78q-2 42 -23 68 q-34 34 -99 43q7 -37 7 -74zM648 726q0 -56 29 -104q52 49 123 84q103 45 215 45q-10 36 -27 66q-23 39 -64 60t-88 21q-76 -2 -132 -50.5t-56 -121.5zM948 961q-108 0 -193.5 43.5t-112.5 133.5q-9 29 -9 51q0 9 9 9t9 -9q0 -20 8 -47q18 -53 56.5 -89t86 -50.5t102 -21 t103.5 0.5q8 0 10 -8q0 -10 -9 -10q-30 -3 -60 -3z" />
<glyph unicode="&#xd3;" horiz-adv-x="951" d="M264 -35q-150 11 -212 105t-32 234q53 194 212 356q135 135 294 205q95 41 185 41q25 0 38 -3q2 0 6 -4q41 17 81 17q54 -1 98.5 -24.5t68.5 -65.5q18 -28 28 -65q2 -8 2 -11q82 -10 116 -50q28 -35 28 -79q0 -52 -29 -89q-44 -59 -152 -69q-67 -147 -202 -273 q-119 -108 -256.5 -169.5t-273.5 -55.5zM265 -17q270 -8 516 220q129 119 195 259h-9q-68 0 -143 25q-71 25 -114 65q-20 19 -36 41q-46 -48 -76 -106q-4 -8 -12 -3q-7 4 -4 12q33 61 81 113q-33 55 -33 117q4 109 100 162h-19q-88 3 -177 -39q-162 -75 -289 -202 q-156 -158 -207 -347q-29 -137 31 -223.5t196 -93.5zM722 565q39 -36 108 -61q69 -24 137 -24q11 0 17 1q42 97 42 177q0 38 -7 75q-113 3 -211 -44q-69 -33 -122 -83q16 -22 36 -41zM1044 658v-1q-4 -83 -40 -175q36 2 73 18.5t56 42.5q26 33 26 78q-2 42 -23 68 q-34 34 -99 43q7 -37 7 -74zM648 726q0 -56 29 -104q52 49 123 84q103 45 215 45q-10 36 -27 66q-23 39 -64 60t-88 21q-76 -2 -132 -50.5t-56 -121.5zM738 989q-9 2 -7 11t10 7q111 -14 232.5 19.5t222.5 98.5q8 5 13 -2q4 -7 -3 -13q-230 -146 -468 -121z" />
<glyph unicode="&#xd4;" horiz-adv-x="951" d="M264 -35q-150 11 -212 105t-32 234q53 194 212 356q135 135 294 205q95 41 185 41q25 0 38 -3q2 0 6 -4q41 17 81 17q54 -1 98.5 -24.5t68.5 -65.5q18 -28 28 -65q2 -8 2 -11q82 -10 116 -50q28 -35 28 -79q0 -52 -29 -89q-44 -59 -152 -69q-67 -147 -202 -273 q-119 -108 -256.5 -169.5t-273.5 -55.5zM265 -17q270 -8 516 220q129 119 195 259h-9q-68 0 -143 25q-71 25 -114 65q-20 19 -36 41q-46 -48 -76 -106q-4 -8 -12 -3q-7 4 -4 12q33 61 81 113q-33 55 -33 117q4 109 100 162h-19q-88 3 -177 -39q-162 -75 -289 -202 q-156 -158 -207 -347q-29 -137 31 -223.5t196 -93.5zM722 565q39 -36 108 -61q69 -24 137 -24q11 0 17 1q42 97 42 177q0 38 -7 75q-113 3 -211 -44q-69 -33 -122 -83q16 -22 36 -41zM1044 658v-1q-4 -83 -40 -175q36 2 73 18.5t56 42.5q26 33 26 78q-2 42 -23 68 q-34 34 -99 43q7 -37 7 -74zM648 726q0 -56 29 -104q52 49 123 84q103 45 215 45q-10 36 -27 66q-23 39 -64 60t-88 21q-76 -2 -132 -50.5t-56 -121.5zM1186 910q-81 0 -113 74q-13 28 -15 58q-82 -47 -159 -70q-73 -23 -141 -29q-16 -2 -32 -2.5t-29 -0.5t-24 0.5 t-19.5 1.5t-14.5 2t-9 2h-4q-9 2 -7 11t11 7q6 -1 16 -2.5t44 -3.5t67 3q161 16 304 104q4 2 9 -0.5t5 -7.5q0 -34 14 -66q29 -63 97 -63q9 0 9 -9t-9 -9z" />
<glyph unicode="&#xd5;" horiz-adv-x="951" d="M264 -35q-150 11 -212 105t-32 234q53 194 212 356q135 135 294 205q95 41 185 41q25 0 38 -3q2 0 6 -4q41 17 81 17q54 -1 98.5 -24.5t68.5 -65.5q18 -28 28 -65q2 -8 2 -11q82 -10 116 -50q28 -35 28 -79q0 -52 -29 -89q-44 -59 -152 -69q-67 -147 -202 -273 q-119 -108 -256.5 -169.5t-273.5 -55.5zM265 -17q270 -8 516 220q129 119 195 259h-9q-68 0 -143 25q-71 25 -114 65q-20 19 -36 41q-46 -48 -76 -106q-4 -8 -12 -3q-7 4 -4 12q33 61 81 113q-33 55 -33 117q4 109 100 162h-19q-88 3 -177 -39q-162 -75 -289 -202 q-156 -158 -207 -347q-29 -137 31 -223.5t196 -93.5zM722 565q39 -36 108 -61q69 -24 137 -24q11 0 17 1q42 97 42 177q0 38 -7 75q-113 3 -211 -44q-69 -33 -122 -83q16 -22 36 -41zM1044 658v-1q-4 -83 -40 -175q36 2 73 18.5t56 42.5q26 33 26 78q-2 42 -23 68 q-34 34 -99 43q7 -37 7 -74zM648 726q0 -56 29 -104q52 49 123 84q103 45 215 45q-10 36 -27 66q-23 39 -64 60t-88 21q-76 -2 -132 -50.5t-56 -121.5zM1091 952q-9 2 -7 11q1 2 1.5 8t-1.5 17t-7 21.5t-19 20.5t-35 14q-31 7 -66 -16l-75 -50q-39 -26 -77 -26q-39 0 -55 24 q-5 7 -8 16.5t-3.5 18.5t0 18t2 15.5t2.5 11.5l1 4q3 8 12 6q8 -3 6 -12q-1 -1 -4 -12t-2 -28t9 -28q12 -16 40 -16t58 17t52 36.5t52 32.5t60 6q57 -14 72 -60q3 -9 3 -43q-2 -8 -11 -7z" />
<glyph unicode="&#xd6;" horiz-adv-x="951" d="M264 -35q-150 11 -212 105t-32 234q53 194 212 356q135 135 294 205q95 41 185 41q25 0 38 -3q2 0 6 -4q41 17 81 17q54 -1 98.5 -24.5t68.5 -65.5q18 -28 28 -65q2 -8 2 -11q82 -10 116 -50q28 -35 28 -79q0 -52 -29 -89q-44 -59 -152 -69q-67 -147 -202 -273 q-119 -108 -256.5 -169.5t-273.5 -55.5zM265 -17q270 -8 516 220q129 119 195 259h-9q-68 0 -143 25q-71 25 -114 65q-20 19 -36 41q-46 -48 -76 -106q-4 -8 -12 -3q-7 4 -4 12q33 61 81 113q-33 55 -33 117q4 109 100 162h-19q-88 3 -177 -39q-162 -75 -289 -202 q-156 -158 -207 -347q-29 -137 31 -223.5t196 -93.5zM722 565q39 -36 108 -61q69 -24 137 -24q11 0 17 1q42 97 42 177q0 38 -7 75q-113 3 -211 -44q-69 -33 -122 -83q16 -22 36 -41zM1044 658v-1q-4 -83 -40 -175q36 2 73 18.5t56 42.5q26 33 26 78q-2 42 -23 68 q-34 34 -99 43q7 -37 7 -74zM648 726q0 -56 29 -104q52 49 123 84q103 45 215 45q-10 36 -27 66q-23 39 -64 60t-88 21q-76 -2 -132 -50.5t-56 -121.5zM894 993q0 -23 -16 -38.5t-38 -15.5t-38 15.5t-16 38.5t16 38.5t38 15.5t38 -15.5t16 -38.5zM1056 993q0 -23 -16 -38.5 t-38 -15.5t-38 15.5t-16 38.5t16 38.5t38 15.5t38 -15.5t16 -38.5z" />
<glyph unicode="&#xd8;" horiz-adv-x="951" d="M264 -35q-150 11 -212 105t-32 234q53 194 212 356q135 135 294 205q95 41 185 41q25 0 38 -3q2 0 6 -4q41 17 81 17q54 -1 98.5 -24.5t68.5 -65.5q18 -28 28 -65q2 -8 2 -11q82 -10 116 -50q28 -35 28 -79q0 -52 -29 -89q-44 -59 -152 -69q-67 -147 -202 -273 q-119 -108 -256.5 -169.5t-273.5 -55.5zM265 -17q270 -8 516 220q129 119 195 259h-9q-68 0 -143 25q-71 25 -114 65q-20 19 -36 41q-46 -48 -76 -106q-4 -8 -12 -3q-7 4 -4 12q33 61 81 113q-33 55 -33 117q4 109 100 162h-19q-88 3 -177 -39q-162 -75 -289 -202 q-156 -158 -207 -347q-29 -137 31 -223.5t196 -93.5zM722 565q39 -36 108 -61q69 -24 137 -24q11 0 17 1q42 97 42 177q0 38 -7 75q-113 3 -211 -44q-69 -33 -122 -83q16 -22 36 -41zM1044 658v-1q-4 -83 -40 -175q36 2 73 18.5t56 42.5q26 33 26 78q-2 42 -23 68 q-34 34 -99 43q7 -37 7 -74zM648 726q0 -56 29 -104q52 49 123 84q103 45 215 45q-10 36 -27 66q-23 39 -64 60t-88 21q-76 -2 -132 -50.5t-56 -121.5zM68 -225q-3 0 -5 1q-8 6 -2 13l813 1270q5 7 13 2q8 -4 2 -12l-813 -1270q-3 -4 -8 -4z" />
<glyph unicode="&#xd9;" horiz-adv-x="902" d="M1221 818q2 -9 -6 -11q-6 -1 -20 -6.5t-17 -6.5q-48 -20 -98 -50q-164 -99 -290 -266q-41 -54 -97 -155q-72 -131 -106 -232q-68 -201 18 -238q50 -21 95 6.5t69.5 81t24.5 108.5q0 8 8 10q8 0 10 -8q0 -42 -15 -86.5t-42.5 -80.5t-67.5 -50.5t-90 3.5q-96 37 -34 241 q-61 -83 -134 -127.5t-177 -44.5q-83 0 -144 50q-71 57 -71 162q0 90 56 201q86 172 250 336q61 59 137 123q-80 10 -163 42l-79 33q-69 28 -106 38q-65 17 -127 17q-100 0 -136 -45q-18 -22 -20 -52t16 -55q31 -37 95 -42q9 -1 9 -10q0 -10 -10 -8q-18 1 -40 7 q-46 15 -67 41q-23 27 -22 64.5t25 66.5q41 51 150 51q67 0 132 -18q38 -10 104 -37.5t83 -33.5q85 -34 175 -43l35 30q28 25 41.5 35t39 22.5t47.5 14.5q31 2 50.5 -11t19.5 -42t-25 -45t-59 -21q-65 -8 -143 -2q-81 -66 -149 -133q-160 -158 -247 -331q-54 -107 -54 -193 q0 -94 64 -148q57 -46 133 -46q118 -1 207 68.5t142 184.5q43 102 115 221q34 56 60 90q58 77 124.5 140t118 98t97.5 58.5t68.5 31.5t25.5 8q9 4 11 -6zM664 878q-18 -1 -39 -11t-33 -19t-36 -30l-31 -26q59 -6 120 3q69 9 69 48q0 38 -50 35zM1019 927q-108 0 -193.5 43.5 t-112.5 133.5q-9 29 -9 51q0 9 9 9t9 -9q0 -20 8 -47q18 -53 56.5 -89t86 -50.5t102 -21t103.5 0.5q8 0 10 -8q0 -10 -9 -10q-30 -3 -60 -3z" />
<glyph unicode="&#xda;" horiz-adv-x="902" d="M1221 818q2 -9 -6 -11q-6 -1 -20 -6.5t-17 -6.5q-48 -20 -98 -50q-164 -99 -290 -266q-41 -54 -97 -155q-72 -131 -106 -232q-68 -201 18 -238q50 -21 95 6.5t69.5 81t24.5 108.5q0 8 8 10q8 0 10 -8q0 -42 -15 -86.5t-42.5 -80.5t-67.5 -50.5t-90 3.5q-96 37 -34 241 q-61 -83 -134 -127.5t-177 -44.5q-83 0 -144 50q-71 57 -71 162q0 90 56 201q86 172 250 336q61 59 137 123q-80 10 -163 42l-79 33q-69 28 -106 38q-65 17 -127 17q-100 0 -136 -45q-18 -22 -20 -52t16 -55q31 -37 95 -42q9 -1 9 -10q0 -10 -10 -8q-18 1 -40 7 q-46 15 -67 41q-23 27 -22 64.5t25 66.5q41 51 150 51q67 0 132 -18q38 -10 104 -37.5t83 -33.5q85 -34 175 -43l35 30q28 25 41.5 35t39 22.5t47.5 14.5q31 2 50.5 -11t19.5 -42t-25 -45t-59 -21q-65 -8 -143 -2q-81 -66 -149 -133q-160 -158 -247 -331q-54 -107 -54 -193 q0 -94 64 -148q57 -46 133 -46q118 -1 207 68.5t142 184.5q43 102 115 221q34 56 60 90q58 77 124.5 140t118 98t97.5 58.5t68.5 31.5t25.5 8q9 4 11 -6zM664 878q-18 -1 -39 -11t-33 -19t-36 -30l-31 -26q59 -6 120 3q69 9 69 48q0 38 -50 35zM810 916q-9 2 -7 11t10 7 q111 -14 232.5 19.5t222.5 98.5q8 5 13 -2q4 -7 -3 -13q-230 -146 -468 -121z" />
<glyph unicode="&#xdb;" horiz-adv-x="902" d="M1221 818q2 -9 -6 -11q-6 -1 -20 -6.5t-17 -6.5q-48 -20 -98 -50q-164 -99 -290 -266q-41 -54 -97 -155q-72 -131 -106 -232q-68 -201 18 -238q50 -21 95 6.5t69.5 81t24.5 108.5q0 8 8 10q8 0 10 -8q0 -42 -15 -86.5t-42.5 -80.5t-67.5 -50.5t-90 3.5q-96 37 -34 241 q-61 -83 -134 -127.5t-177 -44.5q-83 0 -144 50q-71 57 -71 162q0 90 56 201q86 172 250 336q61 59 137 123q-80 10 -163 42l-79 33q-69 28 -106 38q-65 17 -127 17q-100 0 -136 -45q-18 -22 -20 -52t16 -55q31 -37 95 -42q9 -1 9 -10q0 -10 -10 -8q-18 1 -40 7 q-46 15 -67 41q-23 27 -22 64.5t25 66.5q41 51 150 51q67 0 132 -18q38 -10 104 -37.5t83 -33.5q85 -34 175 -43l35 30q28 25 41.5 35t39 22.5t47.5 14.5q31 2 50.5 -11t19.5 -42t-25 -45t-59 -21q-65 -8 -143 -2q-81 -66 -149 -133q-160 -158 -247 -331q-54 -107 -54 -193 q0 -94 64 -148q57 -46 133 -46q118 -1 207 68.5t142 184.5q43 102 115 221q34 56 60 90q58 77 124.5 140t118 98t97.5 58.5t68.5 31.5t25.5 8q9 4 11 -6zM664 878q-18 -1 -39 -11t-33 -19t-36 -30l-31 -26q59 -6 120 3q69 9 69 48q0 38 -50 35zM1258 920q-81 0 -113 74 q-13 28 -15 58q-82 -47 -159 -70q-73 -23 -141 -29q-16 -2 -32 -2.5t-29 -0.5t-24 0.5t-19.5 1.5t-14.5 2t-9 2h-4q-9 2 -7 11t11 7q6 -1 16 -2.5t44 -3.5t67 3q161 16 304 104q4 2 9 -0.5t5 -7.5q0 -34 14 -66q29 -63 97 -63q9 0 9 -9t-9 -9z" />
<glyph unicode="&#xdc;" horiz-adv-x="902" d="M1221 818q2 -9 -6 -11q-6 -1 -20 -6.5t-17 -6.5q-48 -20 -98 -50q-164 -99 -290 -266q-41 -54 -97 -155q-72 -131 -106 -232q-68 -201 18 -238q50 -21 95 6.5t69.5 81t24.5 108.5q0 8 8 10q8 0 10 -8q0 -42 -15 -86.5t-42.5 -80.5t-67.5 -50.5t-90 3.5q-96 37 -34 241 q-61 -83 -134 -127.5t-177 -44.5q-83 0 -144 50q-71 57 -71 162q0 90 56 201q86 172 250 336q61 59 137 123q-80 10 -163 42l-79 33q-69 28 -106 38q-65 17 -127 17q-100 0 -136 -45q-18 -22 -20 -52t16 -55q31 -37 95 -42q9 -1 9 -10q0 -10 -10 -8q-18 1 -40 7 q-46 15 -67 41q-23 27 -22 64.5t25 66.5q41 51 150 51q67 0 132 -18q38 -10 104 -37.5t83 -33.5q85 -34 175 -43l35 30q28 25 41.5 35t39 22.5t47.5 14.5q31 2 50.5 -11t19.5 -42t-25 -45t-59 -21q-65 -8 -143 -2q-81 -66 -149 -133q-160 -158 -247 -331q-54 -107 -54 -193 q0 -94 64 -148q57 -46 133 -46q118 -1 207 68.5t142 184.5q43 102 115 221q34 56 60 90q58 77 124.5 140t118 98t97.5 58.5t68.5 31.5t25.5 8q9 4 11 -6zM664 878q-18 -1 -39 -11t-33 -19t-36 -30l-31 -26q59 -6 120 3q69 9 69 48q0 38 -50 35zM933 919q0 -23 -15.5 -38.5 t-38.5 -15.5t-38.5 15.5t-15.5 38.5t15.5 38.5t38.5 15.5t38.5 -15.5t15.5 -38.5zM1095 919q0 -23 -15.5 -38.5t-38.5 -15.5t-38.5 15.5t-15.5 38.5t15.5 38.5t38.5 15.5t38.5 -15.5t15.5 -38.5z" />
<glyph unicode="&#xdd;" horiz-adv-x="921" d="M1371 863q2 -8 -8 -11l-16 -4q-12 -3 -19 -5q-45 -14 -96 -43q-159 -90 -292 -276l-108 -155q-22 -36 -45 -68q-120 -178 -214 -331q-52 -79 -127 -126t-167 -47q-97 0 -171 44q-46 29 -75 76q-20 -20 -41 -35q-32 -24 -64 -30q-10 -2 -10 7q-2 9 7 11q41 8 85 50l14 14 q-23 48 -23 95q0 51 19 84q21 33 50 33q24 0 37.5 -20t12.5 -49q0 -66 -74 -146q24 -45 71 -74q71 -42 162 -42q84 0 157 44t122 120l133 211q-12 -12 -18 -17q-94 -80 -197 -80q-57 0 -104 20q-56 26 -82 73q-19 36 -19 84q0 84 61 199q63 120 136 202t160 153 q-74 10 -161 41l-60 26q-38 16 -67.5 27t-57.5 19q-126 33 -207 6q-33 -10 -54.5 -35t-21.5 -59q0 -69 111 -90q9 0 9 -9q-2 -9 -10 -9l-5 1q-5 1 -15.5 2.5t-19.5 4.5q-38 11 -63 37t-25 63q0 68 64 102q87 42 242 3q29 -8 59.5 -19.5t67.5 -27.5l59 -25q89 -33 175 -42 q3 2 20 17t23 19.5t21.5 17t25.5 18.5l23 13q14 7 26.5 11t24.5 6q33 4 52.5 -15t15.5 -46t-31 -43q-32 -20 -95 -21.5t-101 4.5q-91 -73 -165 -155t-140 -206q-59 -108 -59 -190q0 -44 17 -76q16 -29 44 -48q50 -35 126 -35q96 0 185 76q55 48 111 124l153 223 q60 85 127.5 151t118 99.5t97.5 54.5t67.5 26t25.5 5q10 2 10 -7zM814 924q-18 -2 -38.5 -12.5t-33 -19.5t-35.5 -28l-33 -26q120 -11 165 15q31 17 21 46t-46 25zM19 28q0 -42 19 -80q64 73 64 129q0 18 -7.5 34.5t-24.5 16.5q-19 0 -34 -24q-15 -22 -17 -76zM1015 955 q-9 2 -7 11t10 7q111 -14 232.5 19.5t222.5 98.5q8 5 13 -2q4 -7 -3 -13q-230 -146 -468 -121z" />
<glyph unicode="&#xe0;" horiz-adv-x="887" d="M900 225q5 -7 0 -13q-242 -217 -398 -217q-39 0 -71.5 14t-35.5 47t36 79q-71 -58 -125 -91q-99 -62 -177 -62q-64 0 -108 35.5t-53 96.5q-12 107 141 237q100 85 198 127q96 43 183 43q42 0 76 -10q9 -2 21.5 -7t34 -24.5t27.5 -45.5q16 -73 -86 -182q6 4 8 6 q40 29 84.5 58t69.5 44t26 15q8 6 12 -3q6 -8 -3 -12l-10 -6l-28 -17l-40 -25l-48 -32q-28 -18 -52 -36q-80 -60 -120 -101q-52 -55 -49 -86q1 -23 29.5 -33.5t58.5 -10.5q82 0 185 61t201 152q8 6 13 -1zM129 0q40 0 83.5 15.5t93 49.5t80 57t82.5 67q184 152 164 241 q-5 21 -23 37t-31.5 21.5t-16.5 5.5q-33 9 -71 9q-84 0 -180.5 -43.5t-188.5 -122.5q-78 -65 -113 -128q-27 -49 -22 -93q6 -53 46 -84.5t97 -31.5zM610 579q-108 0 -193.5 43.5t-112.5 133.5q-9 29 -9 51q0 9 9 9t9 -9q0 -20 8 -47q18 -53 56.5 -89t86 -50.5t102 -21 t103.5 0.5q8 0 10 -8q0 -10 -9 -10q-30 -3 -60 -3z" />
<glyph unicode="&#xe1;" horiz-adv-x="887" d="M900 225q5 -7 0 -13q-242 -217 -398 -217q-39 0 -71.5 14t-35.5 47t36 79q-71 -58 -125 -91q-99 -62 -177 -62q-64 0 -108 35.5t-53 96.5q-12 107 141 237q100 85 198 127q96 43 183 43q42 0 76 -10q9 -2 21.5 -7t34 -24.5t27.5 -45.5q16 -73 -86 -182q6 4 8 6 q40 29 84.5 58t69.5 44t26 15q8 6 12 -3q6 -8 -3 -12l-10 -6l-28 -17l-40 -25l-48 -32q-28 -18 -52 -36q-80 -60 -120 -101q-52 -55 -49 -86q1 -23 29.5 -33.5t58.5 -10.5q82 0 185 61t201 152q8 6 13 -1zM129 0q40 0 83.5 15.5t93 49.5t80 57t82.5 67q184 152 164 241 q-5 21 -23 37t-31.5 21.5t-16.5 5.5q-33 9 -71 9q-84 0 -180.5 -43.5t-188.5 -122.5q-78 -65 -113 -128q-27 -49 -22 -93q6 -53 46 -84.5t97 -31.5zM308 569q-9 2 -7 11t10 7q111 -14 232.5 19.5t222.5 98.5q8 5 13 -2q4 -7 -3 -13q-230 -146 -468 -121z" />
<glyph unicode="&#xe2;" horiz-adv-x="887" d="M900 225q5 -7 0 -13q-242 -217 -398 -217q-39 0 -71.5 14t-35.5 47t36 79q-71 -58 -125 -91q-99 -62 -177 -62q-64 0 -108 35.5t-53 96.5q-12 107 141 237q100 85 198 127q96 43 183 43q42 0 76 -10q9 -2 21.5 -7t34 -24.5t27.5 -45.5q16 -73 -86 -182q6 4 8 6 q40 29 84.5 58t69.5 44t26 15q8 6 12 -3q6 -8 -3 -12l-10 -6l-28 -17l-40 -25l-48 -32q-28 -18 -52 -36q-80 -60 -120 -101q-52 -55 -49 -86q1 -23 29.5 -33.5t58.5 -10.5q82 0 185 61t201 152q8 6 13 -1zM129 0q40 0 83.5 15.5t93 49.5t80 57t82.5 67q184 152 164 241 q-5 21 -23 37t-31.5 21.5t-16.5 5.5q-33 9 -71 9q-84 0 -180.5 -43.5t-188.5 -122.5q-78 -65 -113 -128q-27 -49 -22 -93q6 -53 46 -84.5t97 -31.5zM812 530q-81 0 -113 74q-13 28 -15 58q-82 -47 -159 -70q-73 -23 -141 -29q-16 -2 -32 -2.5t-29 -0.5t-24 0.5t-19.5 1.5 t-14.5 2t-9 2h-4q-9 2 -7 11t11 7q6 -1 16 -2.5t44 -3.5t67 3q161 16 304 104q4 2 9 -0.5t5 -7.5q0 -34 14 -66q29 -63 97 -63q9 0 9 -9t-9 -9z" />
<glyph unicode="&#xe3;" horiz-adv-x="887" d="M900 225q5 -7 0 -13q-242 -217 -398 -217q-39 0 -71.5 14t-35.5 47t36 79q-71 -58 -125 -91q-99 -62 -177 -62q-64 0 -108 35.5t-53 96.5q-12 107 141 237q100 85 198 127q96 43 183 43q42 0 76 -10q9 -2 21.5 -7t34 -24.5t27.5 -45.5q16 -73 -86 -182q6 4 8 6 q40 29 84.5 58t69.5 44t26 15q8 6 12 -3q6 -8 -3 -12l-10 -6l-28 -17l-40 -25l-48 -32q-28 -18 -52 -36q-80 -60 -120 -101q-52 -55 -49 -86q1 -23 29.5 -33.5t58.5 -10.5q82 0 185 61t201 152q8 6 13 -1zM129 0q40 0 83.5 15.5t93 49.5t80 57t82.5 67q184 152 164 241 q-5 21 -23 37t-31.5 21.5t-16.5 5.5q-33 9 -71 9q-84 0 -180.5 -43.5t-188.5 -122.5q-78 -65 -113 -128q-27 -49 -22 -93q6 -53 46 -84.5t97 -31.5zM789 576q-9 2 -7 11q1 2 1.5 8t-1.5 17t-7 21.5t-19 20.5t-35 14q-31 7 -66 -16l-75 -50q-39 -26 -77 -26q-39 0 -55 24 q-5 7 -8 16.5t-3.5 18.5t0 18t2 15.5t2.5 11.5l1 4q3 8 12 6q8 -3 6 -12q-1 -1 -4 -12t-2 -28t9 -28q12 -16 40 -16t58 17t52 36.5t52 32.5t60 6q57 -14 72 -60q3 -9 3 -43q-2 -8 -11 -7z" />
<glyph unicode="&#xe4;" horiz-adv-x="887" d="M900 225q5 -7 0 -13q-242 -217 -398 -217q-39 0 -71.5 14t-35.5 47t36 79q-71 -58 -125 -91q-99 -62 -177 -62q-64 0 -108 35.5t-53 96.5q-12 107 141 237q100 85 198 127q96 43 183 43q42 0 76 -10q9 -2 21.5 -7t34 -24.5t27.5 -45.5q16 -73 -86 -182q6 4 8 6 q40 29 84.5 58t69.5 44t26 15q8 6 12 -3q6 -8 -3 -12l-10 -6l-28 -17l-40 -25l-48 -32q-28 -18 -52 -36q-80 -60 -120 -101q-52 -55 -49 -86q1 -23 29.5 -33.5t58.5 -10.5q82 0 185 61t201 152q8 6 13 -1zM129 0q40 0 83.5 15.5t93 49.5t80 57t82.5 67q184 152 164 241 q-5 21 -23 37t-31.5 21.5t-16.5 5.5q-33 9 -71 9q-84 0 -180.5 -43.5t-188.5 -122.5q-78 -65 -113 -128q-27 -49 -22 -93q6 -53 46 -84.5t97 -31.5zM509 622q0 -22 -15.5 -38t-38.5 -16t-38.5 16t-15.5 38t15.5 38t38.5 16t38.5 -16t15.5 -38zM671 622q0 -22 -15.5 -38 t-38.5 -16t-38.5 16t-15.5 38t15.5 38t38.5 16t38.5 -16t15.5 -38z" />
<glyph unicode="&#xe5;" horiz-adv-x="887" d="M900 225q5 -7 0 -13q-242 -217 -398 -217q-39 0 -71.5 14t-35.5 47t36 79q-71 -58 -125 -91q-99 -62 -177 -62q-64 0 -108 35.5t-53 96.5q-12 107 141 237q100 85 198 127q96 43 183 43q42 0 76 -10q9 -2 21.5 -7t34 -24.5t27.5 -45.5q16 -73 -86 -182q6 4 8 6 q40 29 84.5 58t69.5 44t26 15q8 6 12 -3q6 -8 -3 -12l-10 -6l-28 -17l-40 -25l-48 -32q-28 -18 -52 -36q-80 -60 -120 -101q-52 -55 -49 -86q1 -23 29.5 -33.5t58.5 -10.5q82 0 185 61t201 152q8 6 13 -1zM129 0q40 0 83.5 15.5t93 49.5t80 57t82.5 67q184 152 164 241 q-5 21 -23 37t-31.5 21.5t-16.5 5.5q-33 9 -71 9q-84 0 -180.5 -43.5t-188.5 -122.5q-78 -65 -113 -128q-27 -49 -22 -93q6 -53 46 -84.5t97 -31.5zM610 553q-50 0 -85.5 35.5t-35.5 85.5t35.5 85.5t85.5 35.5t85.5 -35.5t35.5 -85.5t-35.5 -85.5t-85.5 -35.5zM610 777 q-43 0 -73 -30t-30 -73t30 -73t73 -30t73 30t30 73t-30 73t-73 30z" />
<glyph unicode="&#xe6;" horiz-adv-x="1596" d="M900 225q5 -7 0 -13q-242 -217 -398 -217q-39 0 -71.5 14t-35.5 47t36 79q-71 -58 -125 -91q-99 -62 -177 -62q-64 0 -108 35.5t-53 96.5q-12 107 141 237q100 85 198 127q96 43 183 43q42 0 76 -10q9 -2 21.5 -7t34 -24.5t27.5 -45.5q16 -73 -86 -182q6 4 8 6 q40 29 84.5 58t69.5 44t26 15q8 6 12 -3q6 -8 -3 -12l-10 -6l-28 -17l-40 -25l-48 -32q-28 -18 -52 -36q-80 -60 -120 -101q-52 -55 -49 -86q1 -23 29.5 -33.5t58.5 -10.5q82 0 185 61t201 152q8 6 13 -1zM129 0q40 0 83.5 15.5t93 49.5t80 57t82.5 67q184 152 164 241 q-5 21 -23 37t-31.5 21.5t-16.5 5.5q-33 9 -71 9q-84 0 -180.5 -43.5t-188.5 -122.5q-78 -65 -113 -128q-27 -49 -22 -93q6 -53 46 -84.5t97 -31.5zM936 13q-56 31 -62 98t21 130.5t67 104.5q-30 16 -30 18q-7 4 -3 12q6 8 13 2q12 -8 33 -18q8 9 24 24l23 22 q133 129 279 148q88 11 145 -41t13 -127q-33 -56 -103 -84.5t-140 -25.5q-105 5 -205 47l-32 14q-25 -23 -47 -64.5t-35 -88t-2 -90.5t51 -66q31 -18 79.5 -21.5t97 4.5t87 18t63.5 20q91 37 165.5 81t162.5 120q7 5 13 -1q4 -6 -1 -13q-91 -77 -166 -121t-168 -82 q-52 -19 -109 -31.5t-124.5 -12t-109.5 23.5zM991 351l27 -12q98 -40 198 -45q68 -3 134 26.5t94 75.5q23 44 8 78t-57.5 52t-90.5 11q-66 -9 -129.5 -40.5t-141.5 -103.5l-13 -12l-16 -16q-7 -7 -13 -14z" />
<glyph unicode="&#xe7;" horiz-adv-x="706" d="M162 -5q-36 0 -67 5q-108 20 -120 95q-7 46 20.5 107.5t83.5 123.5t123 106t130 59q63 14 101 8q34 -6 53 -29q15 -25 13.5 -48t-11.5 -41q-4 -7 -13 -4q-7 4 -3 12q22 40 -1 70q-29 40 -135 14q-60 -14 -125 -56.5t-119 -102.5q-52 -58 -79 -116.5t-20 -99.5 q5 -34 36 -55t65.5 -24.5t65 -5.5t35.5 1h1q54 0 160 27q184 47 341 179q8 6 13 -1q6 -8 -1 -13q-88 -72 -185 -121q-87 -43 -164 -62q-106 -27 -163 -27h-6q-5 0 -13 -0.5t-16 -0.5zM-2 -201q-8 3 -5 11q2 10 11 5q128 -46 177 26q18 25 10 43q-8 16 -33 25.5t-47 11.5 q-6 1 -7.5 6.5t1.5 8.5l57 70q6 8 13 1q6 -5 1 -12l-47 -59q63 -11 78 -45q12 -28 -11 -61q-54 -82 -198 -31z" />
<glyph unicode="&#xe8;" horiz-adv-x="702" d="M41 13q-56 31 -62 98t21 130.5t67 104.5q-30 16 -30 18q-7 4 -3 12q6 8 13 2q12 -8 33 -18q8 9 25 24l22 22q133 129 279 148q88 11 145 -41t13 -127q-33 -56 -103 -84.5t-140 -25.5q-105 5 -205 47l-32 14q-25 -23 -47 -64.5t-35 -88t-2 -90.5t51 -66q31 -18 79.5 -21.5 t97 4.5t87 18t63.5 20q91 37 165.5 81t162.5 120q7 5 13 -1q4 -6 -1 -13q-91 -77 -166 -121t-168 -82q-52 -19 -109 -31.5t-124.5 -12t-109.5 23.5zM96 351l27 -12q98 -40 198 -45q68 -3 134 26.5t94 75.5q23 44 8 78t-57.5 52t-90.5 11q-66 -9 -129.5 -40.5t-141.5 -103.5 l-12 -13l-16 -15q-8 -7 -14 -14zM533 614q-108 0 -193.5 43.5t-112.5 133.5q-9 29 -9 51q0 9 9 9t9 -9q0 -20 8 -47q18 -53 56.5 -89t86 -50.5t102 -21t103.5 0.5q8 0 10 -8q0 -10 -9 -10q-30 -3 -60 -3z" />
<glyph unicode="&#xe9;" horiz-adv-x="702" d="M41 13q-56 31 -62 98t21 130.5t67 104.5q-30 16 -30 18q-7 4 -3 12q6 8 13 2q12 -8 33 -18q8 9 25 24l22 22q133 129 279 148q88 11 145 -41t13 -127q-33 -56 -103 -84.5t-140 -25.5q-105 5 -205 47l-32 14q-25 -23 -47 -64.5t-35 -88t-2 -90.5t51 -66q31 -18 79.5 -21.5 t97 4.5t87 18t63.5 20q91 37 165.5 81t162.5 120q7 5 13 -1q4 -6 -1 -13q-91 -77 -166 -121t-168 -82q-52 -19 -109 -31.5t-124.5 -12t-109.5 23.5zM96 351l27 -12q98 -40 198 -45q68 -3 134 26.5t94 75.5q23 44 8 78t-57.5 52t-90.5 11q-66 -9 -129.5 -40.5t-141.5 -103.5 l-12 -13l-16 -15q-8 -7 -14 -14zM240 608q-9 2 -7 11t10 7q111 -14 232.5 19.5t222.5 98.5q8 5 13 -2q4 -7 -3 -13q-230 -146 -468 -121z" />
<glyph unicode="&#xea;" horiz-adv-x="702" d="M41 13q-56 31 -62 98t21 130.5t67 104.5q-30 16 -30 18q-7 4 -3 12q6 8 13 2q12 -8 33 -18q8 9 25 24l22 22q133 129 279 148q88 11 145 -41t13 -127q-33 -56 -103 -84.5t-140 -25.5q-105 5 -205 47l-32 14q-25 -23 -47 -64.5t-35 -88t-2 -90.5t51 -66q31 -18 79.5 -21.5 t97 4.5t87 18t63.5 20q91 37 165.5 81t162.5 120q7 5 13 -1q4 -6 -1 -13q-91 -77 -166 -121t-168 -82q-52 -19 -109 -31.5t-124.5 -12t-109.5 23.5zM96 351l27 -12q98 -40 198 -45q68 -3 134 26.5t94 75.5q23 44 8 78t-57.5 52t-90.5 11q-66 -9 -129.5 -40.5t-141.5 -103.5 l-12 -13l-16 -15q-8 -7 -14 -14zM728 563q-81 0 -113 74q-13 28 -15 58q-82 -47 -159 -70q-73 -23 -141 -29q-16 -2 -32 -2.5t-29 -0.5t-24 0.5t-19.5 1.5t-14.5 2t-9 1l-4 1q-9 2 -7 11t11 7q6 -1 16 -2.5t44 -3.5t67 3q161 16 304 104q4 2 9 -0.5t5 -7.5q0 -34 14 -66 q29 -63 97 -63q9 0 9 -9t-9 -9z" />
<glyph unicode="&#xeb;" horiz-adv-x="702" d="M41 13q-56 31 -62 98t21 130.5t67 104.5q-30 16 -30 18q-7 4 -3 12q6 8 13 2q12 -8 33 -18q8 9 25 24l22 22q133 129 279 148q88 11 145 -41t13 -127q-33 -56 -103 -84.5t-140 -25.5q-105 5 -205 47l-32 14q-25 -23 -47 -64.5t-35 -88t-2 -90.5t51 -66q31 -18 79.5 -21.5 t97 4.5t87 18t63.5 20q91 37 165.5 81t162.5 120q7 5 13 -1q4 -6 -1 -13q-91 -77 -166 -121t-168 -82q-52 -19 -109 -31.5t-124.5 -12t-109.5 23.5zM96 351l27 -12q98 -40 198 -45q68 -3 134 26.5t94 75.5q23 44 8 78t-57.5 52t-90.5 11q-66 -9 -129.5 -40.5t-141.5 -103.5 l-12 -13l-16 -15q-8 -7 -14 -14zM427 646q0 -22 -15.5 -38t-38.5 -16t-38.5 16t-15.5 38t15.5 38t38.5 16t38.5 -16t15.5 -38zM589 646q0 -22 -15.5 -38t-38.5 -16t-38.5 16t-15.5 38t15.5 38t38.5 16t38.5 -16t15.5 -38z" />
<glyph unicode="&#xec;" horiz-adv-x="429" d="M29 4q-81 0 -91 46q-7 26 1 60.5t31.5 75.5t41 68.5t46.5 67.5q7 9 10 14q32 46 69.5 95t58 73.5t22.5 26.5q5 7 13 1q7 -5 1 -13q-2 -2 -22.5 -26.5t-57.5 -72.5l-70 -94q-82 -117 -105 -167q-32 -66 -22 -105q9 -32 74 -32q81 0 188 59t204 143q8 6 13 -1t-1 -13 q-243 -206 -404 -206zM399 599q-108 0 -193.5 43.5t-112.5 133.5q-9 29 -9 51q0 9 9 9t9 -9q0 -20 8 -47q18 -53 56.5 -89t86 -50.5t102 -21t103.5 0.5q8 0 10 -8q0 -10 -9 -10q-30 -3 -60 -3z" />
<glyph unicode="&#xed;" horiz-adv-x="429" d="M29 4q-81 0 -91 46q-7 26 1 60.5t31.5 75.5t41 68.5t46.5 67.5q7 9 10 14q32 46 69.5 95t58 73.5t22.5 26.5q5 7 13 1q7 -5 1 -13q-2 -2 -22.5 -26.5t-57.5 -72.5l-70 -94q-82 -117 -105 -167q-32 -66 -22 -105q9 -32 74 -32q81 0 188 59t204 143q8 6 13 -1t-1 -13 q-243 -206 -404 -206zM75 594q-9 2 -7 11t10 7q111 -14 232.5 19.5t222.5 98.5q8 5 13 -2q4 -7 -3 -13q-230 -146 -468 -121z" />
<glyph unicode="&#xee;" horiz-adv-x="429" d="M29 4q-81 0 -91 46q-7 26 1 60.5t31.5 75.5t41 68.5t46.5 67.5q7 9 10 14q32 46 69.5 95t58 73.5t22.5 26.5q5 7 13 1q7 -5 1 -13q-2 -2 -22.5 -26.5t-57.5 -72.5l-70 -94q-82 -117 -105 -167q-32 -66 -22 -105q9 -32 74 -32q81 0 188 59t204 143q8 6 13 -1t-1 -13 q-243 -206 -404 -206zM548 558q-81 0 -113 74q-13 28 -15 58q-82 -47 -159 -70q-73 -23 -141 -29q-16 -2 -32 -2.5t-29 -0.5t-24 0.5t-19.5 1.5t-14.5 2t-9 2h-4q-9 2 -7 11t11 7q6 -1 16 -2.5t44 -3.5t67 3q161 16 304 104q4 2 9 -0.5t5 -7.5q0 -34 14 -66q29 -63 97 -63 q9 0 9 -9t-9 -9z" />
<glyph unicode="&#xef;" horiz-adv-x="429" d="M29 4q-81 0 -91 46q-7 26 1 60.5t31.5 75.5t41 68.5t46.5 67.5q7 9 10 14q32 46 69.5 95t58 73.5t22.5 26.5q5 7 13 1q7 -5 1 -13q-2 -2 -22.5 -26.5t-57.5 -72.5l-70 -94q-82 -117 -105 -167q-32 -66 -22 -105q9 -32 74 -32q81 0 188 59t204 143q8 6 13 -1t-1 -13 q-243 -206 -404 -206zM236 631q0 -23 -16 -38.5t-38 -15.5t-38 15.5t-16 38.5t16 38.5t38 15.5t38 -15.5t16 -38.5zM398 631q0 -23 -16 -38.5t-38 -15.5t-38 15.5t-16 38.5t16 38.5t38 15.5t38 -15.5t16 -38.5z" />
<glyph unicode="&#xf1;" horiz-adv-x="853" d="M-158 -7l-15 11l75 102q36 48 83 119q151 227 132 266q-3 8 4 12q8 3 12 -4q14 -28 -31 -116q-31 -59 -89 -149l44 45q120 117 232 176q141 74 261 50q55 -12 69 -50q3 -9 3.5 -20t-1.5 -21t-5 -20.5t-8 -19.5l-10 -19q-5 -9 -10 -17l-8 -12q-4 -5 -7 -8l-3 -4l-10 -14 q-11 -13 -30 -38.5t-35 -49.5q-71 -110 -59 -161q4 -21 27 -30q65 -26 232 91q38 26 77.5 57t60 49t20.5 19q8 6 13 -1t-1 -13q-74 -66 -159 -126q-142 -98 -217 -98q-19 0 -33 6q-31 12 -38 42q-13 58 62 175l35 50q19 26 31 40l11 13l17 22q10 14 23 47.5t5 54.5 q-9 29 -56 38q-207 42 -476 -220q-81 -80 -153 -172q-75 -97 -75 -102zM728 571q-9 2 -7 11q1 2 1.5 8t-1.5 17t-7 21.5t-19 20.5t-35 14q-31 7 -66 -16l-74 -50q-40 -26 -78 -26t-55 24q-5 7 -8 16.5t-3.5 18.5t0 18t2.5 15l2 11l1 5q3 8 12 6q8 -3 6 -12q-1 -1 -4 -12 t-2 -28t9 -28q12 -16 40 -16t58 17t52 36.5t52 32.5t60 6q57 -14 72 -60q3 -9 3 -43q-2 -8 -11 -7z" />
<glyph unicode="&#xf2;" horiz-adv-x="866" d="M141 -10h-10q-84 5 -122 56q-9 12 -15 26.5t-8.5 27.5t-3.5 26t0 24.5t2 20t2 13.5l1 6q25 96 127 196q87 84 179 126q74 32 134 36q55 3 95 -11q8 -3 15 -6t13 -7l11 -7q6 -3 10 -7l7 -6q4 -3 6 -6l4 -4l3 -2l1 -2q3 -6 0 -11q14 -3 23 -14q18 -20 6 -68 q-12 -44 -64 -118q-28 -38 -53 -66q70 -68 168.5 -64t186.5 74q7 6 13 -2q5 -7 -1 -12q-88 -68 -182 -77q-57 -5 -109 12t-88 55q-24 -27 -56 -57q-79 -73 -151 -111q-76 -41 -144 -41zM449 531q-68 0 -149 -36q-86 -38 -178.5 -126.5t-116.5 -183.5q-2 -9 -4 -23t2 -48.5 t21 -57.5q34 -45 108 -48q60 -4 136 34.5t155 112.5q26 24 59 60q-12 19 -18 44q-12 53 0 109q11 47 34 74q26 32 62 38q6 1 16 1q-24 29 -61 40q-34 10 -66 10zM576 463q-35 -1 -60 -27t-35 -72q-16 -78 13 -135q93 108 110 174q8 38 -3 51q-7 9 -25 9zM570 619 q-108 0 -193.5 43.5t-112.5 133.5q-9 29 -9 51q0 9 9 9t9 -9q0 -20 8 -47q18 -53 56.5 -89t86 -50.5t102 -21t103.5 0.5q8 0 10 -8q0 -10 -9 -10q-30 -3 -60 -3z" />
<glyph unicode="&#xf3;" horiz-adv-x="866" d="M141 -10h-10q-84 5 -122 56q-9 12 -15 26.5t-8.5 27.5t-3.5 26t0 24.5t2 20t2 13.5l1 6q25 96 127 196q87 84 179 126q74 32 134 36q55 3 95 -11q8 -3 15 -6t13 -7l11 -7q6 -3 10 -7l7 -6q4 -3 6 -6l4 -4l3 -2l1 -2q3 -6 0 -11q14 -3 23 -14q18 -20 6 -68 q-12 -44 -64 -118q-28 -38 -53 -66q70 -68 168.5 -64t186.5 74q7 6 13 -2q5 -7 -1 -12q-88 -68 -182 -77q-57 -5 -109 12t-88 55q-24 -27 -56 -57q-79 -73 -151 -111q-76 -41 -144 -41zM449 531q-68 0 -149 -36q-86 -38 -178.5 -126.5t-116.5 -183.5q-2 -9 -4 -23t2 -48.5 t21 -57.5q34 -45 108 -48q60 -4 136 34.5t155 112.5q26 24 59 60q-12 19 -18 44q-12 53 0 109q11 47 34 74q26 32 62 38q6 1 16 1q-24 29 -61 40q-34 10 -66 10zM576 463q-35 -1 -60 -27t-35 -72q-16 -78 13 -135q93 108 110 174q8 38 -3 51q-7 9 -25 9zM269 613q-9 2 -7 11 t10 7q111 -14 232.5 19.5t222.5 98.5q8 5 13 -2q4 -7 -3 -13q-230 -146 -468 -121z" />
<glyph unicode="&#xf4;" horiz-adv-x="866" d="M141 -10h-10q-84 5 -122 56q-9 12 -15 26.5t-8.5 27.5t-3.5 26t0 24.5t2 20t2 13.5l1 6q25 96 127 196q87 84 179 126q74 32 134 36q55 3 95 -11q8 -3 15 -6t13 -7l11 -7q6 -3 10 -7l7 -6q4 -3 6 -6l4 -4l3 -2l1 -2q3 -6 0 -11q14 -3 23 -14q18 -20 6 -68 q-12 -44 -64 -118q-28 -38 -53 -66q70 -68 168.5 -64t186.5 74q7 6 13 -2q5 -7 -1 -12q-88 -68 -182 -77q-57 -5 -109 12t-88 55q-24 -27 -56 -57q-79 -73 -151 -111q-76 -41 -144 -41zM449 531q-68 0 -149 -36q-86 -38 -178.5 -126.5t-116.5 -183.5q-2 -9 -4 -23t2 -48.5 t21 -57.5q34 -45 108 -48q60 -4 136 34.5t155 112.5q26 24 59 60q-12 19 -18 44q-12 53 0 109q11 47 34 74q26 32 62 38q6 1 16 1q-24 29 -61 40q-34 10 -66 10zM576 463q-35 -1 -60 -27t-35 -72q-16 -78 13 -135q93 108 110 174q8 38 -3 51q-7 9 -25 9zM761 573 q-81 0 -113 74q-13 28 -15 58q-82 -47 -159 -70q-73 -23 -141 -29q-16 -2 -32 -2.5t-29 -0.5t-24 0.5t-19.5 1.5t-14.5 2t-10 1l-3 1q-9 2 -7 11t11 7q6 -1 16 -2.5t44 -3.5t67 3q161 16 304 104q4 2 9 -0.5t5 -7.5q0 -34 14 -66q28 -63 97 -63q9 0 9 -9t-9 -9z" />
<glyph unicode="&#xf5;" horiz-adv-x="866" d="M141 -10h-10q-84 5 -122 56q-9 12 -15 26.5t-8.5 27.5t-3.5 26t0 24.5t2 20t2 13.5l1 6q25 96 127 196q87 84 179 126q74 32 134 36q55 3 95 -11q8 -3 15 -6t13 -7l11 -7q6 -3 10 -7l7 -6q4 -3 6 -6l4 -4l3 -2l1 -2q3 -6 0 -11q14 -3 23 -14q18 -20 6 -68 q-12 -44 -64 -118q-28 -38 -53 -66q70 -68 168.5 -64t186.5 74q7 6 13 -2q5 -7 -1 -12q-88 -68 -182 -77q-57 -5 -109 12t-88 55q-24 -27 -56 -57q-79 -73 -151 -111q-76 -41 -144 -41zM449 531q-68 0 -149 -36q-86 -38 -178.5 -126.5t-116.5 -183.5q-2 -9 -4 -23t2 -48.5 t21 -57.5q34 -45 108 -48q60 -4 136 34.5t155 112.5q26 24 59 60q-12 19 -18 44q-12 53 0 109q11 47 34 74q26 32 62 38q6 1 16 1q-24 29 -61 40q-34 10 -66 10zM576 463q-35 -1 -60 -27t-35 -72q-16 -78 13 -135q93 108 110 174q8 38 -3 51q-7 9 -25 9zM705 595q-9 2 -7 11 q1 2 1.5 8t-1.5 17t-7 21.5t-19 20.5t-35 14q-31 7 -66 -16l-75 -50q-39 -26 -77 -26q-39 0 -55 24q-5 7 -8 16.5t-3.5 18.5t0 18t1.5 15l3 11l1 5q3 8 12 6q8 -3 6 -12q-1 -1 -4 -12t-2 -28t9 -28q12 -16 40 -16t58 17t52 36.5t52 32.5t60 6q57 -14 72 -60q3 -9 3 -43 q-2 -8 -11 -7z" />
<glyph unicode="&#xf6;" horiz-adv-x="866" d="M141 -10h-10q-84 5 -122 56q-9 12 -15 26.5t-8.5 27.5t-3.5 26t0 24.5t2 20t2 13.5l1 6q25 96 127 196q87 84 179 126q74 32 134 36q55 3 95 -11q8 -3 15 -6t13 -7l11 -7q6 -3 10 -7l7 -6q4 -3 6 -6l4 -4l3 -2l1 -2q3 -6 0 -11q14 -3 23 -14q18 -20 6 -68 q-12 -44 -64 -118q-28 -38 -53 -66q70 -68 168.5 -64t186.5 74q7 6 13 -2q5 -7 -1 -12q-88 -68 -182 -77q-57 -5 -109 12t-88 55q-24 -27 -56 -57q-79 -73 -151 -111q-76 -41 -144 -41zM449 531q-68 0 -149 -36q-86 -38 -178.5 -126.5t-116.5 -183.5q-2 -9 -4 -23t2 -48.5 t21 -57.5q34 -45 108 -48q60 -4 136 34.5t155 112.5q26 24 59 60q-12 19 -18 44q-12 53 0 109q11 47 34 74q26 32 62 38q6 1 16 1q-24 29 -61 40q-34 10 -66 10zM576 463q-35 -1 -60 -27t-35 -72q-16 -78 13 -135q93 108 110 174q8 38 -3 51q-7 9 -25 9zM474 646 q0 -22 -16 -38t-38 -16t-38 16t-16 38t16 38t38 16t38 -16t16 -38zM636 646q0 -22 -16 -38t-38 -16t-38 16t-16 38t16 38t38 16t38 -16t16 -38z" />
<glyph unicode="&#xf8;" horiz-adv-x="866" d="M31 -195q-3 0 -5 1q-8 6 -2 13l566 885q5 7 13 2q8 -4 2 -12l-566 -885q-3 -4 -8 -4zM141 -10h-10q-84 5 -122 56q-9 12 -15 26.5t-8.5 27.5t-3.5 26t0 24.5t2 20t2 13.5l1 6q25 96 127 196q87 84 179 126q74 32 134 36q55 3 95 -11q8 -3 15 -6t13 -7l12 -7q5 -3 9 -7 l8 -6l6 -6l4 -4l2 -2l1 -2q3 -6 0 -11q14 -3 23 -14q18 -20 6 -68q-12 -44 -64 -118q-28 -38 -53 -66q70 -68 168.5 -64t186.5 74q7 6 13 -2q5 -7 -1 -12q-88 -68 -182 -77q-57 -5 -109 12t-88 55q-24 -27 -56 -57q-79 -73 -151 -111q-76 -41 -144 -41zM449 531 q-68 0 -149 -36q-86 -38 -178.5 -126.5t-116.5 -183.5q-2 -9 -4 -23t2 -48.5t21 -57.5q34 -45 108 -48q60 -4 136 34.5t155 112.5q26 24 59 60q-12 19 -18 44q-12 53 0 109q11 47 34 74q26 32 62 38q6 1 16 1q-24 29 -61 40q-34 10 -66 10zM576 463q-35 -1 -60 -27t-35 -72 q-16 -78 13 -135q93 108 110 174q8 38 -3 51q-7 9 -25 9z" />
<glyph unicode="&#xf9;" horiz-adv-x="839" d="M466 -9q-38 -1 -60 18t-18 57q4 36 20 71q25 52 58 102l-23 -21q-108 -99 -212 -153q-111 -58 -191 -58q-55 0 -77 29q-26 33 -3 98q35 93 147 254l52 72l40 56l14 18q7 7 13 2q8 -6 2 -13l-8 -9l-19 -26l-28 -38l-34 -48l-37 -53l-38 -58q-19 -30 -35 -58t-30 -55.5 t-22 -49.5q-19 -56 0 -81q16 -21 50.5 -23t75 10t70.5 24t52 24q151 81 304 247l45 54l46 55l38 48l28 36l10 13l14 -12l-168 -207q-80 -99 -118 -186q-28 -60 -14 -93t70 -28q47 5 101 32q115 56 243 181q7 6 13 0q6 -7 0 -13q-131 -126 -248 -184q-66 -32 -123 -34z M606 608q-108 0 -193.5 43.5t-112.5 133.5q-9 29 -9 51q0 9 9 9t9 -9q0 -20 8 -47q18 -53 56.5 -89t86 -50.5t102 -21t103.5 0.5q8 0 10 -8q0 -10 -9 -10q-30 -3 -60 -3z" />
<glyph unicode="&#xfa;" horiz-adv-x="839" d="M466 -9q-38 -1 -60 18t-18 57q4 36 20 71q25 52 58 102l-23 -21q-108 -99 -212 -153q-111 -58 -191 -58q-55 0 -77 29q-26 33 -3 98q35 93 147 254l52 72l40 56l14 18q7 7 13 2q8 -6 2 -13l-8 -9l-19 -26l-28 -38l-34 -48l-37 -53l-38 -58q-19 -30 -35 -58t-30 -55.5 t-22 -49.5q-19 -56 0 -81q16 -21 50.5 -23t75 10t70.5 24t52 24q151 81 304 247l45 54l46 55l38 48l28 36l10 13l14 -12l-168 -207q-80 -99 -118 -186q-28 -60 -14 -93t70 -28q47 5 101 32q115 56 243 181q7 6 13 0q6 -7 0 -13q-131 -126 -248 -184q-66 -32 -123 -34z M328 584q-9 2 -7 11t10 7q111 -14 232.5 19.5t222.5 98.5q8 5 13 -2q4 -7 -3 -13q-230 -146 -468 -121z" />
<glyph unicode="&#xfb;" horiz-adv-x="839" d="M466 -9q-38 -1 -60 18t-18 57q4 36 20 71q25 52 58 102l-23 -21q-108 -99 -212 -153q-111 -58 -191 -58q-55 0 -77 29q-26 33 -3 98q35 93 147 254l52 72l40 56l14 18q7 7 13 2q8 -6 2 -13l-8 -9l-19 -26l-28 -38l-34 -48l-37 -53l-38 -58q-19 -30 -35 -58t-30 -55.5 t-22 -49.5q-19 -56 0 -81q16 -21 50.5 -23t75 10t70.5 24t52 24q151 81 304 247l45 54l46 55l38 48l28 36l10 13l14 -12l-168 -207q-80 -99 -118 -186q-28 -60 -14 -93t70 -28q47 5 101 32q115 56 243 181q7 6 13 0q6 -7 0 -13q-131 -126 -248 -184q-66 -32 -123 -34z M763 592q-81 0 -113 74q-13 28 -15 58q-82 -47 -159 -70q-73 -23 -141 -29q-16 -2 -32 -2.5t-29 -0.5t-24 0.5t-19.5 1.5t-14.5 2t-10 2h-3q-9 2 -7 11t11 7q6 -1 16 -2.5t44 -3.5t67 3q161 16 304 104q4 2 9 -0.5t5 -7.5q0 -34 14 -66q28 -63 97 -63q9 0 9 -9t-9 -9z" />
<glyph unicode="&#xfc;" horiz-adv-x="839" d="M466 -9q-38 -1 -60 18t-18 57q4 36 20 71q25 52 58 102l-23 -21q-108 -99 -212 -153q-111 -58 -191 -58q-55 0 -77 29q-26 33 -3 98q35 93 147 254l52 72l40 56l14 18q7 7 13 2q8 -6 2 -13l-8 -9l-19 -26l-28 -38l-34 -48l-37 -53l-38 -58q-19 -30 -35 -58t-30 -55.5 t-22 -49.5q-19 -56 0 -81q16 -21 50.5 -23t75 10t70.5 24t52 24q151 81 304 247l45 54l46 55l38 48l28 36l10 13l14 -12l-168 -207q-80 -99 -118 -186q-28 -60 -14 -93t70 -28q47 5 101 32q115 56 243 181q7 6 13 0q6 -7 0 -13q-131 -126 -248 -184q-66 -32 -123 -34z M461 632q0 -22 -15.5 -38t-38.5 -16t-38.5 16t-15.5 38t15.5 38t38.5 16t38.5 -16t15.5 -38zM623 632q0 -22 -15.5 -38t-38.5 -16t-38.5 16t-15.5 38t15.5 38t38.5 16t38.5 -16t15.5 -38z" />
<glyph unicode="&#xfd;" horiz-adv-x="789" d="M-166 -594q-40 1 -56.5 25.5t-8.5 58.5t34 66q65 80 181 168q100 76 219 146q45 28 119 69l107 194q-137 -102 -241 -129q-105 -27 -169 16q-38 24 -44 68q-14 89 99 239q45 60 116 117.5t152 87.5q8 3 12 -5q3 -8 -5 -12q-146 -54 -260 -198q-7 -7 -29.5 -39 t-47.5 -89.5t-19 -98.5q6 -35 36 -55q58 -39 154 -13q119 32 268 150l88 159l35 63l31 57l16 29q11 23 33.5 36t42.5 3q8 -4 14 -12.5t5 -35t-20 -63.5q-20 -40 -75 -101t-122 -118q-4 -4 -16 -13.5t-18 -15.5l-114 -206q111 59 115 59l9 5q9 4 25.5 12.5t38.5 21.5l50 30 l59 36l67 46q36 26 70 54q7 5 12 -1q6 -8 -1 -13q-34 -28 -70 -54l-67 -46l-59 -37q-29 -18 -51 -30l-39 -21l-26 -14l-10 -5l-139 -72l-4 -8q-88 -164 -224 -320q-169 -193 -273 -191zM306 -91q-55 -30 -94 -54q-284 -171 -395 -310q-13 -16 -21 -36t-9.5 -39.5t10.5 -32.5 t38 -13q50 0 121 53q64 48 138 132q125 144 212 300zM637 472l-17 -31l-31 -56l-35 -63l-66 -119q67 58 120 116.5t72 96.5q36 72 9 87q-24 14 -52 -31zM352 618q-9 2 -7 11t10 7q111 -14 232.5 19.5t222.5 98.5q8 5 13 -2q4 -7 -3 -13q-230 -146 -468 -121z" />
<glyph unicode="&#xff;" horiz-adv-x="789" d="M-166 -594q-40 1 -56.5 25.5t-8.5 58.5t34 66q65 80 181 168q100 76 219 146q45 28 119 69l107 194q-137 -102 -241 -129q-105 -27 -169 16q-38 24 -44 68q-14 89 99 239q45 60 116 117.5t152 87.5q8 3 12 -5q3 -8 -5 -12q-146 -54 -260 -198q-7 -7 -29.5 -39 t-47.5 -89.5t-19 -98.5q6 -35 36 -55q58 -39 154 -13q119 32 268 150l88 159l35 63l31 57l16 29q11 23 33.5 36t42.5 3q8 -4 14 -12.5t5 -35t-20 -63.5q-20 -40 -75 -101t-122 -118q-4 -4 -16 -13.5t-18 -15.5l-114 -206q111 59 115 59l9 5q9 4 25.5 12.5t38.5 21.5l50 30 l59 36l67 46q36 26 70 54q7 5 12 -1q6 -8 -1 -13q-34 -28 -70 -54l-67 -46l-59 -37q-29 -18 -51 -30l-39 -21l-26 -14l-10 -5l-139 -72l-4 -8q-88 -164 -224 -320q-169 -193 -273 -191zM306 -91q-55 -30 -94 -54q-284 -171 -395 -310q-13 -16 -21 -36t-9.5 -39.5t10.5 -32.5 t38 -13q50 0 121 53q64 48 138 132q125 144 212 300zM637 472l-17 -31l-31 -56l-35 -63l-66 -119q67 58 120 116.5t72 96.5q36 72 9 87q-24 14 -52 -31zM504 626q0 -22 -16 -38t-38 -16t-38 16t-16 38t16 38t38 16t38 -16t16 -38zM666 626q0 -22 -16 -38t-38 -16t-38 16 t-16 38t16 38t38 16t38 -16t16 -38z" />
<glyph unicode="&#x152;" horiz-adv-x="1723" d="M264 -35q-150 11 -212 105t-32 234q53 194 212 356q135 135 294 205q95 41 185 41q25 0 38 -3q2 0 6 -4q41 17 81 17q54 -1 98.5 -24.5t68.5 -65.5q18 -28 28 -65q2 -8 2 -11q82 -10 116 -50q28 -35 28 -79q0 -52 -29 -89q-44 -59 -152 -69q-67 -147 -202 -273 q-119 -108 -256.5 -169.5t-273.5 -55.5zM265 -17q270 -8 516 220q129 119 195 259h-9q-68 0 -143 25q-71 25 -114 65q-20 19 -36 41q-46 -48 -76 -106q-4 -8 -12 -3q-7 4 -4 12q33 61 81 113q-33 55 -33 117q4 109 100 162h-19q-88 3 -177 -39q-162 -75 -289 -202 q-156 -158 -207 -347q-29 -137 31 -223.5t196 -93.5zM722 565q39 -36 108 -61q69 -24 137 -24q11 0 17 1q42 97 42 177q0 38 -7 75q-113 3 -211 -44q-69 -33 -122 -83q16 -22 36 -41zM1044 658v-1q-4 -83 -40 -175q36 2 73 18.5t56 42.5q26 33 26 78q-2 42 -23 68 q-34 34 -99 43q7 -37 7 -74zM648 726q0 -56 29 -104q52 49 123 84q103 45 215 45q-10 36 -27 66q-23 39 -64 60t-88 21q-76 -2 -132 -50.5t-56 -121.5zM1224 -14q-149 6 -223 104q-53 74 -37 191q19 119 111 197q77 65 162 82q-33 92 -1 183q-65 67 -77 150q-2 9 8 11 q8 0 10 -8q13 -76 66 -135q14 36 40 72q35 48 90 83q28 17 57.5 28.5t43.5 14.5t17 3q113 14 165 -35q32 -32 33.5 -80.5t-24.5 -83.5q-35 -49 -93.5 -76t-121.5 -27q-121 5 -199 69q-26 -94 5 -166q38 7 92 4q37 -4 61 -21.5t16 -48.5q-8 -23 -37 -26.5t-58.5 6.5t-47.5 24 q-23 18 -36 42q-91 -18 -160 -79q-85 -72 -104 -186q-13 -112 32 -175q35 -47 93 -73t117 -26q118 0 216 58.5t148 162.5q4 9 12 5q9 -4 5 -12q-58 -111 -157.5 -171.5t-223.5 -60.5zM1408 502q7 22 -15 34.5t-47 13.5q-37 3 -81 -4q12 -19 28 -31q30 -23 66.5 -27.5 t48.5 14.5zM1450 678q70 1 116 24.5t84 71.5q22 29 21.5 72t-27.5 68q-43 44 -155 29q-53 -8 -105 -42t-87 -79q-24 -34 -40 -74q76 -70 193 -70z" />
<glyph unicode="&#x153;" horiz-adv-x="1246" d="M502 210q-33 -37 -66 -68q-79 -73 -151 -111q-76 -41 -144 -41h-10q-84 5 -122 56q-9 12 -15 26.5t-8.5 27.5t-3.5 26t0 24.5t2 20t2 13.5l1 6q25 96 127 196q87 84 179 126q74 32 134 36q55 3 95 -11q8 -3 15 -6t13 -7l11 -7q6 -3 10 -7l7 -6q4 -3 6 -6l4 -4l3 -2l1 -2 q3 -6 0 -11q14 -3 23 -14q18 -20 6 -68q-12 -44 -64 -118q-30 -42 -55 -69zM449 531q-68 0 -149 -36q-86 -38 -178.5 -126.5t-116.5 -183.5q-2 -9 -4 -23t2 -48.5t21 -57.5q34 -45 108 -48q60 -4 136 34.5t155 112.5q30 28 58 58q-13 21 -19 45q-16 69 9 140t89 82q6 1 16 1 q-24 29 -61 40q-34 10 -66 10zM576 463q-41 -1 -67.5 -35t-30.5 -77.5t2 -85.5q3 -15 14 -36q93 108 110 174q8 38 -3 51q-7 9 -25 9zM494 229l2 -3q2 -3 6 -8.5t11 -12t19 -13.5t27 -12t37.5 -8t48.5 -3q107 2 220 40q79 27 141 75.5t96 105.5q19 34 15.5 65t-25.5 53 q-45 42 -130 29q-179 -30 -313 -186q-28 -32 -52 -75t-39 -91t-5 -91.5t51 -65.5q31 -18 79.5 -21.5t97 4.5t87 18t63.5 20q91 37 165.5 81t162.5 120q7 5 13 -1q4 -6 -1 -13q-91 -77 -166 -121t-168 -82q-52 -19 -109 -31.5t-124.5 -12t-109.5 23.5q-57 31 -62 97t25 131.5 t76 118.5q140 165 326 194q93 15 143 -28q29 -25 34.5 -62.5t-17.5 -81.5q-33 -58 -99.5 -111t-152.5 -81q-119 -38 -222 -38q-33 0 -60.5 5t-44 13t-27 15t-18.5 14.5t-9 8.5t3 10.5t5 10.5z" />
<glyph unicode="&#x178;" horiz-adv-x="921" d="M1371 863q2 -8 -8 -11l-16 -4q-12 -3 -19 -5q-45 -14 -96 -43q-159 -90 -292 -276l-108 -155q-22 -36 -45 -68q-120 -178 -214 -331q-52 -79 -127 -126t-167 -47q-97 0 -171 44q-46 29 -75 76q-20 -20 -41 -35q-32 -24 -64 -30q-10 -2 -10 7q-2 9 7 11q41 8 85 50l14 14 q-23 48 -23 95q0 51 19 84q21 33 50 33q24 0 37.5 -20t12.5 -49q0 -66 -74 -146q24 -45 71 -74q71 -42 162 -42q84 0 157 44t122 120l133 211q-12 -12 -18 -17q-94 -80 -197 -80q-57 0 -104 20q-56 26 -82 73q-19 36 -19 84q0 84 61 199q63 120 136 202t160 153 q-74 10 -161 41l-60 26q-38 16 -67.5 27t-57.5 19q-126 33 -207 6q-33 -10 -54.5 -35t-21.5 -59q0 -69 111 -90q9 0 9 -9q-2 -9 -10 -9l-5 1q-5 1 -15.5 2.5t-19.5 4.5q-38 11 -63 37t-25 63q0 68 64 102q87 42 242 3q29 -8 59.5 -19.5t67.5 -27.5l59 -25q89 -33 175 -42 q3 2 20 17t23 19.5t21.5 17t25.5 18.5l23 13q14 7 26.5 11t24.5 6q33 4 52.5 -15t15.5 -46t-31 -43q-32 -20 -95 -21.5t-101 4.5q-91 -73 -165 -155t-140 -206q-59 -108 -59 -190q0 -44 17 -76q16 -29 44 -48q50 -35 126 -35q96 0 185 76q55 48 111 124l153 223 q60 85 127.5 151t118 99.5t97.5 54.5t67.5 26t25.5 5q10 2 10 -7zM814 924q-18 -2 -38.5 -12.5t-33 -19.5t-35.5 -28l-33 -26q120 -11 165 15q31 17 21 46t-46 25zM19 28q0 -42 19 -80q64 73 64 129q0 18 -7.5 34.5t-24.5 16.5q-19 0 -34 -24q-15 -22 -17 -76zM1112 998 q0 -22 -16 -38t-38 -16t-38 16t-16 38t16 38t38 16t38 -16t16 -38zM1274 998q0 -22 -16 -38t-38 -16t-38 16t-16 38t16 38t38 16t38 -16t16 -38z" />
<glyph unicode="&#x2c6;" horiz-adv-x="705" d="M630 759q-81 0 -113 74q-13 28 -15 58q-82 -47 -159 -70q-73 -23 -141 -29q-16 -2 -32 -2.5t-29 -0.5t-24 0.5t-19.5 1.5t-14.5 2t-9 1l-4 1q-9 2 -7 11t11 7q6 -1 16 -2.5t44 -3.5t67 3q161 16 304 104q4 2 9 -0.5t5 -7.5q0 -34 14 -66q29 -63 97 -63q9 0 9 -9t-9 -9z " />
<glyph unicode="&#x2dc;" horiz-adv-x="431" d="M387 796q-9 2 -7 11q1 2 1.5 8t-1.5 17t-7 21.5t-19 20.5t-35 14q-31 7 -66 -16l-75 -50q-39 -26 -77 -26q-39 0 -55 24q-5 7 -8 16.5t-3.5 18.5t0 18t2 15.5t2.5 11.5l1 4q3 8 12 6q8 -3 6 -12q-1 -1 -4 -12t-2 -28t9 -28q12 -16 40 -16t58 17t52 36.5t52 32.5t60 6 q57 -14 72 -60q3 -9 3 -43q-2 -8 -11 -7z" />
<glyph unicode="&#x2013;" horiz-adv-x="500" d="M47 303v18h407v-18h-407z" />
<glyph unicode="&#x2014;" horiz-adv-x="1000" d="M47 303v18h907v-18h-907z" />
<glyph unicode="&#x2018;" horiz-adv-x="230" d="M60 560q-3 0 -4 1q-8 4 -4 12l137 275q4 10 12 4q8 -3 4 -12l-137 -275q-2 -5 -8 -5z" />
<glyph unicode="&#x2019;" horiz-adv-x="235" d="M60 560q-3 0 -4 1q-8 4 -4 12l137 275q4 10 12 4q8 -3 4 -12l-137 -275q-2 -5 -8 -5z" />
<glyph unicode="&#x201c;" horiz-adv-x="314" d="M60 560q-3 0 -4 1q-8 4 -4 12l137 275q4 10 12 4q8 -3 4 -12l-137 -275q-2 -5 -8 -5zM147 560q-3 0 -4 1q-8 4 -4 12l137 275q4 10 12 4q8 -3 4 -12l-137 -275q-2 -5 -8 -5z" />
<glyph unicode="&#x201d;" horiz-adv-x="327" d="M60 560q-3 0 -4 1q-8 4 -4 12l137 275q4 10 12 4q8 -3 4 -12l-137 -275q-2 -5 -8 -5zM147 560q-3 0 -4 1q-8 4 -4 12l137 275q4 10 12 4q8 -3 4 -12l-137 -275q-2 -5 -8 -5z" />
<glyph unicode="&#x2022;" horiz-adv-x="286" d="M242 313q0 -39 -28.5 -67t-67.5 -28q-40 0 -67.5 27.5t-27.5 67.5t27.5 68t67.5 28q39 0 67.5 -28t28.5 -68z" />
<glyph unicode="&#x2026;" horiz-adv-x="669" d="M636 46q0 -23 -17 -39.5t-40 -16.5t-39.5 16.5t-16.5 39.5q0 24 16.5 40.5t39.5 16.5t40 -16.5t17 -40.5zM413 46q0 -23 -17 -39.5t-40 -16.5t-39.5 16.5t-16.5 39.5q0 24 16.5 40.5t39.5 16.5t40 -16.5t17 -40.5zM190 46q0 -23 -17 -39.5t-40 -16.5t-39.5 16.5 t-16.5 39.5q0 24 16.5 40.5t39.5 16.5t40 -16.5t17 -40.5z" />
<glyph unicode="&#x2039;" d="M380 85q-9 0 -9 8q-7 99 -141 206q-30 24 -63 46t-51 32l-19 10q-7 3 -5 11q2 6 10 6q200 -21 415 111q103 62 177 136q7 6 13 0t0 -13l-9 -8q-8 -8 -24 -22l-36 -30q-21 -17 -51 -38.5t-60 -39.5q-97 -59 -193 -89q-100 -30 -195 -27q55 -34 102 -71q60 -46 97 -98 q46 -61 51 -120q0 -10 -9 -10z" />
<glyph unicode="&#x203a;" d="M85 117q-5 0 -6 3q-8 6 0 12q0 1 21 20.5t65.5 54.5t93.5 64q98 60 193 88q98 31 194 28q-61 37 -102 71q-61 48 -97 97q-45 62 -50 121q0 8 8 10q10 0 10 -9q7 -98 141 -205q29 -24 62.5 -46t51.5 -32t19 -10q7 -3 5 -11q-4 -8 -10 -6q-199 21 -416 -111 q-30 -18 -59 -39t-49 -37l-37 -31l-24 -21l-8 -8q-1 -3 -6 -3z" />
<glyph unicode="&#x20ac;" horiz-adv-x="816" d="M604 545h-605q-9 0 -9 9t9 9h605q9 0 9 -9t-9 -9zM481 336h-605q-9 0 -9 9t9 9h605q9 0 9 -9t-9 -9zM137 5q-96 45 -96 185q0 152 146 342q108 141 257 252q-36 51 -44 110q-2 9 7 10q8 1 10 -9q12 -59 42 -100q20 15 46 32q121 78 223 105q51 12 86 12q79 0 104 -58.5 t-20 -119.5q-34 -48 -92 -74t-119 -27q-103 0 -181 55q-31 22 -51 50l-53 -42q-180 -149 -276 -319q-26 -46 -43 -99.5t-23 -110.5t15 -105.5t71 -72.5q103 -50 244.5 18.5t225.5 197.5q5 7 13 3q8 -6 2 -13q-53 -81 -133.5 -144t-176 -91t-184.5 13zM516 735 q78 -57 171 -52q131 6 197 93q41 55 18 102.5t-88 47.5q-38 0 -82 -12q-120 -30 -263 -134q21 -26 47 -45z" />
<glyph unicode="&#x2122;" horiz-adv-x="1996" d="M1823 -150q-22 21 -36 52q-18 46 -18 109q9 201 131 476q88 198 182 334q7 12 12.5 24t7.5 25t-5.5 21t-24.5 8q-32 0 -71 -16q-35 -13 -89 -45q-97 -60 -211 -166q-180 -165 -326 -375q-12 -100 -8 -202q0 -39 -7 -67q-9 -43 -34 -64q-20 -17 -48 -17q-23 0 -40 15 q-31 31 -21 86q6 45 57 124q21 39 83 132q17 132 56.5 250.5t103.5 265.5q16 37 16 59q-1 26 -26 26q-57 0 -129 -50q-66 -43 -146 -130q-96 -103 -304 -382q-113 -152 -202 -244q-100 -101 -186 -141q-61 -29 -123 -29h-12q-80 4 -119 52q-35 41 -35 103q0 60 30 108 q6 8 13 2q7 -4 3 -12q-28 -41 -28 -98q0 -56 31 -91q35 -42 106 -46h11q58 0 116 27q60 29 118 79q108 92 262 301q143 193 229 296q130 156 226 220q77 53 139 53q44 -1 44 -44q0 -25 -18 -67q-59 -137 -96.5 -246.5t-56.5 -229.5q100 138 217.5 260t227.5 204 q97 72 169 100q45 17 78 17q32 -2 43 -18q20 -31 -18 -88q-96 -140 -180 -332q-121 -269 -130 -469v-1q-2 -42 8 -75q10 -41 40 -71q48 -44 119 -44q63 0 112 43q30 26 41 47q4 8 12 4q10 -5 4 -13l-2 -3l-5 -8l-8.5 -10.5t-11.5 -13t-15 -14.5q-56 -50 -127 -50 q-79 0 -131 49zM1278 -35q21 0 37 13q14 12 21 33q13 32 13 84q-2 75 4 170q-40 -60 -64 -102q-47 -74 -55 -117q-6 -49 15 -70q12 -11 29 -11zM-77 -62q-27 30 -27 77q0 18 5 43q2 9 11 7t7 -10q-5 -25 -5 -40q0 -40 22 -65q34 -31 90 -31q91 3 190 108q62 66 213 271 q14 18 21 28q142 193 231 292q48 54 109 108q-109 29 -226 72q-71 26 -142 26q-93 0 -177 -46q-12 -7 -23 -14.5t-18 -13.5l-14 -11q-6 -5 -9.5 -8.5t-4.5 -3.5q-6 -6 -13 -1q-6 6 0 13q24 26 69 52q86 51 190 51q75 0 148 -27q127 -46 237 -74q179 148 344 148 q32 -1 50 -2.5t41 -10.5t37 -25q22 -30 15 -63.5t-34 -55.5q-59 -49 -182 -49q-114 0 -267 38l-33 -30q-53 -49 -115 -122t-95 -117l-104 -137q-154 -207 -182 -241q-44 -52 -74 -83t-81 -60.5t-101 -29.5q-71 0 -103 37zM1078 701q114 -1 168 43q25 21 30.5 46.5 t-11.5 49.5q-27 29 -114 31q-157 -2 -323 -136q141 -34 250 -34z" />
<glyph unicode="&#xe000;" horiz-adv-x="505" d="M0 505h505v-505h-505v505z" />
<glyph unicode="&#xfb01;" horiz-adv-x="941" d="M-435 -575q-32 0 -42 23q-16 35 25 130q25 58 43 85q72 140 404 556l146 181q318 389 487 580q37 39 74 31q29 -5 41 -31q11 -23 8 -53.5t-7.5 -48.5t-7.5 -24q-42 -122 -164 -250q-130 -138 -351 -282q-68 -45 -211 -113l-84 -106q32 -32 71 -47q142 -55 367 50 q93 44 172 111q8 6 13 -1t-1 -13q-82 -69 -177 -114q-237 -106 -382 -49q-36 14 -60 36q14 -155 -54 -316q-64 -156 -170 -259q-81 -76 -140 -76zM-90 82q-242 -309 -303 -427q-23 -40 -43 -84q-37 -86 -24 -116q4 -8 15 -11q52 -12 137 70q103 98 168.5 257t49.5 311z M642 968q-15 -16 -80 -92l-181 -214l-226 -273l-119 -148q124 62 175 96q422 276 508 523q2 2 7 20.5t7.5 44.5t-6.5 48q-8 18 -29 21q-28 4 -56 -26zM541 4q-81 0 -91 46q-7 26 1 60.5t31.5 75.5t41 68.5t46.5 67.5q7 9 10 14q32 46 69.5 95t58 73.5t22.5 26.5q5 7 13 1 q7 -5 1 -13q-2 -2 -22.5 -26.5t-57.5 -72.5l-70 -94q-82 -117 -105 -167q-32 -66 -22 -105q9 -32 74 -32q81 0 188 59t204 143q8 6 13 -1t-1 -13q-243 -206 -404 -206zM875 659q0 -20 -14 -34.5t-34 -14.5t-34.5 14.5t-14.5 34.5t14.5 34t34.5 14q19 0 33.5 -14.5 t14.5 -33.5z" />
<glyph unicode="&#xfb02;" horiz-adv-x="1035" d="M-435 -575q-32 0 -42 23q-16 35 25 130q25 58 43 85q72 140 404 556l146 181q318 389 487 580q37 39 74 31q29 -5 41 -31q11 -23 8 -53.5t-7.5 -48.5t-7.5 -24q-42 -122 -164 -250q-130 -138 -351 -282q-68 -45 -211 -113l-84 -106q32 -32 71 -47q142 -55 367 50 q93 44 172 111q8 6 13 -1t-1 -13q-82 -69 -177 -114q-237 -106 -382 -49q-36 14 -60 36q14 -155 -54 -316q-64 -156 -170 -259q-81 -76 -140 -76zM-90 82q-242 -309 -303 -427q-23 -40 -43 -84q-37 -86 -24 -116q4 -8 15 -11q52 -12 137 70q103 98 168.5 257t49.5 311z M642 968q-15 -16 -80 -92l-181 -214l-226 -273l-119 -148q124 62 175 96q422 276 508 523q2 2 7 20.5t7.5 44.5t-6.5 48q-8 18 -29 21q-28 4 -56 -26zM559 -9q-57 0 -85 33q-37 42 -12 117q55 157 248 451l83 120l63 87q21 28 23 30q0 1 13 16t38.5 41.5t50.5 47.5 q54 46 91 61q54 24 89 1q28 -18 31 -54q6 -69 -87 -199q-82 -112 -189 -207q-124 -110 -387 -288q-31 -63 -50 -114q-2 -7 -5 -18.5t-1.5 -37.5t15.5 -42q43 -47 141 -17q121 36 211 84t192 127q7 5 13 -1q6 -8 -1 -13q-108 -82 -199 -131t-212 -84q-34 -10 -74 -10z M893 818q-2 -2 -24 -31l-63 -88l-81 -117q-110 -168 -179 -301q248 172 358 269q107 95 187 204q88 122 83 186q-1 27 -23 41q-50 32 -158 -60q-15 -13 -30 -28l-28 -28l-21 -23l-16 -18z" />
<glyph unicode="&#xfb03;" horiz-adv-x="1449" d="M1049 4q-81 0 -91 46q-7 26 1 60.5t31.5 75.5t41 68.5t46.5 67.5q7 9 10 14q32 46 69.5 95t58 73.5t22.5 26.5q5 7 13 1q7 -5 1 -13q-2 -2 -22.5 -26.5t-57.5 -72.5l-70 -94q-82 -117 -105 -167q-32 -66 -22 -105q9 -32 74 -32q81 0 188 59t204 143q8 6 13 -1t-1 -13 q-243 -206 -404 -206zM1383 659q0 -20 -14 -34.5t-34 -14.5t-34.5 14.5t-14.5 34.5t14.5 34t34.5 14q19 0 33.5 -14.5t14.5 -33.5zM75 -575q-32 0 -42 23q-16 35 25 130q25 58 43 85q72 140 404 556l146 181q318 389 487 580q37 39 74 31q29 -5 41 -31q11 -23 8 -53.5 t-7.5 -48.5t-7.5 -24q-42 -122 -164 -250q-130 -138 -351 -282q-68 -45 -211 -113l-84 -106q32 -32 71 -47q142 -55 367 50q93 44 172 111q8 6 13 -1t-1 -13q-82 -69 -177 -114q-237 -106 -382 -49q-36 14 -60 36q14 -155 -54 -316q-64 -156 -170 -259q-81 -76 -140 -76z M420 82q-242 -309 -303 -427q-23 -40 -43 -84q-37 -86 -24 -116q4 -8 15 -11q52 -12 137 70q103 98 168.5 257t49.5 311zM1152 968q-15 -16 -80 -92l-182 -214l-225 -273l-119 -148q124 62 175 96q422 276 508 523q2 2 7 20.5t7.5 44.5t-6.5 48q-8 18 -29 21q-28 4 -56 -26z M-435 -575q-32 0 -42 23q-16 35 25 130q25 58 43 85q72 140 404 556l146 181q318 389 487 580q37 39 74 31q29 -5 41 -31q11 -23 8 -53.5t-7.5 -48.5t-7.5 -24q-42 -122 -164 -250q-130 -138 -351 -282q-68 -45 -211 -113l-84 -106q32 -32 71 -47q142 -55 367 50 q93 44 172 111q8 6 13 -1t-1 -13q-82 -69 -177 -114q-237 -106 -382 -49q-36 14 -60 36q14 -155 -54 -316q-64 -156 -170 -259q-81 -76 -140 -76zM-90 82q-242 -309 -303 -427q-23 -40 -43 -84q-37 -86 -24 -116q4 -8 15 -11q52 -12 137 70q103 98 168.5 257t49.5 311z M642 968q-15 -16 -80 -92l-182 -214l-225 -273l-119 -148q124 62 175 96q422 276 508 523q2 2 7 20.5t7.5 44.5t-6.5 48q-8 18 -29 21q-28 4 -56 -26z" />
<glyph unicode="&#xfb04;" horiz-adv-x="1553" d="M1077 -9q-57 0 -85 33q-37 42 -12 117q55 157 248 451l82 120l64 87q21 28 23 30q0 1 13 16t38.5 41.5t50.5 47.5q54 46 91 61q54 24 89 1q28 -18 31 -54q6 -69 -87 -199q-82 -112 -189 -207q-124 -110 -387 -288q-31 -63 -50 -114q-2 -7 -5 -18.5t-1.5 -37.5t15.5 -42 q43 -47 141 -17q121 36 211 84t192 127q7 5 13 -1q6 -8 -1 -13q-108 -82 -199 -131t-212 -84q-34 -10 -74 -10zM1411 818q-2 -2 -24 -32l-63 -87l-81 -117q-110 -168 -179 -301q248 172 358 269q107 95 187 204q88 122 83 186q-1 27 -23 41q-50 32 -158 -60q-15 -13 -31 -29 l-27 -28l-21 -22l-16 -18zM75 -575q-32 0 -42 23q-16 35 25 130q25 58 43 85q72 140 404 556l146 181q318 389 487 580q37 39 74 31q29 -5 41 -31q11 -23 8 -53.5t-7.5 -48.5t-7.5 -24q-42 -122 -164 -250q-130 -138 -351 -282q-68 -45 -211 -113l-84 -106q32 -32 71 -47 q142 -55 367 50q93 44 172 111q8 6 13 -1t-1 -13q-82 -69 -177 -114q-237 -106 -382 -49q-36 14 -60 36q14 -155 -54 -316q-64 -156 -170 -259q-81 -76 -140 -76zM420 82q-242 -309 -303 -427q-23 -40 -43 -84q-37 -86 -24 -116q4 -8 15 -11q52 -12 137 70q103 98 168.5 257 t49.5 311zM1152 968q-15 -16 -80 -92l-182 -214l-225 -273l-119 -148q124 62 175 96q422 276 508 523q2 2 7 20.5t7.5 44.5t-6.5 48q-8 18 -29 21q-28 4 -56 -26zM-435 -575q-32 0 -42 23q-16 35 25 130q25 58 43 85q72 140 404 556l146 181q318 389 487 580q37 39 74 31 q29 -5 41 -31q11 -23 8 -53.5t-7.5 -48.5t-7.5 -24q-42 -122 -164 -250q-130 -138 -351 -282q-68 -45 -211 -113l-84 -106q32 -32 71 -47q142 -55 367 50q93 44 172 111q8 6 13 -1t-1 -13q-82 -69 -177 -114q-237 -106 -382 -49q-36 14 -60 36q14 -155 -54 -316 q-64 -156 -170 -259q-81 -76 -140 -76zM-90 82q-242 -309 -303 -427q-23 -40 -43 -84q-37 -86 -24 -116q4 -8 15 -11q52 -12 137 70q103 98 168.5 257t49.5 311zM642 968q-15 -16 -80 -92l-182 -214l-225 -273l-119 -148q124 62 175 96q422 276 508 523q2 2 7 20.5t7.5 44.5 t-6.5 48q-8 18 -29 21q-28 4 -56 -26z" />
</font>
</defs>
</svg>
